<svg width="62" height="64" viewBox="0 0 62 64" fill="none" xmlns="http://www.w3.org/2000/svg">
<path fill-rule="evenodd" clip-rule="evenodd" d="M52.4873 17.6919C51.4594 17.6919 50.6261 16.8586 50.6261 15.8306V10.9914H45.7868C44.7589 10.9914 43.9256 10.1581 43.9256 9.13012C43.9256 8.10219 44.7589 7.26887 45.7868 7.26887H50.6261V2.42961C50.6261 1.40167 51.4594 0.568359 52.4873 0.568359C53.5153 0.568359 54.3486 1.40167 54.3486 2.42961V7.26887H59.1878C60.2158 7.26887 61.0491 8.10219 61.0491 9.13012C61.0491 10.1581 60.2158 10.9914 59.1878 10.9914H54.3486V15.8306C54.3486 16.8586 53.5153 17.6919 52.4873 17.6919ZM18.6125 20.2976C18.6125 18.8585 19.7792 17.6919 21.2183 17.6919C22.6574 17.6919 23.824 18.8585 23.824 20.2976C23.824 21.7368 22.6574 22.9034 21.2183 22.9034C19.7792 22.9034 18.6125 21.7368 18.6125 20.2976ZM21.2183 13.9694C17.7233 13.9694 14.89 16.8027 14.89 20.2976C14.89 23.7926 17.7233 26.6259 21.2183 26.6259C24.7133 26.6259 27.5465 23.7926 27.5465 20.2976C27.5465 16.8027 24.7133 13.9694 21.2183 13.9694ZM3.72251 15.0861C3.72251 9.94639 7.88903 5.77987 13.0288 5.77987H34.247C35.275 5.77987 36.1083 4.94655 36.1083 3.91861C36.1083 2.89068 35.275 2.05736 34.247 2.05736H13.0288C5.83317 2.05736 0 7.89053 0 15.0861V50.0777C0 57.2733 5.83317 63.1064 13.0288 63.1064H48.0203C55.2159 63.1064 61.0491 57.2733 61.0491 50.0777V36.3044V33.9322C61.0491 31.8589 60.2255 29.8706 58.7595 28.4046L55.4279 25.073C53.3927 23.0378 50.0929 23.0378 48.0577 25.073L32.3219 40.8089C31.7405 41.3903 30.7976 41.3903 30.2162 40.8088L26.0201 36.6128C23.9849 34.5775 20.6851 34.5775 18.65 36.6128L3.82167 51.4411C3.75631 50.9961 3.72251 50.5408 3.72251 50.0777V15.0861ZM13.0288 59.3839C9.79949 59.3839 6.95438 57.7392 5.28551 55.2416L21.2822 39.245C21.8636 38.6635 22.8065 38.6635 23.3879 39.245L27.584 43.4411C29.6192 45.4763 32.9189 45.4763 34.9541 43.4411L50.6899 27.7052C51.2714 27.1237 52.2142 27.1237 52.7957 27.7052L56.1273 31.0368C56.8951 31.8047 57.3266 32.8462 57.3266 33.9322V36.3044V50.0777C57.3266 55.2174 53.1601 59.3839 48.0203 59.3839H13.0288Z" fill="#172A42"/>
</svg>
