<svg width="64" height="64" viewBox="0 0 64 64" fill="none" xmlns="http://www.w3.org/2000/svg">
<path d="M31.748 0C14.2423 0 0 14.2423 0 31.7485C0 49.2547 14.2423 63.497 31.748 63.497C49.2542 63.497 63.497 49.2547 63.497 31.7485C63.497 14.2423 49.2537 0 31.748 0ZM31.748 60.3657C15.9687 60.3657 3.13133 47.5278 3.13133 31.7485C3.13133 15.9692 15.9687 3.13133 31.748 3.13133C47.5273 3.13133 60.3657 15.9692 60.3657 31.7485C60.3657 47.5278 47.5273 60.3657 31.748 60.3657Z" fill="black"/>
<path d="M35.4897 22.0527C38.4867 22.6375 40.83 24.9808 41.4147 27.9777M35.4897 16.0527C38.4864 16.3856 41.182 17.6893 43.472 19.8518C44.536 20.852 45.4586 22.1174 46.281 23.8391C46.7933 24.8984 47.2379 26.3888 47.4147 27.9627M45.9147 39.9327V44.4327C45.9181 45.2775 45.5653 46.0845 44.9428 46.6555C44.3204 47.2266 43.486 47.5088 42.6447 47.4327C38.029 46.9312 33.5952 45.354 29.6997 42.8277C26.0755 40.5247 23.0027 37.452 20.6997 33.8277C18.1647 29.9145 16.5871 25.4592 16.0947 20.8227C16.0189 19.984 16.2991 19.1521 16.8669 18.5302C17.4346 17.9082 18.2376 17.5535 19.0797 17.5527L23.5797 17.5527C25.0855 17.5379 26.369 18.6417 26.5797 20.1327C26.7696 21.5728 27.1219 22.9868 27.6297 24.3477C28.0418 25.444 27.7782 26.6799 26.9547 27.5127L25.0497 29.4177C27.185 33.1731 30.2944 36.2824 34.0497 38.4177L35.9547 36.5127C36.7875 35.6892 38.0234 35.4256 39.1197 35.8377C40.4806 36.3456 41.8946 36.6978 43.3347 36.8877C44.8431 37.1005 45.9525 38.4099 45.9147 39.9327Z" stroke="black" stroke-width="3" stroke-linecap="round" stroke-linejoin="round"/>
</svg>
