<svg width="34" height="23" viewBox="0 0 34 23" fill="none" xmlns="http://www.w3.org/2000/svg">
<path d="M33.1596 3.07318V20.3905C33.1596 21.2079 32.4932 21.8743 31.6757 21.8743H2.22112C1.3948 21.8743 0.737305 21.2079 0.737305 20.3905V3.07317C0.737305 2.25575 1.3948 1.58936 2.22112 1.58936H31.6757C31.9512 1.58936 32.2088 1.66929 32.431 1.80259C32.8663 2.05135 33.1596 2.53119 33.1596 3.07318Z" fill="#F05B76"/>
<path opacity="0.1" d="M33.1596 3.07332V20.3907C33.1596 21.2081 32.4932 21.8745 31.6757 21.8745H2.22112C1.3948 21.8745 0.737305 21.2081 0.737305 20.3907V19.7598H11.8083C22.284 19.7598 31.0271 11.9142 32.431 1.80273C32.8663 2.05149 33.1596 2.53133 33.1596 3.07332Z" fill="#010101"/>
<rect x="0.737305" y="5.49756" width="32.4223" height="4.10479" fill="#3F5176"/>
<path d="M11.732 13.3247H4.50544C4.1419 13.3247 3.84717 13.6194 3.84717 13.983V18.1063C3.84717 18.4699 4.1419 18.7646 4.50544 18.7646H11.732C12.0956 18.7646 12.3903 18.4699 12.3903 18.1063V13.983C12.3903 13.6194 12.0956 13.3247 11.732 13.3247Z" fill="#F5C560"/>
<path d="M30.0497 16.9345V18.4717C30.0497 18.6316 29.9164 18.7648 29.7565 18.7648H18.4278C18.259 18.7648 18.1257 18.6316 18.1257 18.4717V16.9345C18.1257 16.7745 18.259 16.6413 18.4278 16.6413H29.7565C29.9164 16.6413 30.0497 16.7745 30.0497 16.9345ZM30.0497 13.0339V14.5711C30.0497 14.731 29.9164 14.8643 29.7565 14.8643H22.8704C22.7016 14.8643 22.5684 14.731 22.5684 14.5711V13.0339C22.5684 12.874 22.7016 12.7407 22.8704 12.7407H29.7565C29.9164 12.7407 30.0497 12.874 30.0497 13.0339Z" fill="#DAEAF8"/>
<path d="M31.6757 22.55H2.22108C1.03044 22.55 0.0617676 21.5814 0.0617676 20.3907V3.07337C0.0617676 1.88273 1.03044 0.914062 2.22108 0.914062H31.6757C32.8663 0.914062 33.835 1.88273 33.835 3.07337V20.3907C33.835 21.5814 32.8663 22.55 31.6757 22.55ZM2.22108 2.265C1.77549 2.265 1.4127 2.6278 1.4127 3.07338V20.3907C1.4127 20.8366 1.77549 21.1991 2.22108 21.1991H31.6757C32.1212 21.1991 32.484 20.8366 32.484 20.3907V3.07338C32.484 2.6278 32.1212 2.265 31.6757 2.265L2.22108 2.265Z" fill="#2A3D66"/>
</svg>
