<svg width="32" height="32" viewBox="0 0 32 32" fill="none" xmlns="http://www.w3.org/2000/svg">
<path fill-rule="evenodd" clip-rule="evenodd" d="M16 0C7.16344 0 -1.90735e-06 7.16345 0 16C0 24.8366 7.16344 32 16 32C24.8366 32 32 24.8366 32 16C32 7.16344 24.8366 9.53674e-07 16 0ZM18.504 8.014C18.6392 8.01182 18.7695 8.06451 18.8653 8.16003C18.961 8.25556 19.0139 8.38578 19.012 8.521V10.011H22.004V8.521C22.0001 8.24523 22.2202 8.01838 22.496 8.014C22.6312 8.01182 22.7615 8.06451 22.8573 8.16003C22.953 8.25556 23.0059 8.38578 23.004 8.521V10.011H24.5C24.776 10.011 25 10.234 25 10.51V16.5C25 16.7761 24.7761 17 24.5 17H20.684C20.602 16.658 20.592 16.287 20.311 16H24.002V11.01H22.619C22.5427 11.0282 22.4633 11.0282 22.387 11.01H18.627C18.5507 11.0282 18.4713 11.0282 18.395 11.01H17.014V12.691C17.014 12.691 16.434 12.298 16.016 12.309V10.509C16.016 10.234 16.238 10.012 16.514 10.012H18.012V8.522C18.0075 8.24584 18.2278 8.01838 18.504 8.014ZM18.012 12.008H19.01V13.006H18.012V12.008ZM20.008 12.008H21.008V13.006H20.008V12.008ZM22.006 12.008H23.004V13.006H22.006V12.008ZM14.492 13C17.5244 13.0044 19.9816 15.4616 19.986 18.494C19.9816 21.5261 17.5241 23.9827 14.492 23.986C11.4602 23.9827 9.00331 21.5258 9 18.494C9.0033 15.4619 11.4599 13.0044 14.492 13ZM14.492 13.998C13.2992 13.9961 12.1547 14.4693 11.3115 15.3129C10.4682 16.1565 9.99561 17.3012 9.998 18.494C9.99561 19.6866 10.4683 20.8311 11.3116 21.6744C12.1549 22.5177 13.2994 22.9904 14.492 22.988C15.6848 22.9904 16.8295 22.5178 17.6731 21.6745C18.5167 20.8313 18.9899 19.6868 18.988 18.494C18.9899 17.301 18.5168 16.1564 17.6732 15.3128C16.8296 14.4692 15.685 13.9961 14.492 13.998ZM20.008 14.008H21.008V15.006H20.008V14.008ZM22.006 14.008H23.004V15.006H22.006V14.008ZM14.486 14.666C14.6214 14.6638 14.7519 14.7166 14.8476 14.8124C14.9434 14.9081 14.9962 15.0386 14.994 15.174V17.998H17.506C17.7821 17.998 18.006 18.2219 18.006 18.498C18.006 18.7741 17.7821 18.998 17.506 18.998H14.494C14.2179 18.998 13.994 18.7741 13.994 18.498V15.174C13.9895 14.8978 14.2098 14.6704 14.486 14.666Z" fill="#172A42"/>
</svg>
