<svg width="26" height="27" viewBox="0 0 26 27" fill="none" xmlns="http://www.w3.org/2000/svg">
<path d="M12.8472 24.5753L11.8008 25.1799V13.8148L21.6749 8.11236V12.4196C21.6825 13.0534 22.6296 13.0503 22.6376 12.4196C22.6212 12.4005 22.6537 7.23115 22.634 7.21365C22.6248 7.05226 22.5379 6.90495 22.3969 6.82355L11.5616 0.566117C11.413 0.480565 11.2288 0.480565 11.0802 0.566117L0.24067 6.82355C0.0916615 6.90957 0 7.06845 0 7.24049V19.7553C0 19.9274 0.0916615 20.0863 0.24067 20.1723L11.0802 26.4297C11.233 26.5099 11.4089 26.5126 11.5616 26.4297L13.3285 25.4092C13.874 25.0874 13.3918 24.2648 12.8472 24.5753ZM4.76452 10.3046L6.38152 11.2384V13.9656L4.76452 13.0321V10.3046ZM5.21443 9.45273L15.1195 3.73273L16.7358 4.66609L6.83102 10.3863L5.21443 9.45273ZM17.6985 5.22202L21.2266 7.25941L11.3218 12.9799L7.79349 10.9422L17.6985 5.22202ZM11.3209 1.53914L14.1568 3.1768L4.25192 8.89686L1.41391 7.25782L11.3209 1.53914ZM0.962681 8.10907L3.80184 9.7487V13.3099C3.80184 13.4819 3.8935 13.6408 4.04251 13.7268L6.62219 15.2165C6.92743 15.4052 7.35564 15.1588 7.3442 14.7995L7.3442 11.7944L10.8382 13.8121V25.1785L0.962681 19.4775V8.10907Z" fill="#172A42"/>
<path d="M10.1504 21.9298L6.80127 19.996C6.25662 19.6834 5.77482 20.5124 6.31996 20.8299L9.66911 22.7637C10.2115 23.0756 10.6967 22.2484 10.1504 21.9298Z" fill="#172A42"/>
<path d="M6.31997 18.9048L9.66914 20.8386C10.2115 21.1505 10.6967 20.3233 10.1505 20.0047L6.80131 18.0709C6.25643 17.7592 5.77489 18.5871 6.31997 18.9048Z" fill="#172A42"/>
<path d="M25.9723 25.8747L25.1943 23.2828C27.5572 19.2366 24.4188 13.8984 19.7349 13.9794C16.2848 13.9794 13.4776 16.7866 13.4776 20.2368C13.4113 25.225 19.298 28.2877 23.331 25.3524L25.2775 26.4336C25.6356 26.6496 26.1068 26.2718 25.9723 25.8747ZM24.2123 23.3594L24.7097 25.0173L23.5265 24.3601C23.3583 24.2657 23.1481 24.2826 22.9958 24.402C22.0534 25.1409 20.9257 25.5315 19.735 25.5315C12.7122 25.2415 12.7116 15.2323 19.7351 14.942C22.6546 14.942 25.0298 17.3172 25.0298 20.2368C25.0298 21.1967 24.7642 22.1424 24.2617 22.9716C24.1912 23.0882 24.1733 23.2292 24.2123 23.3594Z" fill="#172A42"/>
<path d="M20.6469 15.9045H18.8231C18.2703 15.8923 17.7973 16.4141 17.8651 16.9631C17.8651 16.9631 18.2501 20.8133 18.2501 20.8133C18.2995 21.3078 18.7112 21.6806 19.2081 21.6806H20.262C20.7588 21.6806 21.1706 21.3078 21.2199 20.8138L21.6049 16.9636C21.6725 16.4143 21.2002 15.8922 20.6469 15.9045ZM20.262 20.7179H19.2081L18.8231 16.8672H20.6469L20.262 20.7179Z" fill="#172A42"/>
<path d="M20.2164 22.1621H19.2537C18.723 22.1621 18.291 22.5941 18.291 23.1248V24.0875C18.291 24.6182 18.723 25.0502 19.2537 25.0502H20.2164C20.7471 25.0502 21.1791 24.6182 21.1791 24.0875V23.1248C21.1791 22.5941 20.7471 22.1621 20.2164 22.1621ZM19.2537 24.0875V23.1248H20.2164L20.2173 24.0875H19.2537Z" fill="#172A42"/>
</svg>
