<svg width="37" height="37" viewBox="0 0 37 37" fill="none" xmlns="http://www.w3.org/2000/svg">
<path d="M29.7609 36.9998H21.7174C21.2732 36.9998 20.913 36.6397 20.913 36.1955C20.913 35.7512 21.2732 35.3911 21.7174 35.3911H29.7609C30.2051 35.3911 30.5652 35.7512 30.5652 36.1955C30.5652 36.6397 30.2051 36.9998 29.7609 36.9998ZM8.04348 36.9998H0.804348C0.360119 36.9998 0 36.6397 0 36.1955C0 35.7512 0.360119 35.3911 0.804348 35.3911H8.04348C8.48771 35.3911 8.84783 35.7512 8.84783 36.1955C8.84783 36.6397 8.48771 36.9998 8.04348 36.9998ZM18.5 36.9998H16.8913C16.4471 36.9998 16.087 36.6397 16.087 36.1955C16.087 35.7512 16.4471 35.3911 16.8913 35.3911H18.5C18.9442 35.3911 19.3043 35.7512 19.3043 36.1955C19.3043 36.6397 18.9442 36.9998 18.5 36.9998Z" fill="#747575"/>
<path d="M16.087 20.9129V24.9346H9.65217C7.43103 24.9346 5.63043 26.7352 5.63044 28.9564L5.63043 32.1738H0V28.9564C0 23.6256 4.32143 19.3042 9.65217 19.3042H14.4783C15.3667 19.3042 16.087 20.0244 16.087 20.9129Z" fill="#C4455E"/>
<path d="M14.4783 19.3046H9.6522C5.90245 19.3065 2.4932 21.4801 0.908936 24.8787C4.30328 21.1546 7.99524 21.7176 12.8696 21.7176C13.758 21.7176 14.4783 22.4378 14.4783 23.3263V24.935H16.087V20.9133C16.087 20.0248 15.3667 19.3046 14.4783 19.3046ZM28.9565 24.1306L25.7392 32.1741H16.087V28.9567H21.3072C22.1449 28.9598 22.8447 28.3194 22.9159 27.4848C24.2431 10.6337 24.1305 12.2826 24.1305 12.0654L27.3478 12.8698C27.5087 14.012 27.2433 12.1861 28.9565 24.1306Z" fill="#DB5669"/>
<path d="M28.9565 24.1306C26.3102 30.7504 26.3022 30.5654 26.3826 30.5654C26.0211 30.5642 25.6835 30.3844 25.4808 30.085C25.278 29.7857 25.2362 29.4056 25.3691 29.0693L27.3478 24.1306C25.6346 12.1861 25.9 13.9959 25.7391 12.8698C23.8087 12.3872 24.0902 12.6124 24.1304 12.0654L27.3478 12.8698C27.5087 14.012 27.2433 12.1861 28.9565 24.1306Z" fill="#F26674"/>
<path d="M30.5652 7.23892V12.065C30.5652 12.5092 30.2051 12.8694 29.7609 12.8694H25.7391C23.9622 12.8694 22.5217 11.4289 22.5217 9.65196C22.5217 7.87505 23.9622 6.43457 25.7391 6.43457H29.7609C30.2051 6.43457 30.5652 6.79469 30.5652 7.23892Z" fill="#DB5669"/>
<path d="M27.4605 13.6737C25.8518 13.6737 24.9992 13.7944 24.042 13.1831C24.1707 11.687 23.8248 12.8694 25.7392 12.8694H27.3479L27.4605 13.6737Z" fill="#C4455E"/>
<path d="M32.9782 9.6523C32.9782 10.985 31.8979 12.0653 30.5652 12.0653V7.23926C31.8979 7.23926 32.9782 8.31961 32.9782 9.6523Z" fill="#FFCC66"/>
<path d="M32.6243 10.9068C32.2464 11.1377 31.8123 11.2601 31.3695 11.2607L31.3695 7.38379C32.0525 7.62698 32.59 8.16441 32.8333 8.84742C33.0766 9.53043 32.9998 10.2866 32.6243 10.9068Z" fill="#FFDE76"/>
<path d="M24.1304 10.4564H19.3043C18.8601 10.4564 18.5 10.0962 18.5 9.652C18.5 9.20777 18.8601 8.84766 19.3043 8.84766H24.1304C24.5747 8.84766 24.9348 9.20778 24.9348 9.652C24.9348 10.0962 24.5747 10.4564 24.1304 10.4564Z" fill="#374F68"/>
<path d="M37 32.1738H25.7391C29.2702 23.326 28.8439 24.1304 29.222 24.1304C33.5603 24.2736 37.0024 27.8332 37 32.1738Z" fill="#C4455E"/>
<path d="M36.8391 30.5652H26.3826L28.9565 24.1304C32.7809 24.1304 36.0756 26.821 36.8394 30.5668L36.8391 30.5652Z" fill="#DB5669"/>
<path d="M12.8696 32.1738C12.8696 34.8392 10.7089 36.9999 8.04349 36.9999C5.37812 36.9999 3.21741 34.8392 3.21741 32.1738H12.8696ZM34.5146 32.9782C33.6298 38.319 25.892 38.311 25.0072 32.9782H34.5146Z" fill="#374F68"/>
<path d="M9.65221 32.1738C9.65221 33.0623 8.93197 33.7825 8.04351 33.7825C7.15505 33.7825 6.43481 33.0623 6.43481 32.1738H9.65221ZM31.1524 32.9782C30.8646 33.4743 30.3345 33.7797 29.7609 33.7797C29.1873 33.7797 28.6572 33.4743 28.3694 32.9782H31.1524Z" fill="#7C7D7D"/>
<path d="M0 9.65234H11.2609V19.3045H0V9.65234Z" fill="#A87E6B"/>
<path d="M11.2609 9.65234V17.6958H6.4348C4.65788 17.6958 3.21741 16.2553 3.21741 14.4784V9.65234H11.2609Z" fill="#BE927C"/>
<path d="M16.087 19.3042H11.2609V16.0868C12.7972 16.0868 14.5828 15.8375 15.6526 17.6955C15.9361 18.1843 16.0859 18.7392 16.087 19.3042Z" fill="#2C435E"/>
<path d="M15.6526 17.6955H11.2609V16.0868C12.7972 16.0868 14.5828 15.8375 15.6526 17.6955Z" fill="#374F68"/>
<path d="M7.23912 9.65234V14.4784L5.63042 13.6741L4.02173 14.4784V9.65234H7.23912Z" fill="#F6CCAF"/>
<path d="M30.5652 7.23892V11.2607H29.7609C27.0955 11.2607 24.9348 9.09995 24.9348 6.43457L29.7609 6.43457C30.2051 6.43457 30.5652 6.79469 30.5652 7.23892Z" fill="#F26674"/>
<path d="M24.9348 7.2392C24.3316 7.2392 24.4442 7.18289 21.8542 2.8555C21.6578 2.4895 21.7725 2.03421 22.1187 1.80479C22.4649 1.57537 22.9289 1.64727 23.1894 1.97072L25.6024 5.99246C25.7647 6.2389 25.7791 6.55443 25.6398 6.81456C25.5005 7.0747 25.2299 7.23768 24.9348 7.2392Z" fill="#374F68"/>
<path d="M21.7174 3.21739H19.3044V0H21.7174C22.6059 0 23.3261 0.720238 23.3261 1.6087C23.3261 2.49715 22.6059 3.21739 21.7174 3.21739ZM16.087 24.9348V32.1739H5.63049V28.9565C5.63049 26.7354 7.43109 24.9348 9.65223 24.9348H16.087Z" fill="#DB5669"/>
<path d="M9.65221 24.9346C8.18194 24.9442 6.8341 25.7554 6.13721 27.05C7.32764 26.3985 7.46438 26.5433 14.4783 26.5433V32.1737H16.087V24.9346H9.65221Z" fill="#F26674"/>
<path d="M7.23909 9.65234V12.8697H6.43475C5.54629 12.8697 4.82605 12.1495 4.82605 11.261V9.65234H7.23909Z" fill="#FFDEC7"/>
<path d="M31.3696 32.1738C31.3691 32.4564 31.2942 32.7338 31.1524 32.9782H28.3694C28.2276 32.7338 28.1527 32.4564 28.1522 32.1738H31.3696Z" fill="#747575"/>
<path d="M28.1522 32.1738C28.1527 32.4564 28.2276 32.7338 28.3694 32.9782H25.0072C24.9585 32.7128 24.9342 32.4436 24.9348 32.1738H28.1522ZM34.587 32.1738C34.5876 32.4436 34.5633 32.7128 34.5146 32.9782H31.1524C31.2942 32.7338 31.3691 32.4564 31.3696 32.1738H34.587Z" fill="#2C435E"/>
<path d="M9.65221 32.1738C9.6517 32.4564 9.5768 32.7338 9.43503 32.9782H6.65199C6.51022 32.7338 6.43532 32.4564 6.43481 32.1738H9.65221Z" fill="#747575"/>
<path d="M6.43481 32.1738C6.43531 32.4564 6.51021 32.7338 6.65198 32.9782H3.28981C3.24107 32.7129 3.21684 32.4436 3.21742 32.1738L6.43481 32.1738ZM12.8696 32.1738C12.8702 32.4436 12.8459 32.7129 12.7972 32.9782H9.43503C9.5768 32.7338 9.6517 32.4564 9.6522 32.1738H12.8696Z" fill="#2C435E"/>
</svg>
