<svg width="31" height="20" viewBox="0 0 31 20" fill="none" xmlns="http://www.w3.org/2000/svg">
<path d="M0.461914 0H30.462V20.0003H0.461914V0Z" fill="#F0F0F0"/>
<path d="M0.461914 2.49951H30.462V4.99931H0.461914V2.49951ZM0.461914 7.49975H30.462V9.99955H0.461914V7.49975ZM0.461914 12.4994H30.462V14.9991H0.461914V12.4994ZM0.461914 17.4996H30.462V19.9994H0.461914V17.4996Z" fill="#D80027"/>
<path d="M0.461914 0H15.462V10.7694H0.461914V0Z" fill="#2E52B2"/>
<path d="M6.31094 4.41158L6.06936 5.15479H5.28795L5.92024 5.61387L5.67865 6.35702L6.31094 5.89793L6.94282 6.35702L6.7013 5.61387L7.33358 5.15479H6.55211L6.31094 4.41158ZM6.55211 7.83675L6.31094 7.09361L6.06936 7.83675H5.28795L5.92024 8.29589L5.67865 9.03904L6.31094 8.5799L6.94282 9.03904L6.7013 8.29589L7.33358 7.83675H6.55211ZM3.2497 7.83675L3.00847 7.09361L2.76688 7.83675H1.98547L2.61776 8.29589L2.37618 9.03904L3.00847 8.5799L3.6404 9.03904L3.39888 8.29589L4.03105 7.83675H3.2497ZM3.00847 4.41158L2.76688 5.15479H1.98547L2.61776 5.61387L2.37618 6.35702L3.00847 5.89793L3.6404 6.35702L3.39888 5.61387L4.03105 5.15479H3.2497L3.00847 4.41158ZM6.31094 1.72949L6.06936 2.47276H5.28795L5.92024 2.9319L5.67865 3.67506L6.31094 3.21591L6.94282 3.67506L6.7013 2.9319L7.33358 2.47276H6.55211L6.31094 1.72949ZM3.00847 1.72949L2.76688 2.47276H1.98547L2.61776 2.9319L2.37618 3.67506L3.00847 3.21591L3.6404 3.67506L3.39888 2.9319L4.03105 2.47276H3.2497L3.00847 1.72949ZM9.61336 4.41158L9.37184 5.15479H8.59043L9.22265 5.61387L8.98119 6.35702L9.61336 5.89793L10.2454 6.35702L10.0038 5.61387L10.6361 5.15479H9.85465L9.61336 4.41158ZM9.85465 7.83675L9.61336 7.09361L9.37184 7.83675H8.59043L9.22265 8.29589L8.98119 9.03904L9.61336 8.5799L10.2454 9.03904L10.0038 8.29589L10.6361 7.83675H9.85465ZM13.1571 7.83675L12.9159 7.09361L12.6743 7.83675H11.893L12.5251 8.29589L12.2836 9.03904L12.9159 8.5799L13.5478 9.03904L13.3062 8.29589L13.9385 7.83675H13.1571ZM12.9159 4.41158L12.6743 5.15479H11.893L12.5251 5.61387L12.2836 6.35702L12.9159 5.89793L13.5478 6.35702L13.3062 5.61387L13.9385 5.15479H13.1571L12.9159 4.41158ZM9.61336 1.72949L9.37184 2.47276H8.59043L9.22265 2.9319L8.98119 3.67506L9.61336 3.21591L10.2454 3.67506L10.0038 2.9319L10.6361 2.47276H9.85465L9.61336 1.72949ZM12.9159 1.72949L12.6743 2.47276H11.893L12.5251 2.9319L12.2836 3.67506L12.9159 3.21591L13.5478 3.67506L13.3062 2.9319L13.9385 2.47276H13.1571L12.9159 1.72949Z" fill="#F0F0F0"/>
</svg>
