<svg width="60" height="60" viewBox="0 0 60 60" fill="none" xmlns="http://www.w3.org/2000/svg">
<path d="M29.6555 0C13.3036 0 0 13.3036 0 29.656C0 46.0088 13.3036 59.3119 29.6555 59.3119C46.0078 59.3119 59.3119 46.0088 59.3119 29.656C59.3114 13.3036 46.0073 0 29.6555 0ZM29.6555 56.387C14.9162 56.387 2.92494 44.3957 2.92494 29.656C2.92494 14.9167 14.9162 2.92494 29.6555 2.92494C44.3947 2.92494 56.387 14.9167 56.387 29.656C56.3865 44.3957 44.3947 56.387 29.6555 56.387Z" fill="black"/>
<path d="M38.7962 12.2544H32.3633C32.3486 12.2543 32.334 12.255 32.3194 12.2564C25.8246 12.2768 24.9763 16.8119 24.9729 20.7757C24.9639 20.8133 24.9593 20.8517 24.9593 20.8903V23.6729H20.5143C20.2451 23.6729 20.0269 23.8911 20.0269 24.1604V31.0228C20.0269 31.292 20.2451 31.5103 20.5143 31.5103H24.9593V46.5693C24.9593 46.8385 25.1775 47.0568 25.4468 47.0568H31.9338C32.203 47.0568 32.4213 46.8385 32.4213 46.5693V31.5107H38.7957C39.0649 31.5107 39.2832 31.2925 39.2832 31.0232V24.1609C39.2832 23.8916 39.0649 23.6734 38.7957 23.6734H31.9338V19.9845H38.7957C39.0649 19.9845 39.2832 19.7663 39.2832 19.497V12.7419C39.2833 12.6126 39.2321 12.4887 39.1407 12.3972C39.0494 12.3058 38.9254 12.2544 38.7962 12.2544Z" fill="black"/>
</svg>
