<svg width="21" height="22" viewBox="0 0 21 22" fill="none" xmlns="http://www.w3.org/2000/svg">
<path d="M4.02445 19.2322C3.9404 19.2315 3.85916 19.2018 3.79444 19.1482C0.425634 16.4233 -0.859476 11.8707 0.587267 7.78653C2.03401 3.70233 5.89832 0.9738 10.2312 0.977095C11.7946 0.972462 13.3379 1.32986 14.7402 2.02128C14.9206 2.11108 14.9941 2.33005 14.9045 2.51052C14.862 2.59779 14.7865 2.66456 14.6947 2.69608C14.6029 2.72759 14.5024 2.72125 14.4152 2.67847C10.0071 0.513777 4.6756 2.06872 2.12228 6.26377C-0.349105 10.3253 0.565314 15.5887 4.26177 18.5786C4.33698 18.64 4.38464 18.7288 4.39423 18.8254C4.40383 18.922 4.37455 19.0185 4.31289 19.0934C4.24321 19.1816 4.13683 19.2328 4.02445 19.2322ZM10.2312 21.4228C8.59993 21.4272 6.99172 21.0377 5.54328 20.2873C5.36382 20.1946 5.29353 19.9739 5.38628 19.7944C5.47904 19.615 5.69971 19.5447 5.87917 19.6374C9.66009 21.589 14.2778 20.7864 17.1783 17.6734C20.0789 14.5603 20.5537 9.89753 18.3401 6.26377C17.7728 5.33575 17.0518 4.51102 16.2079 3.82489C16.0525 3.69841 16.028 3.47028 16.1531 3.31374C16.214 3.23799 16.3025 3.18962 16.3991 3.17935C16.4958 3.16907 16.5925 3.19773 16.6679 3.25898C17.5758 3.9974 18.3512 4.88513 18.9608 5.88406C20.8818 9.03964 20.9509 12.9862 19.1414 16.207C17.332 19.4279 13.9255 21.4219 10.2312 21.4228Z" fill="#172A42"/>
<path d="M9.86609 21.0574C9.7756 21.0572 9.68843 21.0234 9.62147 20.9625C8.25022 19.7329 7.20527 18.1824 6.58018 16.4499C5.88683 14.7847 5.51517 13.0032 5.48486 11.1997C5.48888 9.39217 5.86158 7.60445 6.58017 5.94588C7.26559 4.24574 8.30191 2.7093 9.62147 1.43688C9.77215 1.31588 9.99102 1.33325 10.1207 1.4765C10.2504 1.61976 10.246 1.83928 10.1107 1.97723C8.86381 3.17741 7.88355 4.62665 7.23371 6.23066C6.56101 7.80089 6.21445 9.49145 6.21507 11.1997C6.23851 12.907 6.5854 14.5943 7.23736 16.1724C7.82754 17.8055 8.81502 19.266 10.1107 20.4222C10.2222 20.5235 10.26 20.6829 10.2059 20.8235C10.1517 20.9641 10.0168 21.0571 9.86609 21.0574Z" fill="#172A42"/>
<path d="M10.596 21.0576C10.4453 21.0572 10.3104 20.9643 10.2562 20.8237C10.2021 20.6831 10.2399 20.5237 10.3514 20.4224C11.6471 19.2662 12.6345 17.8057 13.2247 16.1726C13.8767 14.5945 14.2236 12.9072 14.247 11.1999C14.2476 9.49164 13.9011 7.80109 13.2284 6.23086C12.5785 4.62684 11.5983 3.17761 10.3514 1.97743C10.2456 1.89252 10.1957 1.75601 10.2216 1.62292C10.2475 1.48982 10.3451 1.38206 10.475 1.34307C10.6048 1.30407 10.7456 1.34027 10.8406 1.43708C12.1667 2.70774 13.2094 4.24431 13.9001 5.94608C14.6125 7.60596 14.9789 9.39363 14.9772 11.1999C14.9469 13.0034 14.5752 14.7849 13.8819 16.4501C13.2526 18.1841 12.2026 19.7347 10.826 20.9627C10.7628 21.0203 10.6814 21.0539 10.596 21.0576Z" fill="#172A42"/>
<path d="M20.0889 11.5648H0.373402C0.171762 11.5648 0.00830078 11.4013 0.00830078 11.1997C0.00830078 10.998 0.171762 10.8346 0.373402 10.8346H20.0889C20.2905 10.8346 20.454 10.998 20.454 11.1997C20.454 11.4013 20.2905 11.5648 20.0889 11.5648ZM18.6285 6.45335H1.83381C1.63217 6.45335 1.46871 6.28989 1.46871 6.08825C1.46871 5.88661 1.63217 5.72314 1.83381 5.72314H18.6285C18.8301 5.72314 18.9936 5.88661 18.9936 6.08825C18.9936 6.28989 18.8301 6.45335 18.6285 6.45335ZM18.6285 16.6762H1.83381C1.63217 16.6762 1.46871 16.5127 1.46871 16.3111C1.46871 16.1095 1.63217 15.946 1.83381 15.946H18.6285C18.8301 15.946 18.9936 16.1095 18.9936 16.3111C18.9936 16.5127 18.8301 16.6762 18.6285 16.6762Z" fill="#172A42"/>
<path d="M10.2308 21.0578C10.0292 21.0578 9.86572 20.8943 9.86572 20.6927V1.70739C9.86572 1.50575 10.0292 1.34229 10.2308 1.34229C10.4325 1.34229 10.5959 1.50575 10.5959 1.70739V20.6927C10.5959 20.8943 10.4325 21.0578 10.2308 21.0578Z" fill="#172A42"/>
</svg>
