<svg width="30" height="30" viewBox="0 0 30 30" fill="none" xmlns="http://www.w3.org/2000/svg">
<path d="M23.3752 30.0002H6.62519C4.97119 30.0002 3.62519 28.6542 3.62519 27.0002V16.0002H1.00019C0.596189 16.0002 0.230189 15.7563 0.0761892 15.3832C-0.0788107 15.0093 0.00718924 14.5793 0.293189 14.2933L14.2932 0.29325C14.6842 -0.09775 15.3162 -0.09775 15.7072 0.29325L29.7072 14.2933C29.9932 14.5793 30.0792 15.0093 29.9242 15.3832C29.7692 15.7563 29.4042 16.0002 29.0002 16.0002H26.3752V27.0002C26.3752 28.6542 25.0292 30.0002 23.3752 30.0002ZM19.4042 28.0002H23.3752C23.9272 28.0002 24.3752 27.5513 24.3752 27.0002V15.0002C24.3752 14.4482 24.8222 14.0002 25.3752 14.0002H26.5862L15.0002 2.41425L3.41419 14.0002H4.62519C5.17819 14.0002 5.62519 14.4482 5.62519 15.0002V27.0002C5.62519 27.5513 6.07319 28.0002 6.62519 28.0002H10.5972V21.6073C10.5972 19.1793 12.5732 17.2043 15.0002 17.2043C17.4282 17.2043 19.4042 19.1793 19.4042 21.6073V28.0002ZM17.4042 28.0002V21.6073C17.4042 20.2822 16.3262 19.2043 15.0002 19.2043C13.6752 19.2043 12.5972 20.2822 12.5972 21.6073V28.0002H17.4042Z" fill="#A2A2A2"/>
</svg>
