<svg width="61" height="61" viewBox="0 0 61 61" fill="none" xmlns="http://www.w3.org/2000/svg">
<path d="M51.476 8.83261C46.0329 3.3721 38.4856 0 30.1542 0C21.8393 0 14.2926 3.3721 8.8325 8.83249C3.37236 14.2926 -0.000488281 21.8226 -0.000488281 30.1542C-0.000488281 38.4855 3.37224 46.0161 8.8325 51.4759C14.2926 56.9363 21.8393 60.3082 30.1542 60.3082C38.4856 60.3082 46.0328 56.9363 51.476 51.4759C56.9358 46.0161 60.3089 38.4855 60.3089 30.1542C60.3089 21.8227 56.936 14.2927 51.476 8.83261ZM49.8234 49.8229C44.7804 54.8492 37.835 57.9546 30.1544 57.9546C22.4906 57.9546 15.5279 54.8492 10.5025 49.8229C5.47624 44.781 2.35411 37.835 2.35411 30.1543C2.35411 22.474 5.47624 15.5279 10.5025 10.5023C15.5279 5.47659 22.4906 2.35384 30.1544 2.35384C37.8351 2.35384 44.7804 5.47659 49.8234 10.5023C54.8491 15.5279 57.9546 22.474 57.9546 30.1543C57.9546 37.835 54.8491 44.781 49.8234 49.8229Z" fill="#262626"/>
<path d="M30.1546 20.4038C24.7781 20.4038 20.4038 24.7781 20.4038 30.1546C20.4038 35.5482 24.7781 39.9061 30.1546 39.9061C35.5477 39.9061 39.9054 35.5482 39.9054 30.1546C39.9056 24.7781 35.5477 20.4038 30.1546 20.4038ZM30.1546 37.8854C25.897 37.8854 22.4406 34.429 22.4406 30.1546C22.4406 25.897 25.8969 22.4239 30.1546 22.4239C34.429 22.4239 37.8853 25.897 37.8853 30.1546C37.8854 34.429 34.4291 37.8854 30.1546 37.8854Z" fill="#262626"/>
<path d="M38.1357 15.0728H22.1905C18.2668 15.0728 14.9521 18.2492 14.9521 22.1903V38.136C14.9521 42.0586 18.2668 44.8587 22.1905 44.8587H38.1357C42.076 44.8587 45.3665 42.0586 45.3665 38.136V22.1903C45.3665 18.2492 42.076 15.0728 38.1357 15.0728ZM43.607 38.136C43.607 41.0905 41.0912 43.0992 38.1357 43.0992H22.1905C19.2345 43.0992 16.8373 41.0905 16.8373 38.136V22.1903C16.8373 19.2344 19.2345 16.8323 22.1905 16.8323H38.1357C41.0912 16.8323 43.607 19.2344 43.607 22.1903V38.136Z" fill="#262626"/>
<path d="M39.7217 19.0845C39.3054 19.0839 38.9059 19.249 38.6115 19.5433C38.3171 19.8377 38.1519 20.2371 38.1523 20.6534C38.1523 21.522 38.8534 22.2232 39.7217 22.2232C40.1382 22.2237 40.5378 22.0585 40.8323 21.764C41.1268 21.4695 41.2921 21.0699 41.2916 20.6534C41.2916 19.7855 40.5899 19.0845 39.7217 19.0845Z" fill="#262626"/>
</svg>
