<svg width="22" height="24" viewBox="0 0 22 24" fill="none" xmlns="http://www.w3.org/2000/svg">
<path d="M11 23.95C10.6 23.95 10.3 23.85 9.9 23.75L2.8 20.45C2.3 20.15 2 19.65 2 19.05V12.25L3 12.75V19.05C3 19.25 3.1 19.45 3.3 19.55L10.4 22.85C10.8 23.05 11.3 23.05 11.7 22.85L18.8 19.55C19 19.45 19.1 19.25 19.1 19.05V12.75L20.1 12.25V19.05C20.1 19.65 19.8 20.15 19.2 20.45L12.1 23.75C11.7 23.85 11.4 23.95 11 23.95Z" fill="#1689FC"/>
<path d="M5.5 19.15H5.3L4.9 18.95C4.3 18.65 4 18.15 4 17.55V16.45C4 16.15 4.2 15.95 4.5 15.95C4.8 15.95 5 16.15 5 16.45V17.55C5 17.75 5.1 17.95 5.3 18.05L5.7 18.25C6 18.25 6.1 18.55 6 18.85C5.9 19.05 5.7 19.15 5.5 19.15ZM12.5 7.95H9.5C9.2 7.95 9 7.75 9 7.45V4.95H7.5C7.3 4.95 7.1 4.85 7 4.65C6.9 4.45 7 4.25 7.1 4.15L10.6 0.15C10.8 -0.05 11.2 -0.05 11.4 0.15L14.9 4.15C15 4.25 15 4.45 15 4.65C15 4.85 14.7 4.95 14.5 4.95H13V7.45C13 7.75 12.8 7.95 12.5 7.95ZM10 6.95H12V4.45C12 4.15 12.2 3.95 12.5 3.95H13.4L11 1.25L8.6 3.95H9.5C9.8 3.95 10 4.15 10 4.45V6.95Z" fill="#3E5959"/>
<path d="M21.9 10.9504L20 7.15039L19.1 7.65039L21 11.4504L14 14.9504L11.4 11.1504H10.6L8 14.9504L1 11.4504L2.9 7.65039L2.1 7.25039L0.1 10.9504C0 11.1504 0 11.2504 0 11.4504C0 11.8504 0.2 12.1504 0.6 12.3504L7.6 15.8504C7.7 15.9504 7.8 15.9504 8 15.9504C8.3 15.9504 8.6 15.7504 8.8 15.5504L11 12.3504L13.2 15.5504C13.4 15.8504 13.7 15.9504 14 15.9504C14.2 15.9504 14.3 15.9504 14.4 15.8504L21.4 12.3504C21.7 12.1504 22 11.8504 22 11.4504C22 11.2504 22 11.1504 21.9 10.9504Z" fill="#3E5959"/>
<circle cx="7.5" cy="19.5503" r="0.5" fill="#3E5959"/>
<path d="M19.7 6.94997L16.7 5.54997C16.4 5.44997 16.2 5.54997 16 5.74997C15.9 5.94997 16 6.24997 16.2 6.44997L18.3 7.44997L11 10.85L3.7 7.44997L5.8 6.44997C6 6.34997 6.1 6.04997 6 5.84997C5.9 5.54997 5.6 5.44997 5.3 5.54997L2.3 6.94997C2.1 7.04997 2 7.24997 2 7.44997C2 7.64997 2.1 7.84997 2.3 7.94997L10.5 11.85V23.55H11.5V11.75L19.7 7.94997C19.9 7.84997 20 7.64997 20 7.44997C20 7.24997 19.9 7.04997 19.7 6.94997Z" fill="#1689FC"/>
</svg>
