<svg width="27" height="25" viewBox="0 0 27 25" fill="none" xmlns="http://www.w3.org/2000/svg">
<path d="M11.8889 0.611328H14.8611C15.6831 0.611328 16.3472 1.27543 16.3472 2.09744V5.06966C16.3472 5.89167 15.6831 6.55577 14.8611 6.55577H11.8889C11.0669 6.55577 10.4028 5.89167 10.4028 5.06966V2.09744C10.4028 1.27543 11.0669 0.611328 11.8889 0.611328ZM2.97222 3.58355H8.91667V5.81272C8.91667 7.0434 9.91515 8.04188 11.1458 8.04188H15.6042C16.8349 8.04188 17.8333 7.0434 17.8333 5.81272V3.58355H23.7778C25.4171 3.58355 26.75 4.91641 26.75 6.55577V21.4169C26.75 23.0563 25.4171 24.3891 23.7778 24.3891H2.97222C1.33286 24.3891 0 23.0563 0 21.4169V6.55577C0 4.91641 1.33286 3.58355 2.97222 3.58355ZM8.17361 20.92C8.17361 21.194 8.39653 21.4169 8.67053 21.4169H18.0795C18.3535 21.4169 18.5764 21.194 18.5764 20.92C18.5764 19.55 17.4665 18.4447 16.1011 18.4447H10.6489C9.27891 18.4447 8.17361 19.5546 8.17361 20.92ZM13.375 16.9586C15.0165 16.9586 16.3472 15.6278 16.3472 13.9863C16.3472 12.3448 15.0165 11.0141 13.375 11.0141C11.7335 11.0141 10.4028 12.3448 10.4028 13.9863C10.4028 15.6278 11.7335 16.9586 13.375 16.9586Z" fill="#172A42"/>
</svg>
