<svg width="285" height="205" viewBox="0 0 285 205" fill="none" xmlns="http://www.w3.org/2000/svg">
<circle cx="99.127" cy="48.9373" r="41.2283" fill="#DBE8EC"/>
<line x1="73.7031" y1="33.9917" x2="86.8775" y2="33.9917" stroke="#B9D4DB" stroke-width="3" stroke-linecap="round"/>
<line x1="73.7031" y1="38.6533" x2="86.8775" y2="38.6533" stroke="#B9D4DB" stroke-width="3" stroke-linecap="round"/>
<line x1="73.7031" y1="43.3154" x2="86.8775" y2="43.3154" stroke="#B9D4DB" stroke-width="3" stroke-linecap="round"/>
<path opacity="0.501538" d="M284.308 109.008V99.8993C284.308 96.2823 281.376 93.3502 277.759 93.3502L254.643 93.3502C251.027 93.3502 248.094 90.4181 248.094 86.8012V77.6927C248.094 74.0757 251.027 71.1436 254.643 71.1436L255.373 71.1436C258.99 71.1436 261.922 68.2115 261.922 64.5946V55.4861C261.922 51.8691 258.99 48.937 255.373 48.937H44.1194C40.5025 48.937 37.5704 51.8691 37.5704 55.4861V64.5946C37.5704 68.2115 40.5025 71.1436 44.1194 71.1436C47.7363 71.1436 50.6684 74.0757 50.6684 77.6927V86.8012C50.6684 90.4181 47.7363 93.3502 44.1194 93.3502H18.7937C15.1768 93.3502 12.2447 96.2823 12.2447 99.8993V109.008C12.2447 112.625 15.1768 115.557 18.7937 115.557H28.7311C32.348 115.557 35.2801 118.489 35.2801 122.106V131.214C35.2801 134.831 32.348 137.763 28.7311 137.763H28.7071C25.0902 137.763 22.1581 140.696 22.1581 144.312V153.421C22.1581 157.038 25.0902 159.97 28.7071 159.97H30.1449C33.7618 159.97 36.6939 162.902 36.6939 166.519V175.628C36.6939 179.245 33.7618 182.177 30.1449 182.177H6.54903C2.93212 182.177 2.67029e-05 185.109 0 188.726V197.834C0 201.451 2.93212 204.383 6.54906 204.383H258.889C262.506 204.383 265.438 201.451 265.438 197.834V188.726C265.438 185.109 262.506 182.177 258.889 182.177H253.211C249.594 182.177 246.662 179.245 246.662 175.628V166.519C246.662 162.902 249.594 159.97 253.211 159.97H266.6C270.217 159.97 273.149 157.038 273.149 153.421V144.312C273.149 140.696 270.217 137.763 266.6 137.763H262.538C258.921 137.763 255.989 134.831 255.989 131.214V122.106C255.989 118.489 258.921 115.557 262.538 115.557H277.759C281.376 115.557 284.308 112.625 284.308 109.008Z" fill="#7A89ED"/>
<path d="M83.8134 8.99999C83.8134 4.02943 87.8428 0 92.8134 0H209.541C214.512 0 218.541 4.02944 218.541 9V188.561C218.541 193.531 214.512 197.561 209.541 197.561H92.8133C87.8428 197.561 83.8134 193.531 83.8134 188.561V8.99999Z" fill="#3086A3"/>
<path d="M91.9506 18.6665C91.9506 13.6959 95.98 9.6665 100.951 9.6665H201.404C206.375 9.6665 210.404 13.6959 210.404 18.6665V178.894C210.404 183.865 206.375 187.894 201.404 187.894H100.951C95.98 187.894 91.9506 183.865 91.9506 178.894V18.6665Z" fill="#DBE8EC"/>
<circle cx="151.177" cy="58.2391" r="22.2029" fill="#F9AE2B"/>
<path d="M147.447 56.3024V51.6856C147.447 50.7508 147.82 49.8546 148.484 49.1964C149.149 48.5381 150.049 48.1729 150.984 48.1816H151.369C152.304 48.1725 153.204 48.5377 153.868 49.1958C154.533 49.8539 154.906 50.7504 154.906 51.6856L154.906 53.2409C154.908 53.4578 155.083 53.6336 155.299 53.6364L157.162 53.6449C157.267 53.6453 157.368 53.6038 157.443 53.5296C157.518 53.4554 157.56 53.3545 157.56 53.2493V51.943C157.56 50.3244 156.917 48.7722 155.772 47.6283C154.627 46.4845 153.074 45.843 151.455 45.8452L150.897 45.8452C147.528 45.8423 144.794 48.5733 144.795 51.943V56.4258L147.447 56.3024Z" fill="#409CB5"/>
<path d="M158.441 69.5778C159.412 69.5754 160.198 68.789 160.201 67.8184V57.8121C160.198 56.8414 159.412 56.0551 158.441 56.0527H143.914C142.943 56.0551 142.157 56.8414 142.154 57.8121V67.8184C142.157 68.789 142.943 69.5754 143.914 69.5778L158.441 69.5778Z" fill="#3086A3"/>
<path d="M151.177 59.4854C150.138 59.4889 149.296 60.331 149.292 61.3708C149.31 61.9455 149.593 62.4797 150.059 62.8169V65.0293C150.059 65.6471 150.56 66.1479 151.177 66.1479C151.795 66.1479 152.296 65.6471 152.296 65.0293V62.8169C152.761 62.479 153.044 61.9453 153.062 61.3708C153.059 60.3311 152.217 59.4889 151.177 59.4854Z" fill="#409CB5"/>
<path d="M91.9506 163.039V184.119C91.9506 186.204 93.6411 187.895 95.7266 187.895H206.628C208.713 187.895 210.404 186.204 210.404 184.119V163.039H91.9506Z" fill="#8293EC"/>
<path d="M210.404 13.4425C210.404 11.3571 208.713 9.6665 206.628 9.6665L95.7266 9.66651C93.6411 9.6665 91.9505 11.3571 91.9506 13.4425V20.9945H210.404V13.4425Z" fill="#8293EC"/>
<circle cx="151.177" cy="9.66694" r="6.3437" fill="#F9AE2B"/>
<circle cx="151.177" cy="175.467" r="6.3437" fill="#F9AE2B"/>
<path d="M104.657 91.2075C104.657 89.5507 106 88.2075 107.657 88.2075H138.209C139.865 88.2075 141.209 89.5507 141.209 91.2075V97.966C141.209 99.6229 139.865 100.966 138.209 100.966H107.657C106 100.966 104.657 99.6229 104.657 97.966V91.2075Z" fill="#F9AE2B"/>
<path d="M153.594 91.2075C153.594 89.5507 154.937 88.2075 156.594 88.2075H195C196.657 88.2075 198 89.5507 198 91.2075V143.841C198 145.498 196.657 146.841 195 146.841H156.594C154.937 146.841 153.594 145.498 153.594 143.841V91.2075Z" fill="#EE781D"/>
<path d="M104.657 114.145C104.657 112.488 106 111.145 107.657 111.145H138.209C139.865 111.145 141.209 112.488 141.209 114.145V120.904C141.209 122.56 139.865 123.904 138.209 123.904H107.657C106 123.904 104.657 122.56 104.657 120.904V114.145Z" fill="#F9AE2B"/>
<path d="M104.657 137.083C104.657 135.426 106 134.083 107.657 134.083H138.209C139.865 134.083 141.209 135.426 141.209 137.083V143.841C141.209 145.498 139.865 146.841 138.209 146.841H107.657C106 146.841 104.657 145.498 104.657 143.841V137.083Z" fill="#F9AE2B"/>
<path d="M175.797 130.013H163.001C162.499 130.013 162.034 129.745 161.783 129.309C161.531 128.874 161.531 128.337 161.783 127.902L168.18 116.821L174.578 105.739C174.83 105.304 175.294 105.036 175.797 105.036C176.3 105.036 176.764 105.304 177.016 105.739L183.413 116.821L189.811 127.902C190.063 128.337 190.063 128.874 189.811 129.309C189.56 129.745 189.095 130.013 188.593 130.013H175.797Z" fill="#F9AE2B"/>
<path d="M175.093 111.597C175.093 111.208 175.408 110.893 175.797 110.893C176.186 110.893 176.501 111.208 176.501 111.597V122.091C176.501 122.48 176.186 122.795 175.797 122.795C175.408 122.795 175.093 122.48 175.093 122.091V111.597Z" fill="#409CB5"/>
<circle cx="178.833" cy="125.935" r="1.68414" transform="rotate(-84.3449 178.833 125.935)" fill="#409CB5"/>
<path d="M66.5729 163.675V151.891C66.5729 149.505 67.5267 147.218 69.2222 145.538C70.9184 143.857 73.215 142.925 75.6016 142.947H76.5842C78.9711 142.924 81.2682 143.856 82.964 145.536C84.6599 147.216 85.6136 149.504 85.6129 151.891V155.861C85.6172 156.415 86.0634 156.863 86.6171 156.871L91.3717 156.892C91.6403 156.893 91.8983 156.787 92.0887 156.598C92.2791 156.409 92.3863 156.151 92.3867 155.883V152.548C92.3878 148.417 90.7459 144.455 87.8231 141.535C84.9002 138.616 80.9362 136.978 76.805 136.984H75.3808C66.7798 136.976 59.8035 143.947 59.8044 152.548L59.8045 163.99L66.5729 163.675Z" fill="#EE781D"/>
<path d="M94.6362 197.561C97.1139 197.555 99.1209 195.548 99.127 193.07V167.53C99.1209 165.052 97.1139 163.045 94.6362 163.039H57.5551C55.0774 163.045 53.0704 165.052 53.0643 167.53V193.07C53.0704 195.548 55.0774 197.555 57.5551 197.561H94.6362Z" fill="#F9AE2B"/>
<path d="M76.0956 171.8C73.4417 171.809 71.2928 173.958 71.2844 176.612C71.3291 178.079 72.0515 179.443 73.2404 180.303L73.2404 185.951C73.2404 187.527 74.5188 188.806 76.0956 188.806C77.6725 188.806 78.9508 187.527 78.9508 185.951L78.9508 180.303C80.1377 179.441 80.8596 178.079 80.9067 176.612C80.8984 173.958 78.7495 171.809 76.0956 171.8Z" fill="#EE781D"/>
<line x1="11.9924" y1="187.313" x2="25.1668" y2="187.313" stroke="#B9D4DB" stroke-width="3" stroke-linecap="round"/>
<line x1="11.9924" y1="191.975" x2="25.1668" y2="191.975" stroke="#B9D4DB" stroke-width="3" stroke-linecap="round"/>
<line x1="11.9924" y1="196.637" x2="25.1668" y2="196.637" stroke="#B9D4DB" stroke-width="3" stroke-linecap="round"/>
<line x1="227.69" y1="114.729" x2="240.865" y2="114.729" stroke="#B9D4DB" stroke-width="3" stroke-linecap="round"/>
<line x1="227.69" y1="119.392" x2="240.865" y2="119.392" stroke="#B9D4DB" stroke-width="3" stroke-linecap="round"/>
<line x1="227.69" y1="124.053" x2="240.865" y2="124.053" stroke="#B9D4DB" stroke-width="3" stroke-linecap="round"/>
<circle cx="47.7093" cy="126.185" r="8.22569" fill="#B9D4DB"/>
<circle cx="48.0432" cy="109.414" r="4.28462" fill="#B9D4DB"/>
<circle cx="76.5811" cy="111.917" r="3.70834" fill="#B9D4DB"/>
<circle cx="63.09" cy="108.313" r="2.47148" fill="#B9D4DB"/>
<circle cx="65.9622" cy="121.804" r="5.92472" fill="#B9D4DB"/>
<circle cx="245.763" cy="187.249" r="8.22569" fill="#B9D4DB"/>
<circle cx="228.352" cy="191.303" r="4.28462" fill="#B9D4DB"/>
<circle cx="228.352" cy="173.958" r="5.92472" fill="#B9D4DB"/>
<circle cx="246.434" cy="41.3683" r="8.22569" fill="#B9D4DB"/>
<circle cx="230.117" cy="49.5941" r="3.70834" fill="#B9D4DB"/>
<circle cx="225.571" cy="35.4438" r="5.92472" fill="#B9D4DB"/>
</svg>
