<svg width="32" height="32" viewBox="0 0 32 32" fill="none" xmlns="http://www.w3.org/2000/svg">
<path d="M16 0C7.1808 0 0 7.1744 0 16C0 24.8256 7.1744 32 16 32C24.8192 32 32 24.8256 32 16C32 7.1744 24.8192 0 16 0ZM16 30.72C7.8848 30.72 1.28 24.1152 1.28 16C1.28 7.8848 7.8848 1.28 16 1.28C24.1152 1.28 30.72 7.8848 30.72 16C30.72 24.1152 24.1152 30.72 16 30.72Z" fill="#A2A2A2"/>
<path d="M24.1407 13.1006C22.5471 13.1006 21.2479 14.3998 21.2479 15.9934C21.2479 17.5934 22.5471 18.8926 24.1407 18.8926C25.7407 18.8926 27.0399 17.5934 27.0399 15.9934C27.0399 14.3998 25.7407 13.1006 24.1407 13.1006ZM24.1407 17.619C23.2511 17.619 22.5279 16.8958 22.5279 15.9998C22.5279 15.1102 23.2511 14.387 24.1407 14.387C25.0367 14.387 25.7599 15.1102 25.7599 15.9998C25.7599 16.8894 25.0367 17.619 24.1407 17.619ZM7.85911 13.1006C6.26551 13.1006 4.96631 14.3998 4.96631 15.9934C4.96631 17.5934 6.26551 18.8926 7.85911 18.8926C9.45911 18.8926 10.7583 17.5934 10.7583 15.9934C10.7583 14.3998 9.45271 13.1006 7.85911 13.1006ZM7.85911 17.619C6.96951 17.619 6.24631 16.8958 6.24631 15.9998C6.24631 15.1102 6.96951 14.387 7.85911 14.387C8.75511 14.387 9.47831 15.1102 9.47831 15.9998C9.47831 16.8894 8.74871 17.619 7.85911 17.619ZM15.9999 13.1006C14.4063 13.1006 13.1071 14.3998 13.1071 15.9934C13.1071 17.5934 14.4063 18.8926 15.9999 18.8926C17.5999 18.8926 18.8991 17.5934 18.8991 15.9934C18.8991 14.3998 17.5999 13.1006 15.9999 13.1006ZM15.9999 17.619C15.1103 17.619 14.3871 16.8958 14.3871 15.9998C14.3871 15.1102 15.1103 14.387 15.9999 14.387C16.8959 14.387 17.6191 15.1102 17.6191 15.9998C17.6191 16.8894 16.8895 17.619 15.9999 17.619Z" fill="#A2A2A2"/>
</svg>
