<svg width="21" height="19" viewBox="0 0 21 19" fill="none" xmlns="http://www.w3.org/2000/svg">
<path d="M2.41576 15.275L3.10017 14.4869C3.23638 14.335 3.30757 14.1358 3.29845 13.932L3.29845 13.8025C3.29845 13.5151 3.14827 13.3586 2.85495 13.3586H0.625744C0.452949 13.3586 0.312872 13.4987 0.312872 13.6715V14.2972C0.312872 14.47 0.452949 14.6101 0.625743 14.6101H1.5186C1.36688 14.7629 1.22328 14.9236 1.0884 15.0915L0.869001 15.3653C0.712565 15.5636 0.663679 15.7615 0.759496 15.9472L0.800561 16.0227C0.917888 16.248 1.04656 16.3309 1.27965 16.3309H1.46463C1.86863 16.3309 2.08803 16.4263 2.08803 16.6864C2.08803 16.871 1.92377 17.0079 1.52642 17.0079C1.31881 17.0062 1.11343 16.9648 0.921408 16.8859C0.66759 16.7341 0.462268 16.749 0.311308 17.0079L0.0926884 17.372C-0.052797 17.6117 -0.0320692 17.8303 0.195545 17.9954C0.497075 18.1788 0.992586 18.3646 1.64258 18.3646C2.97854 18.3646 3.53936 17.4748 3.53936 16.6391C3.53819 16.0767 3.18269 15.4752 2.41576 15.275ZM19.398 8.35267H6.88318C6.53759 8.35267 6.25744 8.63283 6.25744 8.97842V10.2299C6.25744 10.5755 6.53759 10.8556 6.88318 10.8556H19.398C19.7436 10.8556 20.0238 10.5755 20.0238 10.2299V8.97842C20.0238 8.63283 19.7436 8.35267 19.398 8.35267ZM19.398 2.09524H6.88318C6.53759 2.09524 6.25744 2.37539 6.25744 2.72098V3.97247C6.25744 4.31806 6.53759 4.59821 6.88318 4.59821H19.398C19.7436 4.59821 20.0238 4.31806 20.0238 3.97247V2.72098C20.0238 2.37539 19.7436 2.09524 19.398 2.09524ZM19.398 14.6101H6.88318C6.53759 14.6101 6.25744 14.8903 6.25744 15.2359V16.4873C6.25744 16.8329 6.53759 17.1131 6.88318 17.1131H19.398C19.7436 17.1131 20.0238 16.8329 20.0238 16.4873V15.2359C20.0238 14.8903 19.7436 14.6101 19.398 14.6101ZM0.625744 5.8497H3.12872C3.30151 5.8497 3.44159 5.70962 3.44159 5.53683V4.91108C3.44159 4.73829 3.30151 4.59821 3.12872 4.59821H2.50297V1.15662C2.50297 0.983828 2.3629 0.84375 2.1901 0.84375H1.25149C1.13322 0.843961 1.02517 0.910844 0.972249 1.01661L0.659377 1.64236C0.610889 1.73925 0.615988 1.85434 0.672856 1.94657C0.729723 2.0388 0.830262 2.09504 0.938615 2.09524H1.25149V4.59821H0.625744C0.452949 4.59821 0.312872 4.73829 0.312872 4.91108V5.53683C0.312872 5.70962 0.452949 5.8497 0.625744 5.8497ZM0.472827 12.1071H3.12872C3.30151 12.1071 3.44159 11.9671 3.44159 11.7943V11.1685C3.44159 10.9957 3.30151 10.8556 3.12872 10.8556H1.61598C1.74465 10.4532 3.50651 10.1251 3.50651 8.64833C3.50651 7.51183 2.52879 7.10118 1.76733 7.10118C0.931967 7.10118 0.445451 7.49228 0.184985 7.83448C0.0140791 8.0531 0.0676584 8.25842 0.29449 8.43558L0.630045 8.70465C0.849447 8.88299 1.06024 8.80125 1.26048 8.60923C1.35925 8.51245 1.49218 8.45849 1.63045 8.45905C1.76069 8.45905 1.99338 8.52006 1.99338 8.80125C1.99456 9.29872 0 9.65539 0 11.5045V11.6609C0 11.9507 0.198674 12.1071 0.472827 12.1071Z" fill="#172A42"/>
</svg>
