<svg width="26" height="32" viewBox="0 0 26 32" fill="none" xmlns="http://www.w3.org/2000/svg">
<path d="M1.28679 29.2633L1.37142 29.3943C2.01157 30.3051 3.41268 30.2618 4.40651 30.264L17.6586 30.2632C19.5874 30.2619 20.659 29.888 20.9799 27.7898L21.0625 27.0918C21.121 26.7134 21.1026 26.3135 21.1038 25.9308L21.1032 24.2297C21.1021 24.0073 21.0513 23.7051 21.1012 23.4932C21.2052 23.0526 21.8066 22.9991 22.0102 23.4055L22.0222 23.4304C22.0962 23.5769 22.065 23.7459 22.065 23.9046L22.0623 26.1747C22.0617 26.465 22.0725 26.7611 22.0511 27.0505L21.9532 27.8378C21.749 29.2834 21.1341 30.5173 19.654 31.0018C18.9237 31.2409 18.2521 31.2163 17.4953 31.2166L3.80622 31.218C1.75579 31.209 0.0986348 30.4803 0.00873005 28.2017L0.00410664 4.63524C0.00417531 4.28559 -0.0154322 3.92458 0.0304433 3.5775C0.298044 1.55202 1.92094 0.0873992 3.93956 0.0139434L17.0874 0.0131423C17.7141 0.0132186 18.332 -0.0475572 18.9469 0.0916411C20.5955 0.464795 21.9516 1.9859 22.0566 3.68873C22.0884 4.20294 22.0644 4.73227 22.0643 5.24766L22.0622 13.2506C22.0372 13.8091 21.2017 13.8474 21.1166 13.2995C21.0798 13.0625 21.1057 12.7883 21.1057 12.5469L21.1062 4.43258C21.1058 3.12304 20.7834 2.05904 19.5455 1.3505C18.6605 0.843938 17.9525 0.972211 16.9754 0.972012L4.91326 0.972409C4.4205 0.972829 3.83916 0.919491 3.3606 1.05236C1.99197 1.43229 1.01068 2.52314 0.972262 3.95858L0.967379 27.5074C0.968828 28.1456 0.990214 28.6776 1.28679 29.2633Z" fill="#A2A2A2"/>
<path d="M11.2862 11.7081C7.34624 11.9237 5.26926 7.32602 7.74242 4.43509C8.51037 3.53744 9.62124 2.97279 10.7978 2.88296C11.3152 2.81827 11.8672 2.9293 12.3588 3.09491C15.3028 4.08676 16.5033 7.83825 14.3409 10.245C13.5641 11.1096 12.4462 11.6456 11.2862 11.7081ZM10.9802 3.85249C7.82032 4.07382 6.47399 7.90993 8.81428 9.92129C9.50116 10.5117 10.2835 10.7642 11.1813 10.7529C14.325 10.5171 15.6521 6.70078 13.2071 4.66784C12.6235 4.18261 11.7506 3.81144 10.9802 3.85249Z" fill="#A2A2A2"/>
<path d="M11.1638 8.76037C10.9291 8.81127 10.6949 8.78024 10.5769 8.53918C10.4141 8.20643 10.668 7.95408 10.8753 7.73472C11.0684 7.5303 11.0099 7.52574 10.9631 7.23246L10.5866 5.52752C10.4806 5.08981 10.3063 4.64135 10.8012 4.40451C11.0537 4.39315 11.23 4.43435 11.3467 4.68848C11.5613 5.15582 11.9868 6.97846 12.0117 7.46072C12.0397 8.00127 11.6552 8.55469 11.1638 8.76037ZM12.5445 29.062L12.4773 29.0736C11.8768 29.1698 11.368 29.0472 11.2742 28.3681C10.9705 26.1707 13.4986 23.6891 14.8743 22.1747L18.7065 18.1453C19.9598 16.8894 21.2479 15.65 22.642 14.5502C23.2608 14.0621 23.9172 13.4246 24.7323 13.3195C25.3122 13.2636 25.8566 13.6605 25.9796 14.2278C26.1941 15.2178 24.663 16.8489 24.0907 17.5686L23.068 18.8471L17.2541 25.4783C16.0123 26.8759 14.458 28.6557 12.5445 29.062ZM24.7907 14.3078C23.8679 14.53 21.0921 17.2052 20.3879 17.882L16.926 21.3888L13.768 24.8941C13.0587 25.7628 12.2152 26.9711 12.2147 28.1239L12.4516 28.0963C14.6643 27.4812 17.0975 24.1255 18.5592 22.4731L24.0575 16.0466C24.1781 15.8903 25.3751 14.4499 24.9263 14.3262L24.7907 14.3078ZM17.3066 14.4753L4.26164 14.4667C3.90525 14.4665 3.28669 14.4198 3.49185 13.8569C3.55786 13.6758 3.67376 13.579 3.84565 13.5032C5.10134 13.506 17.3041 13.4737 17.4438 13.5326C17.9121 13.7301 17.7246 14.3488 17.3066 14.4753ZM16.309 17.8499L3.92803 17.8612C3.30412 17.8433 3.27316 17.0136 3.94599 16.9078L16.3658 16.9038C16.4317 16.9063 16.4979 16.9122 16.5535 16.9508L16.572 16.9644C17.0104 17.2765 16.7593 17.776 16.309 17.8499ZM12.1216 21.2789L4.74925 21.2784C4.45339 21.2782 4.13748 21.3009 3.84466 21.2681C3.40161 21.2186 3.0678 20.3228 4.24554 20.3194L4.781 20.319L12.1238 20.3191C12.4369 20.3191 12.7642 20.3003 13.076 20.3242C13.5414 20.3598 13.815 21.2864 12.7951 21.2834L12.1216 21.2789ZM11.0816 24.6772L4.92324 24.6953C4.56251 24.6963 4.18759 24.7175 3.82842 24.6956C3.32234 24.6648 3.27693 23.8523 3.9009 23.7361L10.984 23.7369C11.6292 23.7634 11.7084 24.5203 11.0816 24.6772ZM9.93591 28.0941L4.67637 28.1021C4.42271 28.1019 4.15385 28.1219 3.90255 28.0961C3.25323 28.029 3.34788 27.2285 3.93345 27.1406L9.26155 27.1421C9.48063 27.1422 9.71253 27.127 9.9299 27.1496C10.5135 27.2104 10.6128 27.975 9.93591 28.0941Z" fill="#A2A2A2"/>
</svg>
