<svg width="222" height="222" viewBox="0 0 222 222" fill="none" xmlns="http://www.w3.org/2000/svg">
<mask id="mask0_2_7006" style="mask-type:alpha" maskUnits="userSpaceOnUse" x="0" y="0" width="222" height="222">
<rect width="222" height="222" fill="white"/>
</mask>
<g mask="url(#mask0_2_7006)">
<path d="M132.693 27.1377H141.034V32.6987H132.693V27.1377Z" fill="#F1F1F1"/>
<path d="M95.4336 -4.56055H143.814V29.918H95.4336V-4.56055Z" fill="#F15846"/>
<path d="M20.3591 83.8606C20.3591 82.3247 21.604 81.0796 23.1397 81.0796H87.0915C88.6273 81.0796 89.8724 82.3247 89.8724 83.8606V195.638C89.8724 197.173 88.6273 198.418 87.0915 198.418H23.1397C21.604 198.418 20.3591 197.173 20.3591 195.638V83.8606Z" fill="#F1F1F1"/>
<path fill-rule="evenodd" clip-rule="evenodd" d="M-0.216797 217.604C-0.216797 217.297 0.0321796 217.048 0.339309 217.048H221.391C221.698 217.048 221.947 217.297 221.947 217.604C221.947 217.911 221.698 218.16 221.391 218.16H0.339309C0.0321796 218.16 -0.216797 217.911 -0.216797 217.604Z" fill="#3E3D3D"/>
<path d="M62.623 59.3917C62.623 53.2491 67.6025 48.2695 73.7451 48.2695H137.141C143.284 48.2695 148.263 53.2491 148.263 59.3917V170.612C148.263 176.755 143.284 181.735 137.141 181.735H73.7451C67.6025 181.735 62.623 176.755 62.623 170.612V59.3917Z" fill="#F1F1F1"/>
<path fill-rule="evenodd" clip-rule="evenodd" d="M62.0669 59.3916C62.0669 52.9419 67.2955 47.7134 73.7451 47.7134H137.141C143.591 47.7134 148.819 52.9419 148.819 59.3916V170.612C148.819 177.062 143.591 182.291 137.141 182.291H73.7451C67.2955 182.291 62.0669 177.062 62.0669 170.612V59.3916ZM73.7451 48.8256C67.9097 48.8256 63.1791 53.5562 63.1791 59.3916V170.612C63.1791 176.448 67.9097 181.178 73.7451 181.178H137.141C142.977 181.178 147.707 176.448 147.707 170.612V59.3916C147.707 53.5562 142.977 48.8256 137.141 48.8256H73.7451Z" fill="#3E3D3D"/>
<path fill-rule="evenodd" clip-rule="evenodd" d="M67.072 50.4932C68.9309 49.097 71.2415 48.2695 73.7452 48.2695H137.141C139.645 48.2695 141.955 49.097 143.815 50.4932V179.511C141.955 180.908 139.645 181.735 137.141 181.735H73.7452C71.2415 181.735 68.9309 180.908 67.072 179.511V50.4932Z" fill="white"/>
<path d="M188.303 122.51C188.303 128.806 183.199 133.91 176.902 133.91C170.607 133.91 165.502 128.806 165.502 122.51C165.502 116.214 170.607 111.11 176.902 111.11C183.199 111.11 188.303 116.214 188.303 122.51Z" fill="#F1F1F1"/>
<path opacity="0.5" d="M73.7451 74.9628C73.7451 73.427 74.99 72.1821 76.5259 72.1821H134.361C135.896 72.1821 137.141 73.427 137.141 74.9628V112.222C137.141 113.758 135.896 115.002 134.361 115.002H76.5259C74.99 115.002 73.7451 113.758 73.7451 112.222V74.9628Z" fill="#F1F1F1"/>
<path d="M73.7456 126.125H89.8726V136.134H73.7456V126.125Z" fill="#F15846"/>
<path d="M96.5457 126.125H112.672V136.134H96.5457V126.125Z" fill="#F15846"/>
<path d="M119.346 126.125H137.141V136.134H119.346V126.125Z" fill="#F15846"/>
<path d="M73.7451 142.251H89.8723V152.261H73.7451V142.251Z" fill="#F15846"/>
<path d="M96.5457 142.251H112.672V152.261H96.5457V142.251Z" fill="#F15846"/>
<path d="M119.346 142.251H137.141V152.261H119.346V142.251Z" fill="#F15846"/>
<path d="M73.7451 158.935H89.8723V168.945H73.7451V158.935Z" fill="#F1F1F1"/>
<path d="M96.5457 158.935H112.672V168.945H96.5457V158.935Z" fill="#F15846"/>
<path d="M119.346 158.935H137.141V168.945H119.346V158.935Z" fill="#F1F1F1"/>
<path fill-rule="evenodd" clip-rule="evenodd" d="M62.0669 59.3916C62.0669 52.9419 67.2955 47.7134 73.7451 47.7134H137.141C143.591 47.7134 148.819 52.9419 148.819 59.3916V170.612C148.819 177.062 143.591 182.291 137.141 182.291H73.7451C67.2955 182.291 62.0669 177.062 62.0669 170.612V59.3916ZM73.7451 48.8256C67.9097 48.8256 63.1791 53.5562 63.1791 59.3916V170.612C63.1791 176.448 67.9097 181.178 73.7451 181.178H137.141C142.977 181.178 147.707 176.448 147.707 170.612V59.3916C147.707 53.5562 142.977 48.8256 137.141 48.8256H73.7451Z" fill="#3E3D3D"/>
<path d="M78.1943 23.8008H132.693V62.1721H78.1943V23.8008Z" fill="#F1F1F1"/>
<path fill-rule="evenodd" clip-rule="evenodd" d="M132.693 23.8013H78.1943V20.7427L78.2062 20.729C78.1981 20.642 78.1943 20.5538 78.1943 20.4646C78.1943 18.929 79.4387 17.6841 80.9746 17.6841H135.473L132.693 20.7427V23.8013Z" fill="#F1F1F1"/>
<path d="M143.815 29.9183C143.815 31.4539 142.569 32.6987 141.034 32.6987C139.498 32.6987 138.253 31.4539 138.253 29.9183C138.253 28.3826 139.498 27.1377 141.034 27.1377C142.569 27.1377 143.815 28.3826 143.815 29.9183Z" fill="#F15846"/>
<path d="M138.253 20.4646C138.253 22.0002 137.009 23.2451 135.473 23.2451C133.937 23.2451 132.693 22.0002 132.693 20.4646C132.693 18.929 133.937 17.6841 135.473 17.6841C137.009 17.6841 138.253 18.929 138.253 20.4646Z" fill="#F1F1F1"/>
<path d="M132.693 20.4644H138.253V32.6987H132.693V20.4644Z" fill="#F1F1F1"/>
<path d="M34.8179 81.0796H50.3888V198.418H34.8179V81.0796Z" fill="#F1F1F1"/>
<path fill-rule="evenodd" clip-rule="evenodd" d="M105.721 80.2458C98.3501 80.2458 92.3745 86.2214 92.3745 93.5923C92.3745 100.963 98.3501 106.939 105.721 106.939C113.093 106.939 119.068 100.963 119.068 93.5923C119.068 86.2214 113.093 80.2458 105.721 80.2458ZM89.5942 93.5923C89.5942 84.6855 96.8149 77.4648 105.721 77.4648C114.628 77.4648 121.848 84.6855 121.848 93.5923C121.848 102.499 114.628 109.719 105.721 109.719C96.8149 109.719 89.5942 102.499 89.5942 93.5923Z" fill="#F1F1F1"/>
<path fill-rule="evenodd" clip-rule="evenodd" d="M125.01 85.4482L103.491 103.225L94.2598 89.8916L98.8319 86.7266L104.617 95.0814L121.468 81.1602L125.01 85.4482Z" fill="#204F38"/>
<path d="M52.8914 57.4451C52.8914 63.7413 47.6628 68.8453 41.2131 68.8453C34.7635 68.8453 29.5349 63.7413 29.5349 57.4451C29.5349 51.149 34.7635 46.0449 41.2131 46.0449C47.6628 46.0449 52.8914 51.149 52.8914 57.4451Z" fill="#F1F1F1"/>
<path fill-rule="evenodd" clip-rule="evenodd" d="M49.4724 55.0001L36.6046 63.2722L32.2456 56.2307L34.6098 54.7671L37.4801 59.4039L47.9688 52.6611L49.4724 55.0001Z" fill="#F1F1F1"/>
<path d="M179.961 89.6993C179.961 99.681 171.869 107.773 161.888 107.773C151.906 107.773 143.814 99.681 143.814 89.6993C143.814 79.7176 151.906 71.626 161.888 71.626C171.869 71.626 179.961 79.7176 179.961 89.6993Z" fill="#F15846"/>
<path fill-rule="evenodd" clip-rule="evenodd" d="M148.263 148.646L129.634 133.632C128.793 132.985 127.795 131.781 126.866 130.174C124.078 125.354 121.905 116.907 126.418 108.996C126.763 108.392 127.313 108.014 127.926 107.867C128.333 107.77 128.767 107.774 129.185 107.882C129.536 107.972 129.875 108.135 130.181 108.371C141.629 117.22 161.055 132.382 161.888 133.632C162.09 133.935 162.417 134.267 162.826 134.683C164.67 136.556 168.182 140.124 169.396 150.315C169.589 151.945 169.822 153.624 170.058 155.337C171.517 165.893 173.152 177.727 167.171 187.296C166.986 189.798 169.396 199.308 180.517 217.326H107.667C107.112 216.028 105.555 213.211 103.775 212.321C103.482 212.175 103.034 211.984 102.467 211.744C98.7341 210.159 89.8422 206.385 85.9795 198.418H87.0914C88.6273 198.418 89.8724 197.173 89.8724 195.638V193.97V181.735H137.698C143.533 181.735 148.263 177.005 148.263 171.169V148.646Z" fill="#EFCB96"/>
<path d="M78.1943 58.2798H132.693V62.1725H78.1943V58.2798Z" fill="#F1F1F1"/>
<path fill-rule="evenodd" clip-rule="evenodd" d="M124.073 30.4745H86.2578V29.3623H124.073V30.4745ZM124.073 40.2064H86.2578V39.0942H124.073V40.2064ZM124.073 49.1041H86.2578V47.9918H124.073V49.1041Z" fill="#3E3D3D"/>
<path fill-rule="evenodd" clip-rule="evenodd" d="M162.166 77.1875C163.088 77.1875 163.834 77.934 163.834 78.8558V79.6298C166.922 79.7214 169.396 82.2531 169.396 85.3619H166.059C166.059 84.0375 164.985 82.9641 163.66 82.9641H160.943C159.469 82.9641 158.274 84.1589 158.274 85.6334C158.274 87.1071 159.469 88.3026 160.943 88.3026H163.66C166.827 88.3026 169.396 90.8699 169.396 94.037C169.396 97.1466 166.922 99.6774 163.834 99.7692V100.544C163.834 101.465 163.088 102.212 162.166 102.212C161.245 102.212 160.498 101.465 160.498 100.544V99.7722H160.129C157.262 99.7722 154.936 97.4469 154.936 94.5793H158.274C158.274 95.6047 159.105 96.4355 160.129 96.4355H163.66C164.985 96.4355 166.059 95.3621 166.059 94.037C166.059 92.7128 164.985 91.6393 163.66 91.6393H160.943C157.626 91.6393 154.936 88.9501 154.936 85.6334C154.936 82.4655 157.389 79.8708 160.498 79.6431V78.8558C160.498 77.934 161.245 77.1875 162.166 77.1875Z" fill="white"/>
<path fill-rule="evenodd" clip-rule="evenodd" d="M177.181 115.002C177.796 115.002 178.293 115.5 178.293 116.115V116.445C180.151 116.536 181.63 118.071 181.63 119.951H179.406C179.406 119.241 178.83 118.666 178.12 118.666H176.403C175.604 118.666 174.957 119.313 174.957 120.111C174.957 120.91 175.604 121.558 176.403 121.558H178.12C180.058 121.558 181.63 123.129 181.63 125.068C181.63 126.948 180.151 128.483 178.293 128.574V128.905C178.293 129.519 177.796 130.017 177.181 130.017C176.567 130.017 176.069 129.519 176.069 128.905V128.578H175.923C174.161 128.578 172.732 127.15 172.732 125.388H174.957C174.957 125.921 175.389 126.354 175.923 126.354H178.12C178.83 126.354 179.406 125.778 179.406 125.068C179.406 124.358 178.83 123.781 178.12 123.781H176.403C174.375 123.781 172.732 122.138 172.732 120.111C172.732 118.197 174.198 116.625 176.069 116.456V116.115C176.069 115.5 176.567 115.002 177.181 115.002Z" fill="white"/>
</g>
</svg>
