<svg width="216" height="210" viewBox="0 0 216 210" fill="none" xmlns="http://www.w3.org/2000/svg">
<path fill-rule="evenodd" clip-rule="evenodd" d="M30.9915 76.9838C30.9915 70.7329 36.059 65.6655 42.3102 65.6655H103.754C110.005 65.6655 115.073 70.7329 115.073 76.9838V184.781C115.073 191.032 110.005 196.1 103.754 196.1H42.3102C36.059 196.1 30.9915 191.032 30.9915 184.781V76.9838ZM42.3102 66.7434C36.6544 66.7434 32.0694 71.3286 32.0694 76.9838V184.781C32.0694 190.437 36.6544 195.021 42.3102 195.021H103.754C109.41 195.021 113.995 190.437 113.995 184.781V76.9838C113.995 71.3286 109.41 66.7434 103.754 66.7434H42.3102Z" fill="#F1F1F1"/>
<path fill-rule="evenodd" clip-rule="evenodd" d="M144.178 137.928L136.872 132.292C136.394 131.922 135.75 131.851 135.202 132.106L121.315 138.571C120.788 138.816 120.17 138.76 119.697 138.423L112.937 133.625C112.431 133.267 111.763 133.229 111.22 133.528L100.066 139.674C99.3901 140.047 98.5455 139.89 98.0486 139.299L91.1841 131.147C90.6655 130.532 89.7725 130.391 89.09 130.818L82.2705 135.08C81.8795 135.324 81.4037 135.39 80.9611 135.261L70.8765 132.32V189.632C70.8765 191.12 72.083 192.326 73.5714 192.326H141.483C142.972 192.326 144.178 191.12 144.178 189.632V137.928Z" fill="#F1F1F1"/>
<path d="M85.4287 31.7095H93.5137V37.0994H85.4287V31.7095Z" fill="#F1F1F1"/>
<path d="M49.3171 0.987305H96.2086V34.4043H49.3171V0.987305Z" fill="#F15846"/>
<path d="M17.5171 62.9706C17.5171 57.0172 22.3433 52.1909 28.2968 52.1909H89.7411C95.6945 52.1909 100.521 57.0172 100.521 62.9706V170.768C100.521 176.721 95.6945 181.548 89.7411 181.548H28.2968C22.3433 181.548 17.5171 176.721 17.5171 170.768V62.9706Z" fill="#F1F1F1"/>
<path fill-rule="evenodd" clip-rule="evenodd" d="M16.978 62.9705C16.978 56.7194 22.0456 51.6519 28.2968 51.6519H89.741C95.9919 51.6519 101.06 56.7194 101.06 62.9705V170.768C101.06 177.018 95.9919 182.086 89.741 182.086H28.2968C22.0456 182.086 16.978 177.018 16.978 170.768V62.9705ZM28.2968 52.7298C22.6409 52.7298 18.056 57.3148 18.056 62.9705V170.768C18.056 176.424 22.6409 181.008 28.2968 181.008H89.741C95.397 181.008 99.982 176.424 99.982 170.768V62.9705C99.982 57.3148 95.397 52.7298 89.741 52.7298H28.2968Z" fill="#3E3D3D"/>
<path fill-rule="evenodd" clip-rule="evenodd" d="M21.8289 54.3459C23.6305 52.9928 25.8699 52.1909 28.2966 52.1909H89.741C92.1676 52.1909 94.4067 52.9928 96.2086 54.3459V179.392C94.4067 180.746 92.1676 181.548 89.741 181.548H28.2966C25.8699 181.548 23.6305 180.746 21.8289 179.392V54.3459Z" fill="white"/>
<path opacity="0.5" d="M28.2966 78.0621C28.2966 76.5734 29.5032 75.3672 30.9916 75.3672H87.046C88.534 75.3672 89.741 76.5734 89.741 78.0621V114.174C89.741 115.662 88.534 116.869 87.046 116.869H30.9916C29.5032 116.869 28.2966 115.662 28.2966 114.174V78.0621Z" fill="#F1F1F1"/>
<path d="M28.2966 127.648H43.9272V137.351H28.2966V127.648Z" fill="#F15846"/>
<path d="M50.395 127.648H66.0255V137.351H50.395V127.648Z" fill="#F15846"/>
<path d="M72.4934 127.648H89.741V137.351H72.4934V127.648Z" fill="#F15846"/>
<path d="M28.2966 143.279H43.9272V152.981H28.2966V143.279Z" fill="#F15846"/>
<path d="M50.395 143.279H66.0256V152.981H50.395V143.279Z" fill="#F15846"/>
<path d="M72.4934 143.279H89.7411V152.981H72.4934V143.279Z" fill="#F15846"/>
<path d="M28.2966 159.449H43.9272V169.15H28.2966V159.449Z" fill="#F1F1F1"/>
<path d="M50.395 159.449H66.0256V169.15H50.395V159.449Z" fill="#F15846"/>
<path d="M72.4934 159.449H89.7411V169.15H72.4934V159.449Z" fill="#F1F1F1"/>
<path fill-rule="evenodd" clip-rule="evenodd" d="M16.978 62.9705C16.978 56.7194 22.0456 51.6519 28.2968 51.6519H89.741C95.9919 51.6519 101.06 56.7194 101.06 62.9705V170.768C101.06 177.018 95.9919 182.086 89.741 182.086H28.2968C22.0456 182.086 16.978 177.018 16.978 170.768V62.9705ZM28.2968 52.7298C22.6409 52.7298 18.056 57.3148 18.056 62.9705V170.768C18.056 176.424 22.6409 181.008 28.2968 181.008H89.741C95.397 181.008 99.982 176.424 99.982 170.768V62.9705C99.982 57.3148 95.397 52.7298 89.741 52.7298H28.2968Z" fill="#3E3D3D"/>
<path d="M32.6086 28.4756H85.4288V65.6655H32.6086V28.4756Z" fill="#F1F1F1"/>
<path fill-rule="evenodd" clip-rule="evenodd" d="M85.4288 28.4757H32.6086V25.5113L32.6207 25.498C32.6127 25.4138 32.6086 25.3282 32.6086 25.2418C32.6086 23.7534 33.8152 22.5469 35.3035 22.5469H88.1238L85.4288 25.5113V28.4757Z" fill="#F1F1F1"/>
<path d="M96.2085 34.4044C96.2085 35.8928 95.0023 37.0994 93.5135 37.0994C92.0256 37.0994 90.8186 35.8928 90.8186 34.4044C90.8186 32.9161 92.0256 31.7095 93.5135 31.7095C95.0023 31.7095 96.2085 32.9161 96.2085 34.4044Z" fill="#F15846"/>
<path d="M90.8186 25.2418C90.8186 26.7302 89.6123 27.9367 88.1235 27.9367C86.6357 27.9367 85.4287 26.7302 85.4287 25.2418C85.4287 23.7534 86.6357 22.5469 88.1235 22.5469C89.6123 22.5469 90.8186 23.7534 90.8186 25.2418Z" fill="#F1F1F1"/>
<path d="M85.4287 25.2417H90.8186V37.0993H85.4287V25.2417Z" fill="#F1F1F1"/>
<path d="M32.6086 61.8926H85.4288V65.6653H32.6086V61.8926Z" fill="#F1F1F1"/>
<path fill-rule="evenodd" clip-rule="evenodd" d="M112.378 133.373V192.328H129.087V134.953L121.315 138.571C120.788 138.816 120.17 138.76 119.696 138.424L112.937 133.626C112.765 133.505 112.575 133.42 112.378 133.373Z" fill="white"/>
<path fill-rule="evenodd" clip-rule="evenodd" d="M199.906 108.959C200.442 110.348 199.751 111.908 198.362 112.443L145.524 132.822L148.153 123.977C148.326 123.398 148.161 122.772 147.726 122.352L136.697 111.721C136.278 111.318 136.109 110.721 136.251 110.159L138.295 102.125C138.449 101.523 138.244 100.888 137.768 100.489L128.021 92.2932C127.43 91.7962 127.273 90.9524 127.644 90.2761L132.78 80.9372C133.168 80.2317 132.978 79.349 132.335 78.8654L125.904 74.0361C125.535 73.7595 125.302 73.3388 125.263 72.8792L124.379 62.4123L171.984 44.0518C173.373 43.5163 174.934 44.2078 175.469 45.5964L199.906 108.959Z" fill="#F1F1F1"/>
<path fill-rule="evenodd" clip-rule="evenodd" d="M138.332 101.513C138.358 101.714 138.348 101.921 138.296 102.125L136.252 110.159C136.109 110.722 136.279 111.319 136.697 111.721L142.869 117.671L195.446 97.3932L189.434 81.8042L138.332 101.513Z" fill="white"/>
<path d="M140.944 32.2486C140.944 41.3276 133.584 48.6877 124.506 48.6877C115.427 48.6877 108.066 41.3276 108.066 32.2486C108.066 23.1696 115.427 15.8096 124.506 15.8096C133.584 15.8096 140.944 23.1696 140.944 32.2486Z" fill="#F1F1F1"/>
<path d="M159.27 32.2482C159.27 29.1226 156.736 26.5889 153.611 26.5889C150.485 26.5889 147.951 29.1226 147.951 32.2482C147.951 35.3738 150.485 37.9075 153.611 37.9075C156.736 37.9075 159.27 35.3738 159.27 32.2482Z" fill="#F1F1F1"/>
<path fill-rule="evenodd" clip-rule="evenodd" d="M115.356 38.7307L130.988 23.0991L133.656 25.7669L118.024 41.3984L115.356 38.7307Z" fill="#F1F1F1"/>
<path fill-rule="evenodd" clip-rule="evenodd" d="M118.024 23.0991L133.656 38.7307L130.988 41.3985L115.356 25.767L118.024 23.0991Z" fill="#F1F1F1"/>
<path d="M202.927 201.22H153.88V208.766H202.927V201.22Z" fill="#F15846"/>
<path d="M208.856 194.213H159.809V201.219H208.856V194.213Z" fill="#F1F1F1"/>
<path d="M205.623 186.667H156.575V194.213H205.623V186.667Z" fill="#F1F1F1"/>
<path fill-rule="evenodd" clip-rule="evenodd" d="M0 208.766C0 208.469 0.241312 208.227 0.538985 208.227H214.786C215.083 208.227 215.324 208.469 215.324 208.766C215.324 209.063 215.083 209.305 214.786 209.305H0.538985C0.241312 209.305 0 209.063 0 208.766Z" fill="#3E3D3D"/>
<path fill-rule="evenodd" clip-rule="evenodd" d="M199.693 148.13H159.27V147.052H199.693V148.13ZM199.693 158.64H159.27V157.562H199.693V158.64ZM180.29 169.959H159.27V168.881H180.29V169.959Z" fill="#F1F1F1"/>
<path d="M76.5359 96.6572C76.5359 106.778 68.3311 114.982 58.2103 114.982C48.0894 114.982 39.8848 106.778 39.8848 96.6572C39.8848 86.5369 48.0894 78.3315 58.2103 78.3315C68.3311 78.3315 76.5359 86.5369 76.5359 96.6572Z" fill="#F15846"/>
<path fill-rule="evenodd" clip-rule="evenodd" d="M46.7605 105.059L66.6121 85.207L69.6609 88.2562L49.8094 108.108L46.7605 105.059Z" fill="white"/>
<path fill-rule="evenodd" clip-rule="evenodd" d="M49.8094 85.207L69.6611 105.059L66.6121 108.108L46.7605 88.2562L49.8094 85.207Z" fill="white"/>
<path fill-rule="evenodd" clip-rule="evenodd" d="M77.6138 34.6736H40.9629V33.5957H77.6138V34.6736ZM77.6138 44.1058H40.9629V43.028H77.6138V44.1058ZM77.6138 52.7296H40.9629V51.6516H77.6138V52.7296Z" fill="#3E3D3D"/>
</svg>
