<svg width="253" height="156" viewBox="0 0 253 156" fill="none" xmlns="http://www.w3.org/2000/svg">
<path fill-rule="evenodd" clip-rule="evenodd" d="M96.8958 151.892C60.4982 154.37 21.5917 124.949 21.5917 89.1446C21.5917 53.3377 79.283 68.5975 97.9975 40.1792C142.837 -27.8644 233.361 81.6295 201.537 93.8502C137.772 118.319 184.206 145.942 96.8958 151.892Z" fill="#F0EFF4"/>
<path d="M196.349 87.7048C196.368 87.8002 196.418 87.8895 196.438 87.985C196.599 88.8797 196.701 89.4881 196.595 90.27C196.34 91.9413 195.172 93.5608 195.848 95.6776C196.575 98.6774 200.249 100.501 201.238 97.5276C201.804 95.5634 200.84 93.1728 199.761 91.0031C199.159 89.8401 198.467 88.7263 197.691 87.672C198.541 87.6162 199.377 87.4292 200.17 87.1178C200.337 87.0518 200.474 86.9918 200.641 86.9252C200.688 86.949 200.766 86.9665 200.814 86.9906C202.27 86.3728 203.466 85.7737 204.948 85.3826C207.496 84.6493 210.725 83.9145 210.966 81.1872C210.991 80.3219 210.198 79.4524 209.369 78.8214C208.248 78.0698 206.88 77.7818 205.551 78.0181C203.262 78.3033 201.682 79.6731 200.826 81.3636C200.299 82.4267 200.056 83.6325 199.89 84.8562C199.854 85.4588 199.712 86.1155 199.862 86.7477C198.889 87.1376 197.814 87.2832 196.673 87.3094C196.617 87.2944 196.558 87.2944 196.503 87.3094C196.094 87.3194 195.686 87.3004 195.28 87.2525C195.187 85.3849 195.948 83.647 196.615 81.8616C196.833 81.157 197.128 80.4702 197.204 79.6943C197.79 79.8725 198.396 79.9755 199.009 80.0007C200.139 80.0758 201.1 79.423 200.669 78.3501C199.899 76.9136 197.229 76.2153 195.781 75.938C194.548 75.7499 193.296 75.7184 192.055 75.8444C191.884 75.8498 191.714 75.8722 191.548 75.9112C192.275 75.2055 192.972 74.5059 193.653 73.7765C194.26 73.1606 194.834 72.4852 195.425 71.8395C197.358 72.2531 199.117 73.3293 200.907 74.3995C203.08 75.7911 205.352 77.2959 207.578 76.593C209.45 75.9267 209.351 73.5641 207.222 72.1305C205.062 70.7031 202.472 70.088 200.181 69.9435C199.25 69.8833 198.315 69.9013 197.387 69.9972C197.295 70.0152 197.187 70.0035 197.064 70.0278L198.661 68.3238C199.564 67.3851 200.484 66.4761 201.387 65.5373C201.496 65.5491 201.634 65.5549 201.774 65.5605C202.364 65.643 202.612 65.66 203.219 65.7721C204.731 66.1031 206.265 66.5951 207.774 66.8603C209.221 67.1004 210.692 67.1553 212.152 67.024C213.213 66.9139 214.336 66.7926 215.213 66.3552C216.801 65.5463 216.956 63.6961 214.692 62.3883C212.715 61.3665 210.475 60.9657 208.266 61.2386C207.684 61.3532 206.99 61.3899 206.475 61.6236L206.041 61.2128L206.102 61.2009C207.356 60.5238 208.74 60.0198 210.155 59.509C212.013 58.8785 213.996 58.2895 216.008 57.6289C216.845 58.0924 217.572 58.4788 218.435 59.1695C220.751 60.9965 222.403 63.9466 224.654 66.0838C226.199 67.5663 230.246 70.1771 232.193 69.8269C236.209 69.1023 228.571 63.3606 226.754 61.998C224.666 60.4574 222.42 59.1789 220.148 58.0381C219.396 57.6531 218.618 57.3198 217.821 57.0407C220.487 56.1518 223.119 55.2036 225.559 54.0945C226 53.9086 226.423 53.6929 226.816 53.4832L226.863 53.5069C227.161 53.6138 227.506 53.7443 227.821 53.8807C228.322 54.0467 229.349 54.6054 229.555 54.7303C233.561 57.0848 236.064 61.1905 240.418 63.3771C242.25 64.3399 244.561 64.9436 246.024 64.0931C248.44 62.0298 243.09 58.1861 240.629 56.5864C238.299 55.1593 235.774 54.2342 233.26 53.5708C232.001 53.2203 230.714 52.9755 229.414 52.8392C229.009 52.7875 228.6 52.7684 228.192 52.7821C231.212 51.1997 234.034 49.2671 236.601 47.024C236.726 47.0653 236.865 47.0713 236.991 47.1128C237.711 47.3158 238.417 47.5635 239.107 47.8542C240.883 48.5961 242.23 49.4223 243.838 50.5948C245.829 52.0226 247.83 53.7127 250.202 54.3045C251.026 54.44 251.973 54.5513 252.527 54.1445C253.004 53.7198 253.11 52.9378 252.618 52.2408C251.939 51.1503 250.731 50.3288 249.587 49.5622C248.545 48.8639 247.455 48.2381 246.327 47.6895C244.958 46.9989 243.523 46.4502 242.042 46.0518C240.86 45.7174 239.657 45.457 238.442 45.2719C238.885 44.7876 239.328 44.3034 239.755 43.7893L239.786 43.7833C241.627 42.759 243.788 42.0025 245.018 40.371C245.514 39.6777 245.946 38.931 245.891 37.9824C245.912 36.6219 243.947 35.4208 242.535 35.2687C241.059 35.0624 240.059 35.8885 239.701 36.9513C239.325 38.2828 239.666 39.8036 239.57 41.212C239.549 41.8754 239.463 42.5351 239.313 43.1816C239.285 43.2449 239.288 43.3178 239.321 43.3785C238.805 43.9762 238.289 44.5741 237.713 45.1838C237.29 45.6264 236.843 46.0457 236.375 46.4399C236.632 45.5621 236.543 44.5539 236.023 43.565C235.701 42.8675 234.907 42.3619 234.125 42.119C232.36 41.6395 231.872 42.8936 232.592 44.2405C233.131 45.3254 234.314 46.6476 234.269 47.418C234.278 47.6291 234.271 47.8406 234.249 48.0507C234.208 48.1223 234.206 48.2098 234.243 48.2833C232.992 49.2657 231.678 50.1654 230.309 50.9768C230.806 49.9196 231.174 48.7553 230.841 47.4314C230.544 46.2327 229.317 44.9525 227.869 45.039C226.512 45.1078 225.601 45.8495 224.863 46.6565C223.366 48.1753 223.115 50.7057 222.544 52.5388C222.287 53.4164 221.858 54.2289 221.412 55.0115C221.37 55.119 221.205 55.2506 221.227 55.4117C217.729 56.696 214.144 57.7657 210.487 58.949C208.918 59.4894 207.367 60.0596 205.946 60.8025C206.565 60.0851 207.153 59.3738 207.724 58.6327C208.453 58.7206 209.114 58.6238 209.532 58.2768C209.994 57.8879 209.792 57.1008 209.199 56.5888C209.503 56.0989 209.837 55.603 210.124 55.0832C211.722 55.9928 213.262 56.6159 214.477 56.1122C215.505 55.579 214.717 54.1128 213.637 53.3992C213.182 53.0882 212.701 52.8176 212.198 52.5906C212.729 52.1903 213.293 51.836 213.884 51.5315C216.514 50.1534 219.647 49.3719 221.904 47.5699C223.041 46.6844 224.315 45.7388 224.625 44.2882C224.725 43.7391 224.759 43.0707 224.272 42.505C222.422 40.7189 219.906 41.8758 218.482 42.5531C217.258 43.1604 216.211 44.0731 215.443 45.203C214.684 46.2784 214.196 47.5327 213.613 48.7392C213.366 49.2371 213.092 49.7217 212.793 50.1908C212.866 50.0774 212.922 49.9341 212.994 49.8204C213.533 48.6558 213.976 47.4435 214.42 46.2314C214.481 46.2193 214.495 46.1835 214.556 46.1715C214.606 46.1376 214.638 46.0825 214.643 46.0221C214.634 45.9559 214.611 45.8926 214.573 45.8372C214.587 45.8014 214.601 45.7655 214.632 45.7595C214.719 45.778 214.807 45.7331 214.844 45.6516C215.642 43.6748 218.136 40.1731 216.192 37.6114C215.929 37.3734 215.588 37.2403 215.234 37.2376C214.307 37.2216 213.824 37.879 213.526 38.5002C212.851 40.0889 212.805 41.9507 213.271 43.8769C213.392 44.4177 213.544 44.9512 213.724 45.475C213.791 45.5943 213.796 45.7255 213.894 45.8387C213.59 45.9645 213.303 46.1204 213 46.2463C212.704 45.3048 212.493 44.3388 212.37 43.3597C212.192 42.0713 211.999 40.0251 210.474 39.0019C209.987 38.7271 209.371 38.8777 209.067 39.3459C208.426 40.2661 208.728 41.5961 209.195 42.7942C209.608 43.836 210.158 44.8181 210.831 45.7147C211.11 46.1002 211.425 46.4591 211.771 46.7865L211.788 46.8164C211.32 47.0741 210.853 47.3316 210.431 47.6129C208.837 48.6545 207.486 49.9463 206.148 51.2022C206.014 51.3277 205.895 51.4176 205.761 51.5432C205.58 51.281 205.43 51.0127 205.279 50.7445C204.792 49.8675 204.372 48.9549 204.023 48.0144C203.418 46.4463 202.566 43.8347 200.534 42.5145C199.883 42.0802 199.165 42.2548 198.889 42.6731C198.44 43.39 198.901 44.4571 199.263 45.3454C199.913 46.8716 200.948 48.3551 202.103 49.7489C202.784 50.5411 203.449 51.3033 204.206 52.0475C204.382 52.1786 204.529 52.3811 204.718 52.4762C203.827 53.3135 202.904 54.1567 201.982 55C201.157 53.343 200.631 51.8583 199.972 50.1353C199.335 48.5734 198.679 46.9165 197.279 45.5705C196.141 44.5705 194.868 44.7879 194.539 45.7792C193.928 47.4214 194.698 49.5856 195.733 51.4326C196.41 52.5587 197.22 53.5988 198.148 54.5301C198.701 55.0972 199.286 55.6338 199.898 56.1374C200.057 56.2385 200.201 56.3755 200.36 56.4766C199.928 56.8594 199.482 57.278 199.05 57.6608L197.755 58.8092C197.724 58.8153 197.693 58.8214 197.71 58.8505C197.679 58.8565 197.696 58.8864 197.696 58.8864C197.367 59.1497 197.025 59.4487 196.696 59.7117L196.665 59.7176C195.561 57.3213 194.24 54.9017 192.234 52.7162C191.31 51.6739 190.278 50.62 189.011 49.8769C187.603 49.0624 185.442 48.3629 185.246 49.9565C185.173 51.5259 186.36 52.9793 187.802 54.2173C186.839 53.7122 185.806 53.3862 184.831 53.3466C183.63 53.2851 182.589 54.1724 182.46 55.3686C182.369 57.6363 184.687 59.8927 186.332 61.9181C187.225 62.9662 188.045 64.1281 188.039 65.0887C188.025 65.3901 187.975 65.6886 187.891 65.9782C187.85 66.0856 187.76 66.1694 187.827 66.2885C187.864 66.3678 187.935 66.4265 188.019 66.4492C187.943 66.5224 187.874 66.6025 187.813 66.6884C187.206 66.9402 186.696 67.3053 186.614 67.9499C186.622 68.0184 186.614 68.0876 186.592 68.1528C186.558 68.2225 186.514 68.2868 186.461 68.3441C186.178 68.7338 185.917 69.1388 185.678 69.557C185.796 67.9458 185.975 66.3224 185.3 64.5696C184.235 61.636 181.224 58.6889 180.338 55.952C179.89 54.4851 180.028 53.3331 179.909 51.9671C180.065 52.0025 180.201 51.9426 180.227 51.8052C180.305 51.459 180.369 51.1487 180.464 50.8322C180.754 49.6501 180.995 48.7426 181.363 47.5783C181.567 46.9096 181.801 46.2348 182.036 45.56L182.066 45.554C182.497 45.4689 182.934 45.4161 183.373 45.396C184.203 45.2988 186.197 45.3364 187.146 45.5134C189.118 45.7538 191.587 46.8227 193.011 45.7814C194.073 44.9437 193.18 43.1679 191.783 42.2516C190.143 41.0856 188.096 40.529 186.39 40.6997C185.128 40.8158 184.181 41.4324 183.295 42.0369C183.137 42.1393 182.977 42.2372 182.813 42.3303C182.995 41.5006 183.146 40.6768 183.35 40.0082C183.9 38.0137 184.781 36.1863 185.568 34.311C185.724 34.3465 185.86 34.2865 185.999 34.2922C186.37 34.2854 186.74 34.2784 187.097 34.3077C188.173 34.392 189.24 34.5694 190.285 34.838C191.549 35.1515 192.835 35.6261 194.108 35.7733C195.91 36.014 197.689 35.7298 198.712 34.7014C199.657 33.6551 198.433 32.0765 196.932 31.2801C195.398 30.4242 193.7 30.0638 192.138 30.0076C189.849 29.9288 188.511 30.8207 187.666 32.4098C187.435 32.7861 186.869 33.2945 186.41 33.385C186.246 33.4451 186.077 33.4894 185.905 33.5173C186.048 33.2247 186.143 32.9082 186.268 32.5858C186.974 30.6271 187.123 28.6457 188.333 26.9187C188.977 26.064 190.351 24.9334 191.031 23.84C191.365 23.3441 191.7 22.8481 191.987 22.3284C194.104 21.9778 196.78 22.4434 199.13 22.146C200.005 22.0069 200.874 21.7366 201.342 21.1144C202.293 19.8351 201.4 18.4231 199.409 17.7233C197.291 16.9164 195.55 17.7554 194.179 18.5877C193.739 18.8835 193.343 19.2401 193.003 19.6468C193.115 19.2366 193.253 18.8338 193.415 18.4406C193.753 17.6462 194.166 17.168 194.868 16.5998C195.65 16.0683 196.385 15.47 197.063 14.8116C197.583 14.5213 198.085 14.2015 198.568 13.8537C199.198 13.3989 199.827 12.944 200.17 12.281C200.658 11.3909 200.893 9.98817 199.616 8.98253C198.912 8.39335 197.853 8.20466 197.185 8.46861C195.583 9.31331 195.395 11.8318 195.842 13.6626C195.95 14.0386 196.058 14.4143 196.167 14.7897L196.183 14.8194C195.885 15.0767 195.587 15.3339 195.272 15.5613C194.714 15.923 194.198 16.3464 193.734 16.8236C193.707 15.8034 194.095 14.7344 194.018 13.6248C193.96 11.8826 192.659 9.92228 190.771 8.73881C188.414 7.3835 186.541 8.41377 187.047 10.5308C187.258 11.515 187.87 12.4862 188.465 13.4278C189.172 14.4465 189.925 15.4891 190.861 16.4299C191.328 16.9003 191.84 17.3288 192.369 17.7871C192.528 17.923 192.698 18.0445 192.878 18.1501C192.552 18.843 192.384 19.6368 192.152 20.3772C191.782 21.4795 191.236 22.5144 190.535 23.4416C189.913 24.4573 188.553 25.5523 187.734 26.6398C187.577 26.8508 187.441 27.077 187.329 27.315C187.298 27.2495 187.253 27.1908 187.199 27.1423C186.846 25.7229 186.85 24.3327 186.684 22.9427C186.424 20.4133 185.387 17.7723 182.294 16.1976C180.905 15.4786 179.098 15.1065 178.175 15.95C177.136 16.9486 177.304 18.7682 178.248 20.2691C179.574 22.4562 181.904 24.2472 184.22 25.71C185.155 26.2869 186.002 26.5834 186.613 27.1907L186.647 27.2503C186.691 27.4416 186.751 27.629 186.825 27.8108C186.87 27.8827 186.946 27.929 187.031 27.9357C186.426 29.3451 186.168 30.9507 185.669 32.3063C184.919 34.3069 183.979 36.2128 183.228 38.2127C183.142 37.9981 183.034 37.6224 182.947 37.4079C182.601 36.3343 182.318 35.2411 182.1 34.1341C181.487 31.2773 180.629 27.7407 177.077 25.8927C172.431 23.7307 168.694 26.3521 171.712 30.588C173.368 32.8758 175.984 34.5111 178.59 35.8838C179.904 36.6507 181.335 37.2622 182.237 38.1434C182.387 38.335 182.514 38.543 182.618 38.7631C182.685 38.8823 182.673 38.9833 182.785 39.0611L182.927 39.1323C182.874 39.3415 182.79 39.5563 182.737 39.7651C182.301 41.1742 182.072 42.7087 181.731 44.1647C181.649 44.5246 181.54 44.8779 181.404 45.2215C181.374 45.2276 181.391 45.2574 181.377 45.2932C181.293 45.5082 181.24 45.7171 181.157 45.9321C179.665 44.2402 178.851 42.1183 177.399 40.2538C175.971 38.6158 173.754 36.9022 171.589 36.8651C168.409 36.8956 170.572 41.0022 172.326 42.6752C173.759 44.0802 175.593 45.1086 177.476 45.7967C177.692 46.5482 177.971 47.2874 178.265 48.0566C178.053 47.8005 177.811 47.5503 177.6 47.2942C177.001 46.6511 175.568 44.8819 174.688 45.2539C173.861 45.7806 175.21 47.4008 176.037 47.9658C176.821 48.5519 177.702 48.9944 178.64 49.2726L178.67 49.2666C178.893 49.9358 179.051 50.6248 179.142 51.3242C179.212 51.8764 179.25 52.432 179.258 52.9886C179.194 52.935 179.113 52.851 179.05 52.7982C178.743 52.4945 178.468 52.1849 178.192 51.875C177.561 51.1723 176.99 50.4583 176.194 49.8865C174.711 48.756 173.41 49.409 174.414 50.8985C175.187 52.0365 176.646 52.5768 177.896 52.9258C178.147 53.0084 178.773 53.2164 179.063 53.4898L179.08 53.5196C179.144 53.5732 179.177 53.6329 179.241 53.6863C179.31 54.9631 179.504 56.2814 180.316 57.6104C181.851 60.3517 184.342 63.0375 184.886 65.7096C185.229 67.6599 184.755 69.6062 184.856 71.6704C184.894 74.0453 185.446 76.55 185.561 78.9426C185.608 79.3303 185.655 79.718 185.716 80.0705C184.89 79.1412 184.019 78.2541 183.103 77.4088C181.21 75.7306 179.287 74.0575 177.501 72.3251C177.51 72.1594 177.545 71.9964 177.604 71.8415C177.77 71.2411 178.022 70.6679 178.352 70.1393C179.177 68.8188 181.096 67.4483 181.452 65.592C182.016 63.1985 178.993 61.4442 176.759 62.3143C174.805 63.2612 174.818 65.7731 175.012 67.8194C175.113 68.6586 175.282 69.4883 175.517 70.3005L175.274 70.0505C174.014 68.7106 172.812 67.293 171.565 65.9173C171.56 65.7861 171.429 65.6133 171.376 65.4582C171.2 65.1482 171.052 64.823 170.934 64.4866C170.503 63.4137 170.136 61.6659 170.154 60.6039C170.117 58.229 171.572 56.4538 170.97 53.8595C170.673 52.2968 168.836 50.1109 167.115 51.0455C166.571 51.3509 166.317 51.9302 166.092 52.4379C165.726 53.3045 165.597 54.2887 165.624 55.3089C165.68 56.7906 165.992 58.2516 166.545 59.627C166.885 60.5005 167.281 61.3506 167.733 62.1717C165.492 60.297 163.046 58.6614 160.825 56.882C160.855 56.807 160.845 56.722 160.8 56.6553C160.756 56.465 160.727 56.2715 160.714 56.0766C160.675 55.5219 160.754 54.4476 161.025 53.8981C162.023 51.915 163.161 49.9375 163.042 47.4795C162.969 44.6155 162.151 39.8139 158.156 38.086C155.422 36.9702 154.181 39.0671 154.169 40.9883C153.969 44.3361 155.818 47.9422 157.336 51.3819C157.951 52.7828 158.415 53.9154 158.902 55.2092C158.327 54.6742 157.782 54.1076 157.271 53.5121C155.857 51.8385 154.861 50.1818 153.671 48.2988C152.642 46.5826 151.49 44.8904 150.461 43.1742C150.261 42.8166 150.074 42.4231 149.874 42.0655C149.915 42.0255 149.935 41.9695 149.929 41.9128C149.924 41.8562 149.894 41.805 149.847 41.7732C148.391 40.2071 147.495 38.7292 146.191 37.0671C144.201 34.5474 141.886 31.9925 138.956 30.2207C137.655 29.418 136.244 29.2658 135.764 30.3528C135.477 31.2366 135.986 32.3274 136.475 33.3228C136.992 34.2466 137.557 35.1935 138.303 36.0398C139.519 37.4215 141.005 38.6177 142.55 39.7362C144.333 40.9955 146.224 42.0956 148.201 43.0237L150.138 43.9325C150.187 43.9565 150.24 43.9687 150.294 43.968C150.959 45.0943 151.732 46.2322 152.428 47.3526C152.227 47.3154 152.029 47.2661 151.835 47.2046C150.877 46.9656 149.947 46.6277 149.059 46.1962C145.86 44.6756 142.876 42.3846 139.374 41.3544C138.703 41.1893 138.004 41.0948 137.488 41.3286C136.887 41.6357 136.612 42.3442 136.847 42.9768C137.305 44.3423 138.758 45.4789 140.122 46.3351C143.293 48.2915 146.962 49.6203 150.279 49.5297C151.39 49.5093 152.482 49.3936 153.41 49.0456L153.44 49.0395C154.45 50.6605 155.49 52.2752 156.773 53.7762C157.878 55.0806 159.208 56.2413 160.58 57.2945C160.791 57.4701 161.009 57.6369 161.234 57.7942C159.644 57.4457 158.167 56.8103 156.498 56.0799C154.784 55.3258 153.071 54.6372 151.301 54.0265C149.187 53.3507 146.866 52.4845 144.902 52.8049C143.707 53.0403 143.461 54.1805 144.31 55.2706C145.08 56.3434 146.364 57.116 147.522 57.8473C149.479 59.0012 151.603 59.8442 153.819 60.346C156.05 60.8663 158.269 61.1241 160.38 61.0062C161.828 60.9197 163.321 60.7912 164.599 60.3409C164.63 60.3348 164.613 60.3052 164.613 60.3052C166.336 61.6201 168.028 62.9411 169.478 64.3766C170.366 65.2937 171.223 66.2167 172.049 67.1457C169.863 67.0188 167.696 66.6695 165.581 66.1033C162.588 65.4355 158.873 64.1486 156.859 65.8356C155.616 66.775 156.11 68.6297 157.753 69.8613C159.331 71.0393 161.249 71.4887 163.001 71.6401C165.716 71.9327 167.967 71.0925 169.931 70.0445C170.778 69.6131 171.851 69.0381 172.583 68.8276C172.79 68.7538 173.007 68.7112 173.226 68.701L173.41 68.6647C173.961 69.2837 174.56 69.9273 175.141 70.5407C175.367 70.7608 175.561 70.9873 175.77 71.1778L175.803 71.2374C175.837 71.2969 175.884 71.3207 175.979 71.3683L176.897 72.2792C176.89 72.3482 176.915 72.4165 176.966 72.4641C177.035 72.5203 177.116 72.5608 177.202 72.5829C178.683 74.0118 180.239 75.3929 181.825 76.7679C183.182 77.9398 184.458 79.203 185.643 80.5486C185.707 80.6021 185.757 80.6915 185.838 80.7749C185.852 80.8521 185.849 80.9312 185.832 81.0077C185.639 83.0309 185.974 85.1479 186.326 87.2957C185.036 88.2113 182.769 87.9299 181.015 88.4407C179.795 88.8133 178.814 89.7337 178.883 91.011C178.926 92.425 180.042 93.9921 181.623 94.8717C183.791 96.1321 185.878 95.0596 186.259 93.4298C186.61 92.2356 186.698 90.9944 186.799 89.7171C187.121 91.1426 187.429 92.6039 187.564 93.9997C187.78 95.4791 187.564 96.9772 187.6 98.5584C187.641 98.8149 187.574 99.0596 187.677 99.304C187.842 99.5365 188.256 99.4878 188.215 99.2314C188.115 98.3245 188.233 97.0774 188.251 96.0152C188.23 94.968 188.155 93.9225 188.027 92.883C187.82 91.2366 187.347 89.543 187.014 87.8552L187.048 87.5508C187.057 87.5177 187.05 87.4822 187.029 87.4553C187.304 87.401 187.301 87.3353 187.485 87.2992C188.508 86.9988 189.571 86.9553 190.702 87.0298C190.661 87.1373 190.696 87.2626 190.638 87.3402C190.602 87.579 190.546 87.7223 190.521 87.8595C190.264 88.7373 189.848 89.5139 189.449 90.3202C188.707 91.7897 187.871 93.5756 189.111 95.5473C191.184 98.944 195.161 98.3926 194.311 95.0529C193.908 93.1801 192.342 91.1727 191.747 89.5032C191.547 88.7815 191.498 88.3282 191.671 87.6655C191.7 87.4928 191.755 87.3258 191.836 87.1703C192.83 87.3055 193.81 87.4764 194.834 87.6055C195.336 87.6711 195.843 87.7042 196.349 87.7048ZM178.399 46.9057C178.277 46.566 178.185 46.2201 178.08 45.91C178.33 45.9925 178.612 46.07 178.845 46.1232C179.424 46.3069 179.814 46.3955 180.276 46.7348L180.293 46.7644L180.34 46.7882C180.468 46.8954 180.551 47.0444 180.693 47.1156C180.68 47.1515 180.696 47.1814 180.666 47.1873C180.269 48.3714 179.932 49.575 179.658 50.7936C179.644 50.8293 179.661 50.8591 179.63 50.8652C179.453 49.5767 178.902 48.2295 178.399 46.9057ZM189.722 78.0585C190.059 77.9922 191.343 78.0372 191.655 78.1081C191.955 78.1525 192.251 78.2156 192.543 78.2972C192.093 79.0453 191.832 79.8915 191.781 80.7631C191.457 80.4407 191.086 80.1681 190.682 79.954C189.938 79.5055 189.119 79.1958 188.265 79.0403L188.248 79.0104C188.499 78.7295 188.75 78.4485 189.018 78.1973L189.048 78.1913C189.266 78.1155 189.493 78.0708 189.722 78.0585ZM198.856 67.0956C198.636 65.7721 198.255 64.4806 197.722 63.2493C197.375 62.4352 196.986 61.6394 196.557 60.8652C196.481 60.7209 196.392 60.5835 196.293 60.454L196.786 60.0591C197.953 60.623 198.985 61.3134 200.149 62.1761C200.786 62.6461 201.474 63.2055 202.206 63.723C201.111 64.8654 199.968 65.9834 198.856 67.0956ZM210.176 48.1923C211.044 47.5821 211.962 47.047 212.92 46.5932C213.118 46.5213 213.269 46.4254 213.467 46.3535C213.118 47.2492 212.786 48.1748 212.39 49.0467C211.994 49.9187 211.551 50.7669 211.107 51.6152C211.057 51.6492 211.025 51.7043 211.02 51.7647C210.993 51.8363 210.948 51.8781 210.92 51.9498C209.928 51.6544 208.904 51.4783 207.871 51.4253C207.376 51.3905 206.91 51.3498 206.431 51.3449C207.682 50.2385 208.903 49.1378 210.176 48.1923ZM205.45 52.2667C206.581 52.7059 207.998 53.7172 209.47 54.5852C209.166 55.0751 208.892 55.559 208.572 56.0191C208.029 55.7213 207.442 55.513 206.832 55.4023C205.354 55.1149 203.841 55.0558 202.346 55.227C203.372 54.2634 204.441 53.2587 205.45 52.2667ZM200.395 56.9674C200.505 56.8759 200.609 56.7781 200.707 56.6745C200.911 56.7337 201.142 56.7212 201.345 56.7805C202.125 56.9578 202.937 57.1947 203.72 57.4377C204.58 57.6983 205.772 58.1255 206.877 58.338C206.306 59.0791 205.687 59.7961 205.068 60.5138C204.289 59.9724 203.409 59.6163 202.532 59.3258C201.733 59.0488 200.907 58.8565 200.068 58.7523C199.525 58.6936 198.999 58.6651 198.472 58.6363C199.144 58.0735 199.785 57.5177 200.395 56.9674ZM189.68 64.073C190.201 63.2424 190.72 62.3462 191.004 61.397C191.288 61.9035 191.572 62.4101 191.903 62.9405C190.92 63.6349 189.977 64.384 189.078 65.1841C189.278 64.8133 189.479 64.4433 189.68 64.073ZM188.781 66.2342C189.862 65.2101 191.015 64.2644 192.231 63.4045C193.23 64.8859 194.368 66.2682 195.631 67.5323C196.065 67.9432 196.547 68.3777 196.995 68.7527C197.049 68.8018 197.108 68.8456 197.17 68.8834C196.446 69.6548 195.738 70.4558 195.03 71.2569C194.966 71.2361 194.897 71.2498 194.846 71.2931C194.801 71.3134 194.768 71.3525 194.755 71.3998C194.742 71.4472 194.751 71.4978 194.779 71.538C194.38 71.9803 194.012 72.4167 193.597 72.8293C193.297 71.5649 193.059 70.2886 192.45 69.0191C191.688 67.4154 190.427 66.0757 188.781 66.2342ZM186.157 78.8598C185.997 76.1452 185.378 73.521 185.442 70.961C185.45 70.7941 185.442 70.597 185.45 70.4301C185.776 70.4652 185.818 69.9936 185.98 69.7964C186.167 69.4619 186.37 69.1571 186.574 68.8525C186.854 69.6574 187.43 70.503 188.062 71.2062C188.936 72.159 190.175 72.6092 191.28 73.1863C191.491 73.3073 191.693 73.4445 191.884 73.5968C191.9 73.6264 191.965 73.6801 191.981 73.7098C192.029 73.7336 192.112 73.8826 192.159 73.9064C192.222 73.988 192.273 74.0784 192.31 74.1746C191.184 75.3226 189.963 76.4231 188.807 77.5773C188.909 76.7311 188.909 75.8757 188.808 75.0293C188.722 74.4507 188.586 73.7827 188.1 73.217C187.743 72.8238 187.075 72.7238 186.794 73.0105C186.495 73.2679 186.498 73.6974 186.484 74.0973C186.53 74.849 186.764 75.6303 187.042 76.3696C187.276 76.9905 187.463 77.6285 187.6 78.2778C187.638 78.4363 187.66 78.5981 187.666 78.7608C187.21 79.281 186.769 79.8309 186.346 80.4106C186.293 79.8917 186.21 79.3783 186.157 78.8598ZM187.429 86.781C187.221 86.8271 187.018 86.8894 186.82 86.9673L186.789 86.9733C186.561 85.5954 186.373 84.0445 186.296 82.9347C186.273 82.7145 186.274 82.4925 186.299 82.2724C186.333 82.3294 186.392 82.3668 186.458 82.3735C186.708 82.456 186.887 82.2891 186.753 82.0508C186.701 81.8957 186.678 81.7344 186.626 81.5796C186.748 81.5555 186.837 81.4717 186.801 81.3465C186.832 81.3405 186.832 81.3405 186.879 81.3644C187.185 81.3811 187.487 81.4325 187.781 81.5176C188.36 81.7012 189.402 82.2242 190.215 82.461C190.763 82.6509 191.384 82.727 191.827 82.6068C191.868 82.9839 191.941 83.3569 192.043 83.7222C192.35 84.8426 192.86 85.8973 193.548 86.8337C193.581 86.8933 193.645 86.9468 193.678 87.0063C191.688 86.6705 189.231 86.2938 187.429 86.781Z" fill="#DAD8E4"/>
<path fill-rule="evenodd" clip-rule="evenodd" d="M65.9443 50.666C53.3959 53.6297 34.5473 64.4009 30.2049 44.4537C27.2301 30.7864 62.5573 31.9534 69.8943 24.3807C86.0344 7.72228 110.877 22.7931 100.254 28.1482C78.9685 38.8735 96.0463 43.5551 65.9443 50.666Z" fill="#F0EFF4"/>
<path fill-rule="evenodd" clip-rule="evenodd" d="M161.782 72.941C157.05 80.0308 109.396 83.9185 103.202 75.2066C93.6281 61.7541 121.2 23.3081 121.2 23.3081C120.844 21.4706 120.778 17.0284 122.225 15.295C124.418 12.6602 121.156 10.1578 123.185 9.58948C125.793 8.86169 127.883 11.3254 132.427 12.5574C135.118 13.2799 134.743 20.3455 132.198 24.3003C131.292 25.7033 129.562 25.8315 129.562 25.8315C129.562 25.8315 118.926 52.0024 121.185 57.0147C123.987 63.2144 137.325 56.0763 157.82 53.1833C167.621 51.798 164.389 69.0332 161.782 72.941Z" fill="#FFC197"/>
<path fill-rule="evenodd" clip-rule="evenodd" d="M59.5836 11.0065C59.022 10.1226 57.9547 9.48812 56.7305 9.30928C55.5245 9.11543 54.2902 9.39327 53.2836 10.0852L1.33095 47.4816C-0.0158279 48.4511 -0.38667 50.0255 0.430934 51.3126L65.8124 154.229C66.3822 155.126 67.4406 155.748 68.6735 155.94C69.8795 156.134 71.1138 155.856 72.1204 155.164L124.073 117.767C125.42 116.798 125.79 115.224 124.973 113.936L59.5836 11.0065ZM58.8029 11.3229L124.192 114.253C124.828 115.255 124.542 116.484 123.482 117.247L71.5298 154.643C70.741 155.183 69.7769 155.403 68.8322 155.259C67.8648 155.121 67.0391 154.617 66.5931 153.915L1.21183 50.9968C0.567523 49.9827 0.85419 48.753 1.91335 47.9902L53.8654 10.5939C54.6542 10.0545 55.6183 9.83467 56.563 9.97859C57.5394 10.1286 58.3569 10.6209 58.8029 11.3229Z" fill="#77536F"/>
<path fill-rule="evenodd" clip-rule="evenodd" d="M69.6376 10.0675C69.4456 9.7604 69.1328 9.54861 68.7764 9.48427C68.4267 9.41787 68.0649 9.49453 67.7722 9.6971L12.4027 49.553C11.8398 49.9617 11.6938 50.7388 12.0699 51.3239L76.8116 153.235C77.0014 153.538 77.3117 153.745 77.6645 153.805C78.0144 153.879 78.3792 153.802 78.6693 153.592L134.038 113.736C134.602 113.335 134.752 112.562 134.379 111.979L69.6376 10.0675Z" fill="#8293EC"/>
<path fill-rule="evenodd" clip-rule="evenodd" d="M111.628 90.2065C110.706 88.7563 108.993 87.727 106.984 87.4318C104.975 87.1367 102.913 87.6001 101.395 88.6927L72.4657 109.516C68.7792 112.17 67.7857 116.452 70.0267 119.98C70.9483 121.43 72.6609 122.457 74.6697 122.753C76.6785 123.048 78.7405 122.585 80.2517 121.497L109.188 100.668C112.866 98.0202 113.868 93.734 111.628 90.2065ZM111.004 90.4552L111.005 90.4566C113.103 93.7594 112.164 97.7733 108.719 100.254L79.7824 121.083C78.4345 122.053 76.5888 122.469 74.7951 122.206C73.0087 121.936 71.4722 121.024 70.6497 119.73C68.5516 116.427 69.4898 112.413 72.9357 109.933L101.872 89.1034C103.22 88.1327 105.065 87.7165 106.851 87.9843C108.645 88.2485 110.181 89.1607 111.004 90.4552Z" fill="white"/>
<path fill-rule="evenodd" clip-rule="evenodd" d="M134.899 80.9633C133.723 79.1138 131.837 77.8306 129.685 77.4161C127.532 77.0017 125.305 77.4928 123.526 78.7735L86.5059 105.421C82.6242 108.213 81.5961 113.55 84.1625 117.585C85.3374 119.435 87.2238 120.719 89.3764 121.134C91.5288 121.548 93.7571 121.057 95.5355 119.775L132.555 93.1271C136.433 90.3329 137.461 85.0005 134.9 80.965L134.899 80.9633Z" fill="#77536F"/>
<path fill-rule="evenodd" clip-rule="evenodd" d="M92.1126 60.4798C91.6377 59.7324 90.8755 59.2139 90.0059 59.047C89.1363 58.88 88.2363 59.0791 87.5183 59.5974L51.3258 85.6499C49.7673 86.7702 49.3537 88.9121 50.3831 90.5322C50.8573 91.278 51.6177 91.7959 52.4855 91.9636C53.3533 92.1314 54.2519 91.9344 54.97 91.4189L91.1699 65.362C92.7286 64.242 93.1419 62.0998 92.1126 60.4798ZM99.8136 72.5988C99.3387 71.8514 98.5765 71.3331 97.707 71.1661C96.8373 70.999 95.9373 71.1981 95.2194 71.7164L59.0267 97.7694C57.4681 98.8897 57.0546 101.032 58.084 102.652C58.5582 103.398 59.3186 103.915 60.1864 104.083C61.0542 104.251 61.9528 104.054 62.6708 103.539L98.8705 77.4812C100.429 76.3613 100.843 74.2187 99.8136 72.5988Z" fill="white"/>
<path d="M96.1745 109.98L97.1854 109.146C97.3776 109.339 97.646 109.437 97.9176 109.413C98.2465 109.362 98.556 109.225 98.8148 109.016C99.0992 108.834 99.3366 108.588 99.5077 108.297C99.616 108.07 99.6283 107.884 99.5417 107.747C99.4855 107.658 99.3893 107.603 99.2844 107.599C99.1131 107.603 98.9447 107.644 98.7907 107.72C98.6491 107.779 98.3241 107.935 97.8185 108.178C97.1748 108.5 96.6891 108.672 96.3582 108.69C95.8983 108.723 95.5783 108.592 95.3896 108.295C95.2657 108.083 95.2262 107.833 95.2787 107.593C95.3496 107.275 95.4973 106.979 95.7087 106.73C95.993 106.392 96.3214 106.093 96.6853 105.843C97.3623 105.355 97.9364 105.091 98.4075 105.05C98.8786 105.009 99.2284 105.162 99.4617 105.49L98.4037 106.302C98.2562 106.152 98.0473 106.079 97.8385 106.106C97.557 106.166 97.2936 106.292 97.0702 106.474C96.8065 106.646 96.584 106.874 96.4184 107.142C96.3387 107.244 96.3278 107.383 96.3908 107.496C96.463 107.59 96.5829 107.633 96.6986 107.608C96.8878 107.585 97.2735 107.435 97.8521 107.14C98.2845 106.911 98.7354 106.72 99.2 106.567C99.4697 106.481 99.7567 106.465 100.034 106.52C100.282 106.583 100.494 106.742 100.624 106.961C100.765 107.198 100.81 107.481 100.751 107.75C100.681 108.098 100.521 108.421 100.286 108.687C99.9727 109.059 99.6104 109.386 99.2093 109.661C98.5269 110.153 97.9386 110.42 97.4358 110.463C96.9618 110.517 96.491 110.337 96.1745 109.98ZM100.268 104.322L99.8473 103.66L100.877 102.919L101.297 103.582L100.268 104.322ZM102.223 107.4L100.5 104.688L101.529 103.947L103.252 106.659L102.223 107.4ZM104.326 106.142L105.565 105.399C105.627 105.477 105.726 105.515 105.824 105.497C106.012 105.452 106.188 105.364 106.337 105.241C106.549 105.101 106.736 104.926 106.889 104.723C106.952 104.627 106.983 104.513 106.976 104.398C106.951 104.265 106.896 104.139 106.816 104.031L106.565 103.636C106.439 104.157 106.123 104.612 105.68 104.912C105.154 105.29 104.641 105.433 104.144 105.343C103.75 105.276 103.406 105.038 103.202 104.695C102.92 104.292 102.852 103.777 103.019 103.315C103.196 102.824 103.525 102.403 103.959 102.113C104.375 101.785 104.903 101.634 105.429 101.694L105.188 101.314L106.151 100.621L107.697 103.056C107.865 103.295 107.982 103.566 108.04 103.852C108.064 104.058 108.037 104.266 107.959 104.457C107.855 104.68 107.715 104.884 107.544 105.061C107.297 105.323 107.023 105.559 106.727 105.763C106.066 106.238 105.547 106.499 105.171 106.535C104.798 106.577 104.531 106.478 104.376 106.234C104.357 106.205 104.34 106.174 104.326 106.142ZM104.235 103.894C104.417 104.181 104.629 104.334 104.877 104.354C105.137 104.366 105.392 104.285 105.597 104.127C105.834 103.966 106.012 103.733 106.105 103.463C106.189 103.193 106.141 102.899 105.976 102.669C105.797 102.387 105.579 102.238 105.331 102.218C105.055 102.21 104.785 102.298 104.568 102.469C104.341 102.622 104.172 102.847 104.085 103.107C104.014 103.379 104.069 103.668 104.235 103.894ZM112.432 100.051L111.403 100.792L110.524 99.4092C110.339 99.117 110.196 98.9433 110.095 98.8879C109.99 98.8362 109.871 98.8198 109.756 98.8412C109.609 98.8716 109.471 98.9347 109.351 99.026C109.182 99.1439 109.04 99.2968 108.935 99.4743C108.844 99.6176 108.803 99.7873 108.818 99.9565C108.88 100.201 108.988 100.431 109.135 100.636L109.915 101.863L108.885 102.604L107.162 99.8918L108.119 99.2033L108.373 99.6023C108.527 99.0388 108.879 98.5493 109.363 98.2224C109.572 98.0696 109.8 97.9458 110.042 97.8542C110.222 97.7863 110.414 97.7566 110.606 97.7673C110.749 97.7838 110.885 97.8379 110.999 97.924C111.144 98.0501 111.266 98.1994 111.362 98.3659L112.432 100.051ZM113.183 94.0608L114.269 93.2795L115.556 95.305C115.68 95.5174 115.826 95.7166 115.991 95.9001C116.155 96.0206 116.361 96.0671 116.561 96.0285C117.139 95.875 117.642 95.5158 117.974 95.0186C118.069 94.8606 118.098 94.6714 118.055 94.4919C117.962 94.2573 117.842 94.0343 117.698 93.8268L116.383 91.7573L117.468 90.976L118.715 92.9384C118.999 93.3863 119.176 93.7278 119.232 93.9571C119.293 94.1866 119.286 94.4292 119.21 94.654C119.109 94.9338 118.959 95.1931 118.767 95.42C118.484 95.7433 118.163 96.0298 117.809 96.2729C117.294 96.6433 116.883 96.8823 116.559 96.9881C116.296 97.092 116.014 97.1379 115.732 97.1225C115.526 97.1125 115.327 97.0442 115.158 96.9254C114.879 96.6718 114.64 96.3774 114.449 96.0522L113.183 94.0608ZM119.229 91.2063L120.192 90.5136L120.445 90.9126C120.491 90.6628 120.591 90.426 120.738 90.2191C120.905 89.9708 121.117 89.7558 121.363 89.5851C121.758 89.2762 122.249 89.114 122.75 89.1256C123.224 89.1394 123.6 89.3733 123.878 89.8108C124.159 90.2209 124.231 90.7384 124.074 91.2097C123.907 91.7016 123.584 92.1258 123.154 92.4182C122.961 92.5615 122.745 92.6733 122.517 92.7492C122.274 92.8198 122.021 92.8508 121.768 92.841L122.637 94.2094L121.608 94.9504L119.229 91.2063ZM121.079 91.7834C121.274 92.0901 121.505 92.2496 121.772 92.2707C122.049 92.2883 122.323 92.2046 122.543 92.0349C122.767 91.8828 122.933 91.6587 123.012 91.3995C123.085 91.1552 123.024 90.8799 122.833 90.5779C122.65 90.2907 122.439 90.1377 122.187 90.1133C121.92 90.1008 121.658 90.1838 121.447 90.3469C121.213 90.5036 121.038 90.7346 120.95 91.0025C120.87 91.2688 120.918 91.557 121.079 91.7834Z" fill="white"/>
<ellipse cx="66.0534" cy="58.7666" rx="17.1802" ry="14.2451" transform="rotate(-43.2001 66.0534 58.7666)" fill="white"/>
<path fill-rule="evenodd" clip-rule="evenodd" d="M55.3026 60.9355C53.2955 60.9051 51.4863 60.0245 50.4228 58.3504C48.4947 55.3154 49.7534 50.814 53.2401 48.3041C56.7269 45.7941 61.1357 46.2182 63.0633 49.2532C64.3103 51.2162 64.2084 53.7971 63.0573 56.0483C67.7839 54.4579 72.0136 55.246 73.08 58.1824C74.3281 61.6305 70.7344 66.7461 65.0662 69.5956C59.398 72.4451 53.7653 71.9645 52.5174 68.5165C51.7388 66.3247 52.8928 63.4636 55.3026 60.9355Z" fill="#D1CFE1"/>
<path fill-rule="evenodd" clip-rule="evenodd" d="M157.496 130.705C158.709 107.817 150.664 87.8983 151.396 74.8141C151.865 66.514 148.272 54.195 161.913 52.1993C173.608 50.4884 188.061 53.5795 190.911 56.7264C196.678 63.0753 194.584 97.4998 189.103 102.195C178.117 109.209 166.078 123.697 157.496 130.705Z" fill="#FE9400"/>
<path fill-rule="evenodd" clip-rule="evenodd" d="M189.559 57.1411C197.422 60.4602 213.432 105.634 204.229 114.05C195.026 122.466 134.35 107.64 134.35 107.64C132.611 108.335 128.272 109.233 126.286 108.136C123.298 106.478 125.137 102.776 124.198 100.89C122.994 98.465 114.393 103.921 114.74 99.2244C114.955 96.4467 128.899 94.8925 133.261 96.6522C134.821 97.2793 135.271 98.9559 135.271 98.9559C135.271 98.9559 178.487 102.959 182.987 99.7985C188.551 95.8834 174.604 81.7684 176.774 65.8134C178.11 56.006 185.242 55.3149 189.559 57.1411Z" fill="#FFC197"/>
<path fill-rule="evenodd" clip-rule="evenodd" d="M163.77 51.8898C163.77 51.8898 168.382 48.4785 167.306 44.8874C167.031 43.9445 164.949 46.6016 163.072 45.4514C160.509 43.8695 159.891 34.7528 162.786 30.0095C164.583 27.0695 170.9 25.3061 172.96 27.3087C175.02 29.3113 175.832 37.8472 175.122 42.0269C174.001 48.694 180.077 52.7049 180.077 52.7049C180.077 52.7049 169.984 60.783 167.444 67.4878C166.7 69.4567 163.77 51.8898 163.77 51.8898Z" fill="#FFC197"/>
<path fill-rule="evenodd" clip-rule="evenodd" d="M164.194 33.8614C163.335 33.81 162.535 33.3088 161.871 32.7961C159.319 30.83 159.491 27.4095 161.71 25.2535C163.049 23.9593 165.796 23.0954 167.078 24.9172C167.49 24.3337 168.348 24.0862 169 23.9341C169.53 23.7936 170.079 23.7455 170.625 23.7922C174.356 24.2946 173.486 28.9829 176.324 30.4822C177.251 29.8859 178.269 31.8348 178.452 32.4288C179.082 34.4943 178.807 38.0246 176.427 38.8485C176.221 39.4036 175.695 39.7939 175.225 40.1139C173.932 41.0033 171.849 41.6394 170.408 40.7206C170.234 40.6084 170.076 40.4738 169.938 40.3201C168.909 39.1745 169.996 37.8688 170.339 36.6788C170.522 36.0516 170.671 35.2665 170.122 34.7734C169.675 34.3866 169.229 34.6062 168.874 34.9798C168.336 35.5485 168.039 36.4445 167.18 36.6048C165.945 36.8337 164.743 35.6458 164.354 34.8127C164.274 34.636 164.194 33.8614 164.194 33.8614Z" fill="black"/>
<path fill-rule="evenodd" clip-rule="evenodd" d="M156.303 24.768C156.304 23.9473 155.838 23.1976 155.101 22.8356L109.138 0.230963C108.47 -0.0950261 107.682 -0.0545598 107.051 0.338201C106.42 0.730963 106.035 1.42072 106.033 2.16389V9.77051C106.035 10.5905 106.5 11.3388 107.235 11.7028L153.207 34.3118C153.875 34.6393 154.664 34.5985 155.294 34.204C155.924 33.8095 156.306 33.1173 156.303 32.3738L156.303 24.768Z" fill="#77536F"/>
<path fill-rule="evenodd" clip-rule="evenodd" d="M112.517 11.4948L111.539 10.3882L112.811 9.09528L110.562 7.39307L110.862 6.4346L113.112 8.13651L112.993 5.79004L114.157 6.30365L114.276 8.65012L116.452 8.90201L116.866 10.176L114.69 9.92401L116.155 12.426L115.247 12.7001L113.789 10.2005L112.517 11.4948ZM120.613 15.4718L119.635 14.3651L120.907 13.0721L118.658 11.3702L118.958 10.4118L121.208 12.1136L121.089 9.76721L122.253 10.2808L122.372 12.6272L124.548 12.8792L124.962 14.1531L122.786 13.9012L124.251 16.4032L123.343 16.6771L121.885 14.1777L120.613 15.4718ZM129.288 19.3409L128.31 18.2343L129.582 16.9413L127.333 15.2395L127.633 14.281L129.883 15.9829L129.764 13.6364L130.928 14.15L131.047 16.4966L133.223 16.7484L133.637 18.0224L131.461 17.7704L132.926 20.2724L132.018 20.5465L130.56 18.0469L129.288 19.3409ZM137.759 23.9044L136.781 22.7977L138.053 21.5047L135.803 19.8028L136.104 18.8445L138.354 20.5462L138.235 18.1999L139.398 18.7135L139.517 21.0599L141.694 21.3118L142.108 22.5858L139.931 22.3339L141.397 24.8357L140.489 25.1098L139.031 22.6104L137.759 23.9044ZM146.697 28.3005L145.719 27.1938L146.992 25.9009L144.742 24.1991L145.043 23.2406L147.293 24.9426L147.174 22.596L148.337 23.1096L148.456 25.4562L150.632 25.708L151.046 26.982L148.87 26.7301L150.335 29.232L149.428 29.5061L147.97 27.0065L146.697 28.3005Z" fill="white"/>
<path fill-rule="evenodd" clip-rule="evenodd" d="M127.407 24.6516C128.122 23.8401 132.417 21.8849 133.544 21.7279C135.342 21.4639 137.034 22.6416 136.411 24.3512C136.164 25.009 130.724 26.5202 129.227 26.5739C128.615 26.5933 127.121 24.9732 127.407 24.6516Z" fill="#FFC197"/>
</svg>
