<svg width="293" height="197" viewBox="0 0 293 197" fill="none" xmlns="http://www.w3.org/2000/svg">
<path d="M20.8908 188.178C20.8908 188.178 -27.9606 131.088 41.5026 112.746C110.966 94.4036 129.269 78.7089 162.11 31.1723C194.95 -16.3644 336.24 -3.64445 278.767 190.373L20.8908 188.178Z" fill="#E2EEFC"/>
<rect x="220.946" y="122.379" width="53.1751" height="63.7923" fill="#CCDEFF"/>
<rect x="224.282" y="125.717" width="13.1317" height="2.43179" fill="#E2EEFC"/>
<rect x="240.17" y="125.717" width="13.1317" height="2.43179" fill="#E2EEFC"/>
<rect x="255.733" y="125.717" width="13.1317" height="2.43179" fill="#E2EEFC"/>
<rect x="224.444" y="130.094" width="13.1317" height="2.43179" fill="#E2EEFC"/>
<rect x="240.332" y="130.094" width="13.1317" height="2.43179" fill="#E2EEFC"/>
<rect x="255.896" y="130.094" width="13.1317" height="2.43179" fill="#E2EEFC"/>
<rect x="224.444" y="134.471" width="13.1317" height="2.43179" fill="#E2EEFC"/>
<rect x="240.332" y="134.471" width="13.1317" height="2.43179" fill="#E2EEFC"/>
<rect x="255.896" y="134.471" width="13.1317" height="2.43179" fill="#E2EEFC"/>
<rect x="224.606" y="138.849" width="13.1317" height="2.43179" fill="#E2EEFC"/>
<rect x="240.494" y="138.849" width="13.1317" height="2.43179" fill="#E2EEFC"/>
<rect x="256.058" y="138.849" width="13.1317" height="2.43179" fill="#E2EEFC"/>
<rect x="224.769" y="143.226" width="13.1317" height="2.43179" fill="#E2EEFC"/>
<rect x="240.656" y="143.226" width="13.1317" height="2.43179" fill="#E2EEFC"/>
<rect x="256.22" y="143.226" width="13.1317" height="2.43179" fill="#E2EEFC"/>
<rect x="224.769" y="147.603" width="13.1317" height="2.43179" fill="#E2EEFC"/>
<rect x="240.656" y="147.603" width="13.1317" height="2.43179" fill="#E2EEFC"/>
<rect x="256.22" y="147.603" width="13.1317" height="2.43179" fill="#E2EEFC"/>
<rect x="224.769" y="154.274" width="44.5828" height="16.2119" fill="#E2EEFC"/>
<rect x="258.778" y="108.005" width="16.5362" height="78.1658" fill="#CCDEFF"/>
<rect x="273.75" y="115.163" width="4.86358" height="71.0082" fill="#CCDEFF"/>
<rect x="34.6562" y="145.155" width="25.6148" height="41.1783" fill="#CCDEFF"/>
<rect x="37.3428" y="149.223" width="19.049" height="3.72874" fill="#E2EEFC"/>
<rect x="37.3428" y="155.449" width="19.049" height="3.72874" fill="#E2EEFC"/>
<rect x="37.3523" y="161.678" width="19.049" height="3.72874" fill="#E2EEFC"/>
<rect x="37.3523" y="167.779" width="19.049" height="3.72874" fill="#E2EEFC"/>
<rect x="53.3179" y="132.023" width="25.6148" height="54.3099" fill="#CCDEFF"/>
<rect x="76.501" y="142.723" width="57.2459" height="43.6101" fill="#CCDEFF"/>
<rect x="20.3899" y="162.177" width="14.2665" height="24.1558" fill="#CCDEFF"/>
<rect x="86.0061" y="122.275" width="1" height="20.4497" fill="#CCDEFF"/>
<rect x="91.4661" y="126.981" width="1" height="15.7418" fill="#CCDEFF"/>
<rect x="81.0469" y="119.01" width="1.13483" height="23.7132" fill="#CCDEFF"/>
<rect x="37.6653" y="139.254" width="4.70146" height="5.90276" fill="#CCDEFF"/>
<rect x="55.2634" y="125.646" width="10.2135" height="6.37777" fill="#CCDEFF"/>
<rect x="70.0325" y="119.01" width="4.37722" height="13.0133" fill="#CCDEFF"/>
<rect x="44.9314" y="130.867" width="3.89086" height="14.2892" fill="#CCDEFF"/>
<rect x="22.1748" y="164.528" width="3.8098" height="3.8098" fill="#E2EEFC"/>
<rect x="28.4165" y="164.528" width="3.8098" height="3.8098" fill="#E2EEFC"/>
<rect x="22.1748" y="170.932" width="3.8098" height="3.8098" fill="#E2EEFC"/>
<rect x="28.4165" y="170.932" width="3.8098" height="3.8098" fill="#E2EEFC"/>
<rect x="22.1748" y="177.336" width="3.8098" height="3.8098" fill="#E2EEFC"/>
<rect x="28.4165" y="177.336" width="3.8098" height="3.8098" fill="#E2EEFC"/>
<rect x="56.4014" y="135.475" width="1.45907" height="49.1221" fill="#E2EEFC"/>
<rect x="62.8862" y="135.475" width="1.45907" height="49.1221" fill="#E2EEFC"/>
<rect x="68.7241" y="135.475" width="1.45907" height="49.1221" fill="#E2EEFC"/>
<rect x="74.8862" y="135.475" width="1.45907" height="49.1221" fill="#E2EEFC"/>
<rect x="194.683" y="166.32" width="26.2633" height="19.9909" fill="#CCDEFF"/>
<rect x="244.622" y="181.264" width="0.972715" height="0.972715" fill="#CCDEFF"/>
<rect x="0.637207" y="186.333" width="284.994" height="9.72715" fill="#1A1A35"/>
<path d="M210.569 16.4292C210.569 7.35052 217.733 0 226.571 0C235.41 0 242.574 7.35535 242.574 16.4292C242.574 25.503 227.225 42.0991 227.225 42.0991C227.225 42.0991 210.569 25.503 210.569 16.4292Z" fill="#F75C3D"/>
<circle cx="226.571" cy="16.4471" r="8.67176" fill="#1A1A35"/>
<path d="M63.4033 68.7902V170.671H230.548V118.631C229.223 118.749 227.897 118.828 226.568 118.866L225.613 118.887C218.571 119.005 211.555 117.994 204.833 115.892C204.809 115.802 204.786 115.709 204.76 115.62L203.358 110.354L203.22 109.836C204.184 109.035 205.184 108.278 206.219 107.566C211.423 102.62 218.461 99.7113 225.625 99.2979C225.949 99.28 226.262 99.2671 226.58 99.259H226.914C228.131 99.2384 229.349 99.2925 230.56 99.421V68.7805L63.4033 68.7902Z" fill="#38385C"/>
<path d="M52.4829 170.671V172.811C52.4829 181.618 59.6222 188.757 68.429 188.757H225.247C234.054 188.757 241.193 181.618 241.193 172.811V170.671H52.4829Z" fill="#1A1A35"/>
<path d="M67.3833 77.3291V167.488H226.571V118.867L225.617 118.888C218.573 119.007 211.556 117.996 204.833 115.894C204.809 115.803 204.786 115.711 204.76 115.622L203.358 110.356L203.22 109.837C204.184 109.036 205.184 108.28 206.219 107.568C211.423 102.621 218.461 99.713 225.625 99.2996C225.949 99.2817 226.262 99.2687 226.58 99.2606V77.3291H67.3833Z" fill="#1A1A35"/>
<path d="M205.828 107.684C204.794 108.394 203.794 109.15 202.829 109.954L202.967 110.473L204.369 115.739C204.395 115.829 204.419 115.922 204.442 116.011C211.168 118.113 218.187 119.124 225.232 119.005V165.871H68.7207V78.4543H225.232V99.4164C218.07 99.8297 211.032 102.732 205.828 107.684Z" fill="white"/>
<path d="M143.21 119.289C145.01 115.73 148.486 113.32 152.45 112.884L149.036 117.048C150.67 115.045 153.251 113.717 155.821 114.004C158.391 114.291 160.759 116.419 160.92 118.999C161.08 121.578 158.621 124.12 156.071 123.7C151.636 122.975 147.086 123.632 143.038 125.581C143.182 123.288 143.326 120.999 143.21 119.289Z" fill="#FFCBBD"/>
<rect x="203.229" y="94.4182" width="22.3854" height="33.1015" fill="white"/>
<rect x="138.221" y="70.8152" width="17.5105" height="3.50178" fill="#4C231F"/>
<rect x="226.572" y="94.4182" width="3.92004" height="33.1015" fill="#38385C"/>
<rect x="225.234" y="94.4182" width="1.33748" height="33.1015" fill="#1A1A35"/>
<path d="M172.485 36.3778C171.741 38.6775 170.309 40.6932 168.382 42.1525C166.559 42.3016 164.732 42.4157 162.902 42.4946C162.323 41.5363 161.202 41.0493 160.106 41.2803C158.973 41.5211 157.806 41.5622 156.659 41.4019C155.307 41.2209 154.019 40.7134 152.906 39.9233L152.775 39.8359C152.202 39.4846 151.493 39.436 150.877 39.7054C150.261 39.975 149.816 40.5286 149.685 41.1879C149.665 41.282 149.648 41.3759 149.633 41.47C149.584 41.7229 149.544 41.9775 149.51 42.2336C149.497 42.3195 149.485 42.407 149.474 42.4946C149.083 45.5924 149.514 48.7385 150.724 51.617C149.427 51.1534 148.508 50.0348 147.548 49.0523C146.589 48.0699 145.39 47.1231 144.019 47.1798C142.647 47.2366 141.812 49.7252 141.587 51.549C139.353 49.7737 138.051 46.7826 137.664 43.6051C137.495 42.225 137.499 40.8292 137.675 39.4501C138.791 34.3351 143.374 30.1897 149.275 29.5024C155.263 28.8053 160.746 31.8871 162.945 36.728C165.35 36.3378 167.788 36.1749 170.224 36.2416C169.554 37.3694 168.619 38.3157 167.499 38.9977C169.33 38.889 171.055 37.8466 172.088 36.3421C172.221 36.3552 172.354 36.3649 172.485 36.3778Z" fill="#38385C"/>
<path d="M156.632 65.2822C153.127 66.93 149.116 67.1383 145.46 65.8626C146.418 64.5559 147.496 63.3173 148.107 61.8209C148.315 61.3115 148.461 60.7793 148.542 60.2354C148.752 58.7909 148.546 57.3163 147.948 55.9846C148.234 55.9916 148.52 56.015 148.803 56.0543C150.631 57.6755 152.46 59.2968 154.287 60.918L154.419 61.0347C154.703 62.6442 155.475 64.1272 156.632 65.2822Z" fill="#FFCBBD"/>
<path d="M160.25 59.1604C159.335 59.2548 158.411 59.1955 157.515 58.9853C156.486 58.7383 155.481 58.403 154.51 57.9834C154.211 57.8601 153.915 57.7337 153.621 57.6072C152.07 56.9425 150.455 56.2633 148.8 56.0461C148.516 56.0067 148.231 55.9834 147.945 55.9763C147.629 55.9652 147.312 55.9761 146.997 56.0088C144.818 56.2357 142.574 54.8236 141.838 52.7663C141.7 52.3764 141.615 51.9696 141.587 51.557C141.812 49.7332 142.644 47.2413 144.019 47.1797C145.394 47.1181 146.59 48.0681 147.55 49.0538C148.51 50.0395 149.432 51.1613 150.724 51.6186C149.343 48.3242 148.981 44.6915 149.685 41.1894C149.821 40.5022 150.297 39.9314 150.949 39.6754C151.601 39.4195 152.339 39.5136 152.906 39.9249C154.929 41.384 157.587 41.8071 160.106 41.2802C161.328 41.0213 162.563 41.6585 163.06 42.8041C163.222 43.1802 163.384 43.5531 163.514 43.9065C163.867 47.4991 164.22 51.0923 164.572 54.6858C164.789 56.9718 162.538 58.8912 160.25 59.1604Z" fill="#FFCBBD"/>
<path d="M154.402 60.9244C154.402 60.9584 154.414 60.9925 154.418 61.0265L154.287 60.9098L148.803 56.0461C150.456 56.2634 152.071 56.9427 153.624 57.6074C153.917 57.7338 154.213 57.8593 154.513 57.9835C154.326 58.7797 154.267 59.6007 154.339 60.4153C154.354 60.5883 154.375 60.7579 154.402 60.9244Z" fill="#EA5C46"/>
<path d="M98.567 126.297C97.9531 126.825 97.3538 127.372 96.769 127.938C97.3389 127.36 97.9391 126.812 98.567 126.297Z" stroke="#4A4540"/>
<path d="M98.567 126.297C97.9531 126.825 97.3538 127.372 96.769 127.938C97.3389 127.36 97.9391 126.812 98.567 126.297Z" stroke="#4A4540"/>
<path d="M154.414 61.0264L154.282 60.9097L154.397 60.9243C154.414 60.9583 154.414 60.9924 154.414 61.0264Z" fill="#EB624D"/>
<path d="M161.784 67.461C161.115 68.06 160.392 68.5961 159.624 69.0627C157.049 70.601 154.111 71.4236 151.111 71.4459C148.52 71.4926 145.951 70.9597 143.592 69.8863C143.129 69.6702 142.677 69.4345 142.237 69.1795C141.205 68.5806 140.25 67.8587 139.392 67.0298C139.659 66.6147 139.928 66.1997 140.23 65.7847C140.713 65.1094 141.271 64.491 141.893 63.9414C142.976 64.7604 144.179 65.4064 145.46 65.8561C149.116 67.1318 153.127 66.9234 156.632 65.2756C157.634 64.7964 158.57 64.1905 159.418 63.4729L160.034 64.5105C160.617 65.4929 161.2 66.4764 161.784 67.461Z" fill="#38385C"/>
<path d="M121.196 116.147C120.894 116.688 120.574 117.217 120.234 117.736C120.155 117.859 120.072 117.982 119.993 118.106C120.056 117.984 120.119 117.864 120.181 117.742C120.443 117.23 120.69 116.711 120.925 116.188C126.474 103.704 124.029 87.9578 115.502 77.7654C125.639 87.3417 127.972 104.038 121.196 116.147Z" fill="#E44531"/>
<path d="M121.195 116.147C120.894 116.687 120.573 117.217 120.234 117.736H120.179C119.626 117.799 119.073 117.87 118.522 117.953C110.982 119.07 103.46 122.257 98.5669 126.294C104.849 120.887 112.72 117.438 120.922 116.182C121.017 116.171 121.103 116.157 121.195 116.147Z" fill="#E44531"/>
<path d="M198.593 97.1384C194.901 99.6934 192.282 103.566 190.519 107.696C188.757 111.825 187.784 116.239 186.577 119.767C185.703 110.76 190.641 101.457 198.593 97.1384Z" fill="#E44531"/>
<path d="M198.593 97.1384C194.901 99.6934 192.282 103.566 190.519 107.696C188.757 111.825 187.784 116.239 186.577 119.767C185.703 110.76 190.641 101.457 198.593 97.1384Z" fill="#E44531"/>
<path d="M192.742 162.683V165.752H108.593V163.029C108.653 162.756 108.711 162.484 108.771 162.218C109.614 158.341 110.457 154.465 111.301 150.589C124.098 147.963 136.051 141.154 144.619 131.265C145.15 130.652 145.669 130.027 146.175 129.391C145.98 128.542 145.786 127.694 145.591 126.845C145.917 126.84 146.235 126.751 146.515 126.586L147.675 125.89C147.566 127.891 147.412 129.887 147.211 131.877C146.719 136.737 145.962 141.567 144.941 146.343C155.837 144.646 166.733 143.407 177.631 142.172C177.77 138.465 177.917 134.736 178.07 130.986C178.099 130.311 178.125 129.639 178.155 128.963L178.362 128.982C178.583 129.378 178.808 129.772 179.033 130.166C179.487 130.96 179.951 131.751 180.424 132.541C182.856 136.606 187.491 139.226 192.215 139.349L192.731 162.218C192.736 162.369 192.739 162.528 192.742 162.683Z" fill="#E44531"/>
<path d="M178.169 128.642C178.169 128.749 178.159 128.856 178.156 128.966" stroke="#4A4540"/>
<path d="M178.362 128.982C178.292 128.982 178.224 128.969 178.155 128.963C178.155 128.856 178.164 128.749 178.167 128.638L178.362 128.982Z" stroke="#4A4540"/>
<path d="M226.242 66.477L219.377 62.3641L217.071 60.9844L197.455 95.6779C195.295 86.677 190.709 77.9971 183.72 72.0636C179.482 68.4678 174.842 66.2598 169.813 65.2011C166.595 64.5472 163.306 64.3108 160.028 64.4975C160.612 65.481 161.195 66.4651 161.779 67.4496C161.11 68.0486 160.387 68.5848 159.619 69.0514C157.045 70.5896 154.106 71.4123 151.107 71.4346C148.515 71.4813 145.946 70.9484 143.587 69.875C143.124 69.6588 142.672 69.4232 142.232 69.1682C141.2 68.5693 140.245 67.8474 139.387 67.0184C139.655 66.6035 139.924 66.1884 140.225 65.7734C136.063 65.9191 131.921 66.412 127.841 67.2471C122.569 68.3333 117.405 69.8849 112.407 71.8836C107.377 73.8789 103.49 77.9993 101.79 83.1364C96.1773 100.053 90.5642 116.971 84.9507 133.891C82.313 141.835 88.9193 151.4 97.2863 151.724C101.985 151.908 106.689 151.521 111.295 150.57C124.098 147.963 136.051 141.154 144.618 131.278C145.15 130.665 145.669 130.04 146.175 129.404C145.98 128.555 145.786 127.707 145.591 126.858C145.155 124.949 144.722 123.039 144.307 121.127C144.268 120.874 144.228 120.622 144.189 120.369C144.137 119.861 144.079 119.368 144.027 118.876C144.037 118.854 144.048 118.837 144.058 118.817H144.019C140.575 118.386 137.114 117.958 133.643 117.682C129.162 117.332 124.678 117.245 120.231 117.746C120.152 117.869 120.069 117.992 119.989 118.115C120.053 117.994 120.116 117.874 120.178 117.752C119.625 117.815 119.072 117.887 118.521 117.969C110.98 119.086 103.458 122.273 98.5653 126.31C97.9515 126.838 97.3522 127.385 96.7675 127.951C97.337 127.372 97.9372 126.825 98.5653 126.31C104.848 120.904 112.718 117.454 120.92 116.199C126.469 103.716 124.025 87.9692 115.497 77.7767C125.636 87.3418 127.969 104.04 121.192 116.155C125.22 115.557 129.309 115.503 133.351 115.993C137.008 116.433 140.591 117.352 144.007 118.726L144.089 118.759C144.965 117.13 146.24 115.749 147.793 114.745C147.594 108.767 146.966 102.811 145.912 96.9229L164.128 93.5817L174.567 91.667L179.886 90.6943C179.662 95.4758 179.44 100.254 179.218 105.029C178.853 112.945 178.498 120.834 178.171 128.646C178.234 128.762 178.299 128.872 178.364 128.987C178.584 129.382 178.81 129.776 179.035 130.17C179.489 130.965 179.952 131.756 180.426 132.545C182.858 136.611 187.493 139.231 192.217 139.354C192.764 139.368 193.312 139.347 193.857 139.293C199.117 138.761 203.909 134.99 205.671 130.003L227.729 67.3735C227.231 67.0655 226.738 66.772 226.242 66.477ZM190.519 107.694C188.756 111.822 187.784 116.238 186.577 119.766C185.701 110.76 190.643 101.458 198.593 97.1369C194.901 99.6935 192.28 103.565 190.519 107.694Z" fill="#F75C3D"/>
<rect x="131.174" y="89.78" width="63.2265" height="57.3902" fill="#FEBE3D"/>
<rect x="131.174" y="89.78" width="15.424" height="57.3902" fill="#F8A23A"/>
<rect x="179.601" y="94.7036" width="12.916" height="5.3094" fill="white"/>
<rect x="179.808" y="102.805" width="12.916" height="5.3094" fill="white"/>
<path d="M144.087 118.749C144.076 118.768 144.066 118.788 144.056 118.807H144.017C140.574 118.376 137.113 117.948 133.642 117.673C129.161 117.322 124.677 117.235 120.229 117.736C120.57 117.215 120.888 116.687 121.191 116.147C125.218 115.549 129.308 115.495 133.35 115.985C137.006 116.425 140.589 117.344 144.006 118.718L144.087 118.749Z" fill="#E44531"/>
<path d="M235.579 61.4643C232.298 62.7992 229.168 64.479 226.242 66.4754L219.376 62.364C219.511 57.9672 220.431 53.6298 222.092 49.5567C222.46 48.6569 224.049 48.7379 224.321 49.6733C224.977 51.9426 225.143 54.3256 224.807 56.6639C227.259 53.2519 229.711 49.8404 232.165 46.4293C232.613 45.8091 233.43 45.5796 234.136 45.8755C234.842 46.1714 235.251 46.9148 235.123 47.6695C234.838 49.3231 235.434 50.993 236.114 52.5332C236.793 54.0733 237.573 55.602 237.715 57.2735C237.858 58.945 237.132 60.8336 235.579 61.4643Z" fill="#FFCBBD"/>
<path d="M108.593 162.213H108.771C108.711 162.485 108.653 162.758 108.593 163.024V162.213Z" stroke="#4A4540"/>
<path d="M192.742 162.213V162.685C192.742 162.523 192.742 162.37 192.731 162.213H192.742Z" stroke="#4A4540"/>
<path d="M161.208 45.7126C161.685 45.7126 162.073 46.554 162.073 47.5933C162.073 48.6324 161.685 49.4738 161.208 49.4738C160.732 49.4738 160.344 48.6324 160.344 47.5933C160.344 46.554 160.737 45.7126 161.208 45.7126Z" fill="#1A1A35"/>
<path d="M156.716 45.9282C157.261 45.9282 157.703 46.7697 157.703 47.8088C157.703 48.848 157.261 49.6894 156.716 49.6894C156.171 49.6894 155.729 48.848 155.729 47.8088C155.729 46.7697 156.171 45.9282 156.716 45.9282Z" fill="#1A1A35"/>
<path d="M159.877 43.871C160.023 43.2647 160.688 42.8724 161.315 42.9356C161.943 42.9989 162.474 43.4415 162.774 43.9862C163.055 44.5471 163.194 45.1683 163.178 45.7954C162.627 44.3995 161.046 43.4885 159.877 43.871Z" fill="#1A1A35"/>
<path d="M156.216 42.9177C154.829 42.7682 153.453 43.2861 152.509 44.3134C151.565 45.3405 151.164 46.755 151.429 48.1249C152.128 45.6769 154.115 43.6359 156.216 42.9177Z" fill="#1A1A35"/>
<path d="M159.219 47.2756C159.248 48.4969 159.278 49.7183 159.308 50.9395C159.451 50.5048 159.711 50.1178 160.059 49.8209C160.42 49.5453 160.943 49.4399 161.338 49.6588C161.734 49.8776 161.897 50.4824 161.594 50.8212L159.988 52.6158L161.049 50.7012C161.165 50.4799 161.108 50.208 160.915 50.0508C160.721 49.8936 160.443 49.8944 160.25 50.0528L158.747 51.3335C158.888 50.09 159.031 48.8482 159.219 47.2756Z" fill="#EA5C46"/>
<path d="M154.252 52.9448C156.271 54.2391 158.767 54.5519 161.043 53.7959C160.131 54.6403 158.872 55.0013 157.651 54.7687C156.46 54.5238 155.401 53.6759 154.252 52.9448Z" fill="#EA5C46"/>
<path d="M154.226 126.471C151.106 126.143 147.959 126.161 144.844 126.524L141.527 120.241C143.64 116.746 146.325 113.63 149.471 111.026C150.163 110.453 151.33 111.202 151.106 112.078C150.561 114.208 149.596 116.207 148.268 117.96L158.549 112.82C159.153 112.521 159.884 112.686 160.3 113.216C160.683 113.794 160.652 114.552 160.222 115.097C159.25 116.316 158.925 117.925 158.741 119.462C158.556 120.999 158.442 122.581 157.768 124.002C157.094 125.422 155.693 126.625 154.226 126.471Z" fill="#FFCBBD"/>
<path d="M127.178 117.522L143.771 117.068C143.02 118.755 144.007 120.659 144.842 122.308C145.677 123.956 146.317 126.13 145.08 127.495L130.511 143.636C128.961 145.354 125.587 144.558 124.966 142.329C123.751 137.962 122.523 133.51 122.682 128.98C122.841 124.451 124.602 119.754 127.178 117.522Z" fill="#F75C3D"/>
<circle cx="68.7208" cy="59.2076" r="33.7743" fill="#CCDEFF"/>
<circle cx="68.7208" cy="59.2074" r="28.8961" fill="#E2EEFC"/>
<circle cx="68.7209" cy="59.2075" r="3.08027" fill="#CCDEFF"/>
<path d="M68.0496 54.524V35.3939C68.0496 34.9462 68.4125 34.5833 68.8602 34.5833C69.3079 34.5833 69.6708 34.9462 69.6708 35.3939V54.524C69.6708 54.9716 69.3079 55.3345 68.8602 55.3345C68.4125 55.3345 68.0496 54.9716 68.0496 54.524Z" fill="#CCDEFF"/>
<path d="M63.9968 60.0182H44.8667C44.419 60.0182 44.0562 59.6553 44.0562 59.2076C44.0562 58.7599 44.419 58.397 44.8667 58.397H63.9968C64.4445 58.397 64.8074 58.7599 64.8074 59.2076C64.8074 59.6553 64.4445 60.0182 63.9968 60.0182Z" fill="#CCDEFF"/>
<path d="M163.928 40.5557L156.659 41.4019L149.51 42.2336L148.122 42.3958L137.665 43.6132L137.55 43.6262C137.527 43.4819 137.508 43.3361 137.49 43.1918C137.344 41.9471 137.407 40.6869 137.676 39.463C138.792 34.3481 143.375 30.2028 149.276 29.5153C155.265 28.8182 160.748 31.9001 162.946 36.741C163.433 37.8131 163.751 38.9546 163.886 40.1245C163.904 40.2639 163.917 40.4098 163.928 40.5557Z" fill="#F75C3D"/>
<path d="M177.508 39.1094C177.459 40.2474 176.618 41.1951 175.494 41.3792C173.133 41.7034 170.762 41.9622 168.382 42.1556C166.559 42.3049 164.732 42.4188 162.902 42.4977C158.438 42.6939 153.955 42.6858 149.474 42.4977C149.006 42.4783 148.535 42.4572 148.067 42.4329L148.122 42.3972C148.618 42.073 149.122 41.7666 149.633 41.4731C150.654 40.8766 151.702 40.3318 152.775 39.8389C158.239 37.3196 164.21 36.092 170.225 36.2513C170.848 36.2675 171.469 36.2993 172.09 36.3469C172.221 36.3583 172.354 36.368 172.485 36.381C173.52 36.4697 174.546 36.602 175.566 36.7782C176.684 36.997 177.494 37.9704 177.508 39.1094Z" fill="#E44531"/>
<path d="M169.551 125.801L172.999 135.567C177.341 129.044 184.571 124.128 192.731 122.158L169.52 142.91C169.565 137.364 169.609 131.817 169.551 125.801Z" fill="#F75C3D"/>
</svg>
