<svg width="28" height="22" viewBox="0 0 28 22" fill="none" xmlns="http://www.w3.org/2000/svg">
<path d="M24.6944 2.29167C25.1146 2.29167 25.4583 2.63542 25.4583 3.05556V18.3333C25.4583 18.7535 25.1146 19.0972 24.6944 19.0972H3.30556C2.88542 19.0972 2.54167 18.7535 2.54167 18.3333V3.05556C2.54167 2.63542 2.88542 2.29167 3.30556 2.29167H24.6944ZM3.30556 0C1.62023 0 0.25 1.37023 0.25 3.05556V18.3333C0.25 20.0187 1.62023 21.3889 3.30556 21.3889H24.6944C26.3798 21.3889 27.75 20.0187 27.75 18.3333V3.05556C27.75 1.37023 26.3798 0 24.6944 0H3.30556ZM10.1806 10.6944C11.8681 10.6944 13.2361 9.32643 13.2361 7.63889C13.2361 5.95135 11.8681 4.58333 10.1806 4.58333C8.49302 4.58333 7.125 5.95135 7.125 7.63889C7.125 9.32643 8.49302 10.6944 10.1806 10.6944ZM8.65278 12.2222C6.54253 12.2222 4.83333 13.9314 4.83333 16.0417C4.83333 16.4618 5.17708 16.8056 5.59722 16.8056H14.7639C15.184 16.8056 15.5278 16.4618 15.5278 16.0417C15.5278 13.9314 13.8186 12.2222 11.7083 12.2222H8.65278ZM18.2014 5.34722C17.5664 5.34722 17.0556 5.85807 17.0556 6.49306C17.0556 7.12804 17.5664 7.63889 18.2014 7.63889H22.0208C22.6558 7.63889 23.1667 7.12804 23.1667 6.49306C23.1667 5.85807 22.6558 5.34722 22.0208 5.34722H18.2014ZM18.2014 9.93056C17.5664 9.93056 17.0556 10.4414 17.0556 11.0764C17.0556 11.7114 17.5664 12.2222 18.2014 12.2222H22.0208C22.6558 12.2222 23.1667 11.7114 23.1667 11.0764C23.1667 10.4414 22.6558 9.93056 22.0208 9.93056H18.2014Z" fill="black"/>
</svg>
