<svg width="21" height="19" viewBox="0 0 21 19" fill="none" xmlns="http://www.w3.org/2000/svg">
<path d="M6.42838 11.0745H5.78554C4.36527 11.0745 3.21419 12.2276 3.21419 13.6506V16.2123C3.21419 17.635 4.36527 18.7885 5.78554 18.7885H6.42838C7.13831 18.7885 7.71405 18.2116 7.71405 17.5004V12.3626C7.71405 11.651 7.13831 11.0745 6.42838 11.0745ZM14.7853 11.0745H14.1424C13.4325 11.0745 12.8568 11.651 12.8568 12.3626V17.5004C12.8568 18.2116 13.4325 18.7885 14.1424 18.7885H14.7853C16.2055 18.7885 17.3566 17.635 17.3566 16.2123V13.6506C17.3566 12.228 16.2055 11.0745 14.7853 11.0745ZM10.2854 0.789062C4.53642 0.789062 0.18361 5.57539 0 11.0745V15.5743C0 15.9295 0.28767 16.2172 0.642838 16.2172H1.28568C1.64084 16.2172 1.92851 15.9295 1.92851 15.5743V11.0745C1.92851 6.46733 5.67827 2.72561 10.2854 2.72481C14.8925 2.72561 18.6423 6.46733 18.6423 11.0745V15.5743C18.6423 15.9295 18.93 16.2172 19.2851 16.2172H19.928C20.2831 16.2172 20.5708 15.9295 20.5708 15.5743V11.0745C20.3872 5.57539 16.0344 0.789062 10.2854 0.789062Z" fill="#172A42"/>
</svg>
