<svg width="23" height="18" viewBox="0 0 23 18" fill="none" xmlns="http://www.w3.org/2000/svg">
<path d="M10.6374 17.8181C10.3312 17.8176 10.0553 17.633 9.93809 17.35C9.8209 17.0671 9.88546 16.7414 10.1017 16.5246L10.2358 16.3905C10.3098 16.3165 10.4297 16.3165 10.5037 16.3904C10.5777 16.4644 10.5777 16.5844 10.5037 16.6583L10.3696 16.7924C10.2217 16.9404 10.2217 17.1802 10.3696 17.3282C10.5196 17.4711 10.7553 17.4711 10.9053 17.3282L11.0394 17.1941C11.1134 17.1201 11.2333 17.1201 11.3073 17.194C11.3813 17.268 11.3813 17.388 11.3073 17.4619L11.1732 17.596C11.0315 17.7388 10.8385 17.8187 10.6374 17.8181Z" fill="#172A42"/>
<path d="M9.83344 17.014C9.63248 17.0143 9.43968 16.9346 9.29771 16.7923C9.1551 16.6506 9.07514 16.4577 9.07569 16.2566C9.07569 16.0539 9.15449 15.8637 9.29771 15.7209L9.43145 15.5868C9.50541 15.5128 9.62536 15.5128 9.69934 15.5867C9.77332 15.6607 9.77332 15.7807 9.69934 15.8546L9.56519 15.9887C9.49378 16.0595 9.45379 16.156 9.45418 16.2566C9.45418 16.3578 9.49359 16.4529 9.56519 16.5245C9.71539 16.6672 9.95111 16.6672 10.1013 16.5245L10.2354 16.3904C10.3094 16.3163 10.4293 16.3163 10.5033 16.3903C10.5773 16.4643 10.5773 16.5843 10.5033 16.6582L10.3692 16.7923C10.2214 16.9397 10.0274 17.014 9.83344 17.014Z" fill="#172A42"/>
<path d="M9.02977 16.2098C8.82886 16.2103 8.63605 16.1306 8.49404 15.9885C8.1986 15.6923 8.1986 15.2129 8.49404 14.9167L8.62816 14.7826C8.70213 14.7086 8.82207 14.7086 8.89605 14.7825C8.97003 14.8565 8.97003 14.9765 8.89605 15.0504L8.76191 15.1845C8.61416 15.3327 8.61416 15.5725 8.76191 15.7207C8.91033 15.8678 9.14959 15.8678 9.29801 15.7207L9.43176 15.5865C9.50572 15.5125 9.62566 15.5125 9.69964 15.5865C9.77362 15.6605 9.77362 15.7804 9.69964 15.8544L9.5655 15.9885C9.42342 16.1305 9.23065 16.2101 9.02977 16.2098Z" fill="#172A42"/>
<path d="M8.22591 15.4065C7.91982 15.4059 7.64412 15.2213 7.52696 14.9386C7.40981 14.6558 7.47419 14.3303 7.69018 14.1134L7.8243 13.9793C7.89826 13.9053 8.01821 13.9053 8.09219 13.9793C8.16617 14.0532 8.16617 14.1732 8.09219 14.2472L7.95805 14.3813C7.81011 14.5293 7.81019 14.7693 7.95823 14.9172C8.10628 15.0651 8.34621 15.065 8.49415 14.917L8.62827 14.7829C8.70223 14.7089 8.82218 14.7089 8.89616 14.7829C8.97014 14.8568 8.97014 14.9768 8.89616 15.0508L8.76202 15.1849C8.61979 15.3269 8.42694 15.4067 8.22591 15.4065ZM5.27902 11.6234C5.22874 11.6234 5.18052 11.6035 5.14488 11.5681L1.52816 7.95139C1.45416 7.87743 1.45416 7.75748 1.52814 7.6835C1.60212 7.60952 1.72206 7.60952 1.79604 7.6835L5.27864 11.1661L8.49339 7.95139L5.01078 4.46839C4.93678 4.39443 4.93678 4.27449 5.01076 4.2005C5.08474 4.12652 5.20468 4.12652 5.27866 4.2005L8.89538 7.81726C8.93101 7.8528 8.95104 7.90106 8.95104 7.95139C8.95104 8.00171 8.93101 8.04997 8.89538 8.08551L5.41276 11.5681C5.37731 11.6036 5.32918 11.6235 5.27902 11.6234Z" fill="#172A42"/>
<path d="M3.6722 10.0162C3.62192 10.0162 3.5737 9.99635 3.53807 9.96091L0.055465 6.47831C-0.0184883 6.40433 -0.0184883 6.28442 0.055465 6.21044L3.53808 2.72783C3.61206 2.65387 3.73197 2.65387 3.80595 2.72783L7.28857 6.21044C7.36252 6.28442 7.36252 6.40433 7.28857 6.47831L3.80595 9.96093C3.77049 9.99641 3.72237 10.0163 3.6722 10.0162ZM0.457072 6.34419L3.67183 9.55894L6.88696 6.34419L3.6722 3.12944L0.457072 6.34419ZM6.34555 12.1539C6.29526 12.1539 6.24705 12.134 6.21141 12.0985L5.40783 11.2949C5.33388 11.221 5.33388 11.1011 5.40783 11.0271L8.35472 8.08019C8.42869 8.00624 8.54861 8.00624 8.62259 8.08019L9.42656 8.88379C9.46219 8.91932 9.48221 8.96758 9.48221 9.01791C9.48221 9.06823 9.46219 9.11649 9.42656 9.15203L6.47967 12.0989C6.44389 12.1341 6.39573 12.1538 6.34555 12.1539ZM5.80982 11.1608L6.34555 11.6966L9.02457 9.01753L8.48846 8.4818L5.80982 11.1608Z" fill="#172A42"/>
<path d="M10.6374 16.9817C10.5871 16.9817 10.5389 16.9618 10.5032 16.9264L6.21705 12.6398C5.99536 12.4177 5.99536 12.058 6.21705 11.8359L9.16394 8.88896C9.23791 8.81501 9.35783 8.81501 9.4318 8.88896L9.91222 9.36937H10.9056C10.956 9.36937 11.0041 9.38946 11.0397 9.42469L11.3076 9.69293C11.3816 9.76689 11.3816 9.88684 11.3076 9.96082C11.2337 10.0348 11.1137 10.0348 11.0397 9.96082L10.8272 9.74787H9.83379C9.78351 9.74796 9.73526 9.72806 9.69967 9.69256L9.29768 9.29056L6.48453 12.1033C6.41074 12.1775 6.41074 12.2974 6.48453 12.3716L10.7711 16.6578C10.8257 16.7119 10.8421 16.7936 10.8128 16.8646C10.7835 16.9356 10.7142 16.9819 10.6374 16.9817Z" fill="#172A42"/>
<path d="M11.7089 17.8174C11.508 17.8177 11.3152 17.738 11.1732 17.5958L10.2298 16.6527C10.1558 16.5788 10.1558 16.4588 10.2298 16.3848C10.3038 16.3109 10.4237 16.3109 10.4977 16.3848L11.4411 17.3279C11.589 17.4759 11.829 17.476 11.977 17.3281C12.125 17.1801 12.1251 16.9402 11.9772 16.7922L11.0338 15.8488C10.9598 15.7748 10.9598 15.6549 11.0338 15.5809C11.1077 15.5069 11.2277 15.5069 11.3017 15.5809L12.245 16.5243C12.4627 16.7407 12.528 17.0671 12.4105 17.3506C12.2929 17.634 12.0158 17.8185 11.7089 17.8174Z" fill="#172A42"/>
<path d="M12.5125 17.0146C12.3114 17.0152 12.1184 16.9353 11.9767 16.7925L10.7655 15.5813C10.6915 15.5073 10.6915 15.3874 10.7654 15.3134C10.8394 15.2394 10.9594 15.2394 11.0333 15.3134L12.2446 16.5247C12.3946 16.6676 12.6303 16.6676 12.7803 16.5247C12.8516 16.4538 12.8916 16.3573 12.8913 16.2568C12.8917 16.1563 12.8519 16.0599 12.7807 15.9889L11.8373 15.0455C11.7633 14.9716 11.7633 14.8516 11.8373 14.7777C11.9113 14.7037 12.0312 14.7037 12.1052 14.7777L13.0486 15.7211C13.1918 15.8639 13.2706 16.0541 13.2706 16.2568C13.2706 16.4591 13.1918 16.6493 13.0486 16.7925C12.9053 16.9357 12.7148 17.0146 12.5125 17.0146Z" fill="#172A42"/>
<path d="M13.3162 16.2101C13.1153 16.2106 12.9224 16.1309 12.7804 15.9888L11.5692 14.7776C11.4952 14.7036 11.4952 14.5836 11.5691 14.5097C11.6431 14.4357 11.7631 14.4357 11.8371 14.5097L13.0483 15.7209C13.1961 15.8687 13.4363 15.868 13.5844 15.7209C13.7317 15.5726 13.7317 15.3332 13.5844 15.1848L12.641 14.2418C12.567 14.1679 12.567 14.0479 12.641 13.9739C12.715 13.9 12.8349 13.9 12.9089 13.9739L13.8523 14.917C14.1474 15.2125 14.1474 15.6933 13.8523 15.9888C13.7045 16.1362 13.5102 16.2101 13.3162 16.2101Z" fill="#172A42"/>
<path d="M14.1202 15.4066C13.9191 15.4073 13.7261 15.3273 13.5844 15.1846L12.3732 13.9737C12.2992 13.8997 12.2992 13.7798 12.3732 13.7058C12.4472 13.6318 12.5671 13.6318 12.6411 13.7058L13.8523 14.9167C14.0022 15.06 14.2382 15.06 14.388 14.9167C14.4597 14.8451 14.4991 14.75 14.4991 14.6488C14.4991 14.5477 14.4597 14.4526 14.388 14.381L11.3017 11.2947C11.2277 11.2207 11.2277 11.1008 11.3017 11.0268C11.3757 10.9528 11.4956 10.9528 11.5696 11.0268L14.6559 14.1131C14.7991 14.2563 14.8779 14.4465 14.8779 14.6488C14.8779 14.8512 14.7991 15.0414 14.6559 15.1846C14.5127 15.3278 14.3225 15.4066 14.1202 15.4066ZM5.2708 10.3861C5.12531 10.3861 4.97944 10.3308 4.86881 10.2202C4.65964 9.99611 4.66568 9.64658 4.88248 9.42988C5.09928 9.21318 5.44882 9.2073 5.67279 9.41659C5.83567 9.57892 5.88449 9.82351 5.79641 10.0359C5.70833 10.2484 5.50077 10.3867 5.2708 10.3861ZM5.2708 9.62875C5.20117 9.62564 5.13545 9.66101 5.0997 9.72085C5.06396 9.78069 5.06396 9.85532 5.0997 9.91516C5.13545 9.97499 5.20117 10.0104 5.2708 10.0073C5.37203 10.0027 5.45177 9.91933 5.45177 9.818C5.45177 9.71667 5.37203 9.63329 5.2708 9.62875ZM16.7992 11.891C16.7489 11.891 16.7007 11.8711 16.6651 11.8357L13.1825 8.35308C13.1468 8.31754 13.1268 8.26929 13.1268 8.21896C13.1268 8.16864 13.1468 8.12038 13.1825 8.08484L16.7992 4.4681C16.8732 4.3941 16.9931 4.3941 17.0671 4.46808C17.1411 4.54206 17.1411 4.662 17.0671 4.73599L13.5844 8.21858L16.7992 11.4333L20.2818 7.95072C20.3558 7.87672 20.4757 7.87672 20.5497 7.9507C20.6237 8.02468 20.6237 8.14462 20.5497 8.2186L16.9329 11.8349C16.8977 11.8708 16.8495 11.8911 16.7992 11.891Z" fill="#172A42"/>
<path d="M18.4067 10.2838C18.3564 10.2838 18.3082 10.2639 18.2725 10.2285L14.7899 6.74589C14.716 6.67191 14.716 6.552 14.7899 6.47802L18.2726 2.99541C18.3465 2.92145 18.4664 2.92145 18.5404 2.99541L22.023 6.47802C22.097 6.552 22.097 6.67191 22.023 6.74589L18.5404 10.2285C18.505 10.264 18.4569 10.2839 18.4067 10.2838ZM15.1919 6.61177L18.4067 9.82652L21.6214 6.61177L18.4067 3.39701L15.1919 6.61177ZM15.7333 12.4214C15.6831 12.4214 15.6348 12.4015 15.5992 12.3661L12.6523 9.41923C12.6167 9.38369 12.5967 9.33543 12.5967 9.2851C12.5967 9.23478 12.6167 9.18652 12.6523 9.15098L13.4563 8.34739C13.5303 8.27344 13.6502 8.27344 13.7242 8.34739L16.6711 11.2943C16.745 11.3683 16.745 11.4882 16.6711 11.5621L15.8675 12.3657C15.8319 12.4014 15.7837 12.4214 15.7333 12.4214ZM13.0543 9.2851L15.7333 11.9641L16.2691 11.4284L13.5901 8.74938L13.0543 9.2851Z" fill="#172A42"/>
<path d="M14.3881 14.3024C14.3116 14.3024 14.2426 14.2563 14.2132 14.1856C14.1838 14.1148 14.1999 14.0334 14.254 13.9792L15.5937 12.6399C15.6295 12.6045 15.6496 12.5563 15.6496 12.5059C15.6496 12.4556 15.6295 12.4074 15.5937 12.372L12.7805 9.55887L12.3785 9.96085C12.343 9.99636 12.2947 10.0163 12.2444 10.0162H11.251L9.43128 11.8359C9.35732 11.9099 9.23738 11.9099 9.1634 11.8359C9.08942 11.7619 9.08942 11.642 9.1634 11.568L11.0392 9.69261C11.0748 9.6571 11.1231 9.63721 11.1733 9.6373H12.1668L12.6472 9.15689C12.7223 9.08573 12.8399 9.08573 12.915 9.15689L15.8619 12.1042C15.9691 12.211 16.0283 12.3535 16.0283 12.5058C16.0283 12.6573 15.9691 12.8005 15.8619 12.9081L14.5222 14.2474C14.4865 14.2828 14.4383 14.3025 14.3881 14.3024ZM16.8076 10.6542C16.6621 10.6542 16.5166 10.5989 16.4056 10.4883C16.1848 10.2659 16.1848 9.90701 16.4056 9.68466C16.628 9.46359 16.9872 9.46359 17.2096 9.68466C17.4313 9.9068 17.4313 10.2665 17.2096 10.4886C17.1028 10.5948 16.9582 10.6544 16.8076 10.6542ZM16.6735 10.22C16.7474 10.2941 16.8675 10.2942 16.9415 10.2202C17.0156 10.1462 17.0157 10.0262 16.9417 9.95214C16.8678 9.87807 16.7477 9.87798 16.6737 9.95195C16.5996 10.0259 16.5995 10.1459 16.6735 10.22Z" fill="#172A42"/>
<path d="M10.0958 12.2184C9.74388 12.2194 9.40622 12.0795 9.15806 11.8301C9.08406 11.7561 9.08406 11.6361 9.15804 11.5622C9.23202 11.4882 9.35196 11.4882 9.42595 11.5622C9.78396 11.9202 10.408 11.9202 10.7656 11.5622L11.5692 10.7586C11.6432 10.6846 11.7631 10.6846 11.8371 10.7586C11.9111 10.8326 11.9111 10.9525 11.8371 11.0265L11.0335 11.8301C10.7853 12.0795 10.4477 12.2194 10.0958 12.2184ZM15.3962 6.18179C15.2916 6.18179 15.2068 6.09697 15.2068 5.99235V3.67099L11.0392 1.26475L6.87155 3.67099V5.87149C6.87155 5.97611 6.78674 6.06093 6.68211 6.06093C6.57749 6.06093 6.49268 5.97611 6.49268 5.87149V3.56149C6.49268 3.49367 6.52867 3.43116 6.58739 3.39744L10.9445 0.881707C11.0031 0.848025 11.0752 0.848025 11.1339 0.881707L15.491 3.39744C15.5497 3.43116 15.5857 3.49367 15.5857 3.56149V5.99235C15.5857 6.09697 15.5009 6.18179 15.3962 6.18179Z" fill="#172A42"/>
<path d="M8.96484 5.09219C8.93157 5.0923 8.89887 5.08354 8.87012 5.06681L6.59915 3.7559C6.50854 3.70359 6.47749 3.58773 6.52981 3.49712C6.58212 3.40652 6.69798 3.37548 6.78859 3.42779L9.05956 4.7387C9.1338 4.78157 9.17001 4.86897 9.14782 4.95179C9.12563 5.0346 9.05058 5.09219 8.96484 5.09219ZM13.1128 5.04597C13.027 5.04613 12.9517 4.98861 12.9295 4.90574C12.9072 4.82289 12.9434 4.73539 13.0177 4.69248L15.261 3.39748C15.3516 3.34517 15.4674 3.37621 15.5198 3.46682C15.5721 3.55742 15.541 3.67327 15.4504 3.72559L13.2071 5.02058C13.1785 5.03735 13.1459 5.04612 13.1128 5.04597ZM11.0392 8.65665C10.9346 8.65665 10.8497 8.57183 10.8497 8.46721V3.69566C10.8497 3.59103 10.9346 3.50622 11.0392 3.50622C11.1438 3.50622 11.2286 3.59103 11.2286 3.69566V8.46721C11.2286 8.57183 11.1438 8.65665 11.0392 8.65665Z" fill="#172A42"/>
<path d="M11.3652 6.1672H10.7363C10.2275 6.1672 9.81299 5.75612 9.81299 5.25108C9.81299 4.74604 10.2271 4.33496 10.7363 4.33496H12.0711C12.1757 4.33496 12.2605 4.41977 12.2605 4.52439C12.2605 4.62902 12.1757 4.71383 12.0711 4.71383H10.7363C10.4378 4.71236 10.1944 4.95259 10.1919 5.25108C10.1944 5.54956 10.4378 5.78979 10.7363 5.78832H11.3652C11.4699 5.78832 11.5547 5.87313 11.5547 5.97776C11.5547 6.08238 11.4699 6.1672 11.3652 6.1672Z" fill="#172A42"/>
<path d="M11.3467 7.6162H10.0024C9.8978 7.6162 9.81299 7.53139 9.81299 7.42677C9.81299 7.32214 9.8978 7.23733 10.0024 7.23733H11.3467C11.6367 7.22961 11.8678 6.99228 11.8678 6.70217C11.8678 6.41205 11.6367 6.17472 11.3467 6.16701H10.9326C10.8279 6.16701 10.7431 6.08219 10.7431 5.97757C10.7431 5.87295 10.8279 5.78813 10.9326 5.78813H11.3467C11.8506 5.78813 12.2605 6.19807 12.2605 6.70198C12.2605 7.20588 11.8506 7.6162 11.3467 7.6162ZM11.039 3.15079C10.7257 3.15079 10.4707 2.8958 10.4707 2.58247C10.4707 2.26914 10.7257 2.01416 11.039 2.01416C11.3524 2.01416 11.6073 2.26914 11.6073 2.58247C11.6073 2.8958 11.3524 3.15079 11.039 3.15079ZM11.039 2.39303C10.9344 2.39303 10.8496 2.47785 10.8496 2.58247C10.8496 2.6871 10.9344 2.77191 11.039 2.77191C11.1437 2.77191 11.2285 2.6871 11.2285 2.58247C11.2285 2.47785 11.1437 2.39303 11.039 2.39303Z" fill="#172A42"/>
<circle cx="8.13721" cy="7.06055" r="0.5" fill="#172A42"/>
<circle cx="14.5781" cy="7.06055" r="0.5" fill="#172A42"/>
<circle cx="8.13721" cy="6.30322" r="0.5" fill="#172A42"/>
<circle cx="8.13721" cy="5.54541" r="0.5" fill="#172A42"/>
<circle cx="14.5781" cy="6.30322" r="0.5" fill="#172A42"/>
<circle cx="14.5781" cy="5.54541" r="0.5" fill="#172A42"/>
<circle cx="9.24239" cy="4.38442" r="0.5" transform="rotate(-29.939 9.24239 4.38442)" fill="#172A42"/>
<circle cx="9.89864" cy="4.006" r="0.5" transform="rotate(-29.939 9.89864 4.006)" fill="#172A42"/>
<circle cx="10.5554" cy="3.62808" r="0.5" transform="rotate(-29.939 10.5554 3.62808)" fill="#172A42"/>
<circle cx="14.323" cy="3.78794" r="0.5" transform="rotate(-60.061 14.323 3.78794)" fill="#172A42"/>
<circle cx="13.6657" cy="3.40952" r="0.5" transform="rotate(-60.061 13.6657 3.40952)" fill="#172A42"/>
<circle cx="13.0095" cy="3.03159" r="0.5" transform="rotate(-60.061 13.0095 3.03159)" fill="#172A42"/>
</svg>
