<svg width="34" height="36" viewBox="0 0 34 36" fill="none" xmlns="http://www.w3.org/2000/svg">
<path d="M24.0614 34.7243L27.6809 26.7661C27.7623 26.5845 27.7472 26.3741 27.6406 26.206C27.5348 26.0389 27.3518 25.9364 27.154 25.9335H17.6451C17.1559 24.0156 15.4276 22.6741 13.4482 22.6761H12.5388C12.2805 22.6739 12.0526 22.8442 11.9814 23.0924L10.9208 26.8281L10.2306 25.5943L10.877 23.5302C10.9321 23.3495 10.9004 23.1535 10.7911 22.9994C10.6836 22.8471 10.5107 22.7542 10.3244 22.7484L8.02373 22.7484C7.8376 22.7551 7.66511 22.8478 7.55688 22.9993C7.44865 23.1509 7.41696 23.3441 7.47111 23.5223L8.12044 25.5989L7.54545 26.7103L6.59803 23.017C6.52814 22.7437 6.27113 22.5607 5.98996 22.5841L4.98694 22.6666C3.77255 22.6745 2.61713 23.1913 1.80184 24.0914C0.990292 24.9891 0.558424 26.1917 0.703202 27.3952V34.4938C0.70479 34.6459 0.767418 34.7909 0.877014 34.8964C0.986611 35.0018 1.13398 35.0588 1.286 35.0545H23.5346C23.76 35.0581 23.9664 34.9287 24.0614 34.7243ZM9.53614 23.9067L9.17825 25.0649H9.16986L8.81197 23.9067H9.53614ZM1.86026 27.3089C1.77058 26.4184 2.06194 25.5316 2.66226 24.8678C3.26258 24.204 4.11578 23.8253 5.01076 23.8254C5.02654 23.8254 5.04261 23.8247 5.05839 23.8235L5.5974 23.7792L6.80051 28.47C6.85908 28.6985 7.0505 28.8687 7.28437 28.9001C7.51823 28.9316 7.74778 28.8179 7.86461 28.6129C7.86853 28.6057 7.87236 28.5925 7.87605 28.5854L9.09646 26.2231H9.26339L10.5902 28.5992C10.7012 28.8016 10.9213 28.9193 11.1513 28.8992C11.3883 28.8795 11.5884 28.7154 11.6542 28.4869L12.9761 23.8343H13.4482C14.7889 23.8307 15.9866 24.6715 16.4388 25.9335L14.848 25.9335C14.6207 25.9335 14.4146 26.0663 14.3206 26.2731L10.8552 33.8963H1.86142V27.3668C1.86203 27.3475 1.86164 27.3282 1.86026 27.3089ZM12.1274 33.8963L15.2205 27.0918H26.2543L23.1613 33.8963H12.1274ZM4.90175 16.623V18.0643C4.90175 20.3705 6.79413 22.2467 9.10029 22.2467C11.4065 22.2467 13.2988 20.3705 13.2988 18.0643V16.623C13.2988 14.3167 11.4065 12.4406 9.10029 12.4406C6.79413 12.4406 4.90175 14.3167 4.90175 16.623ZM12.1406 16.623V18.0643C12.1406 19.7434 10.7794 21.1046 9.10029 21.1046C7.42117 21.1046 6.05997 19.7434 6.05997 18.0643V16.623C6.05997 14.9439 7.42117 13.5827 9.10029 13.5827C10.7794 13.5827 12.1406 14.9439 12.1406 16.623ZM24.3902 0C19.4805 0 15.4845 3.99426 15.4845 8.90381C15.4701 12.0685 17.149 14.9993 19.8862 16.5877L19.8862 18.997C19.8871 19.208 20.0022 19.402 20.187 19.5038C20.3718 19.6057 20.5973 19.5995 20.7762 19.4875L23.5211 17.7659C23.8084 17.7936 24.0998 17.8076 24.3898 17.8076C29.3072 17.8076 33.2936 13.8212 33.2936 8.90381C33.2936 3.98637 29.3076 0 24.3902 0ZM24.3902 16.6494C24.0761 16.6494 23.7633 16.6307 23.4524 16.5934C23.3204 16.5777 23.1871 16.6075 23.0744 16.6778L21.0444 17.9501V16.2484C21.0451 16.0351 20.9283 15.8387 20.7404 15.7377C17.288 13.8958 15.7506 9.76896 17.1564 6.1172C18.5622 2.46544 22.47 0.434864 26.2663 1.38352C30.0626 2.33217 32.5559 5.96232 32.0786 9.84612C31.6014 13.7299 28.3032 16.6481 24.3902 16.6494Z" fill="#172A42"/>
<path d="M29.6948 4.8123L24.695 3.19926C24.5797 3.1621 24.4556 3.1621 24.3403 3.19926L19.3425 4.8123C19.1042 4.8899 18.9434 5.11285 18.9451 5.36353V12.1907C18.9437 12.4415 19.1047 12.6644 19.3432 12.7419L24.3433 14.3549C24.4584 14.3921 24.5823 14.3921 24.6974 14.3549L29.6954 12.7419C29.9338 12.6642 30.0945 12.4413 30.0929 12.1907V5.36353C30.0944 5.11272 29.9334 4.88979 29.6948 4.8123ZM24.519 4.35893L27.634 5.36353L24.519 6.36822L21.404 5.36353L24.519 4.35893ZM20.1033 6.1588L23.8675 7.37493V12.9851L20.1033 11.7689V6.1588ZM25.0257 13.0319V7.42176L28.9347 6.1588V11.7689L25.0257 13.0319Z" fill="#D1A65A"/>
</svg>
