<svg width="39" height="30" viewBox="0 0 39 30" fill="none" xmlns="http://www.w3.org/2000/svg">
<path d="M4.38797 0C1.96801 0 0 1.81491 0 4.04663V26.3031C0 28.1625 1.64037 29.6753 3.65665 29.6753H34.3725C36.3887 29.6753 38.0291 28.1625 38.0291 26.3031V23.6053V17.5354V10.791C38.0291 8.5593 36.0611 6.74438 33.6411 6.74438H31.4472V3.37219C31.4472 1.51276 29.8068 0 27.7905 0H4.38797ZM4.38797 1.34888H27.7905C29.0001 1.34888 29.9845 2.25667 29.9845 3.37219V6.74438H28.5218V4.38385C28.5218 3.45447 27.702 2.69775 26.6935 2.69775H4.75364C3.74514 2.69775 2.92532 3.45447 2.92532 4.38385V6.36896C2.05504 5.9009 1.46266 5.04075 1.46266 4.04663C1.46266 2.55882 2.77466 1.34888 4.38797 1.34888ZM4.75364 3.37219H26.6935C27.2983 3.37219 27.7905 3.82609 27.7905 4.38385V6.74438H26.3279H4.38797C4.1342 6.74438 3.89213 6.70488 3.65665 6.64822V4.38385C3.65665 3.82609 4.14883 3.37219 4.75364 3.37219ZM1.46266 7.05526C2.24006 7.69867 3.26319 8.09326 4.38797 8.09326H26.3279H30.7158H33.6411C35.2545 8.09326 36.5665 9.3032 36.5665 10.791V16.861H35.1124V11.8066C35.1124 10.505 33.9642 9.44609 32.5527 9.44609H3.66522C2.72326 9.44609 1.90731 8.96856 1.46266 8.26714V7.05526ZM1.46266 9.3249C2.04699 9.81454 2.81541 10.1205 3.66522 10.1205H32.5527C33.5612 10.1205 34.381 10.8772 34.381 11.8066V16.861H31.0815C28.8641 16.861 27.0592 18.5248 27.0592 20.5704C27.0592 22.6159 28.8641 24.2798 31.0815 24.2798H34.341L34.3353 25.3165C34.3353 25.8742 33.8438 26.3281 33.2398 26.3281L3.65665 26.3031C2.72054 26.3031 1.90877 25.832 1.46266 25.1386V9.3249ZM5.45926 14.1632C5.25741 14.1632 5.09359 14.3143 5.09359 14.5004V14.8482C4.7155 14.8745 4.41369 15.1573 4.41369 15.5121C4.41369 15.8513 4.68678 16.1327 5.04074 16.1799V22.9375C4.68678 22.9847 4.41369 23.2661 4.41369 23.6053C4.41369 23.9608 4.7155 24.2436 5.09359 24.2692V24.617C5.09359 24.8032 5.25741 24.9542 5.45926 24.9542C5.66111 24.9542 5.82492 24.8032 5.82492 24.617V24.2798H7.28758V24.617C7.28758 24.8032 7.4514 24.9542 7.65324 24.9542C7.85509 24.9542 8.01891 24.8032 8.01891 24.617V24.2798H9.48157C11.0949 24.2798 12.4069 23.0698 12.4069 21.582C12.4069 20.4058 11.5809 19.4139 10.44 19.045C10.7574 18.614 10.9442 18.0945 10.9442 17.5354C10.9442 16.0476 9.63222 14.8376 8.01891 14.8376V14.5004C8.01891 14.3143 7.85509 14.1632 7.65324 14.1632C7.4514 14.1632 7.28758 14.3143 7.28758 14.5004V14.8376H5.82492V14.5004C5.82492 14.3143 5.66111 14.1632 5.45926 14.1632ZM6.55625 16.1865H8.01891C8.82484 16.1865 9.48157 16.7915 9.48157 17.5354C9.48157 18.2793 8.82557 18.8843 8.01891 18.8843H6.55625V16.1865ZM31.0815 18.2098H36.5665V22.9309H31.0815C29.67 22.9309 28.5218 21.872 28.5218 20.5704C28.5218 19.2687 29.67 18.2098 31.0815 18.2098ZM31.0815 19.5587C30.4767 19.5587 29.9845 20.0126 29.9845 20.5704C29.9845 21.1281 30.4767 21.582 31.0815 21.582C31.6863 21.582 32.1785 21.1281 32.1785 20.5704C32.1785 20.0126 31.6863 19.5587 31.0815 19.5587ZM6.55625 20.2332H8.01891H9.48157C10.2875 20.2332 10.9442 20.8381 10.9442 21.582C10.9442 22.3259 10.2882 22.9309 9.48157 22.9309H6.55625V20.2332ZM31.0815 20.2332C31.2826 20.2332 31.4472 20.3842 31.4472 20.5704C31.4472 20.7565 31.2826 20.9076 31.0815 20.9076C30.8804 20.9076 30.7158 20.7565 30.7158 20.5704C30.7158 20.3842 30.8804 20.2332 31.0815 20.2332ZM35.0724 24.2798H36.5665V26.3031C36.5665 27.4186 35.5821 28.3264 34.3725 28.3264H3.65665C2.44703 28.3264 1.46266 27.4186 1.46266 26.3031V26.1885C2.04626 26.6734 2.8105 26.9775 3.65665 26.9775L33.2383 27.0026C34.2468 27.0026 35.0667 26.2451 35.0667 25.3178L35.0724 24.2798Z" fill="#A2A2A2"/>
</svg>
