<svg width="58" height="58" viewBox="0 0 58 58" fill="none" xmlns="http://www.w3.org/2000/svg">
<path d="M28.6161 1.00003C18.4134 1.00003 9.0399 6.6283 4.24323 15.6362C-0.553831 24.6471 0.00945234 35.566 5.70674 44.0331L1 56.2322L13.5593 51.7415C23.4399 58.191 36.3266 57.6506 45.6325 50.3965C54.9384 43.1424 58.6076 30.7773 54.7645 19.6214C50.9215 8.46558 40.4153 0.983689 28.6161 1.00003Z" stroke="#303C42" stroke-width="2" stroke-linecap="round" stroke-linejoin="round"/>
<path d="M22.6127 34.6194C25.7345 37.7412 32.6265 41.8236 35.8204 41.8236C38.7089 41.8534 41.2189 39.8453 41.8239 37.0208V34.6194C41.8239 34.6194 38.8702 33.1785 37.0211 32.218C35.172 31.2574 32.2183 34.6194 32.2183 34.6194C29.9709 33.8872 27.9184 32.6557 26.2148 31.0173C24.5764 29.3137 23.3449 27.2612 22.6127 25.0138C22.6127 25.0138 25.9747 22.0601 25.0141 20.211C24.0536 18.3619 22.6127 15.4082 22.6127 15.4082H20.2113C17.3868 16.0132 15.3787 18.5232 15.4085 21.4117C15.4085 24.6056 19.4909 31.4976 22.6127 34.6194Z" stroke="#303C42" stroke-width="2" stroke-linecap="round" stroke-linejoin="round"/>
</svg>
